<svg width="11" height="52" fill="none" xmlns="http://www.w3.org/2000/svg"><path d="M6.824 36.62H3.338L1.645 1.456h6.873L6.824 36.619zm-5.777 9.86c0-3.01 1.328-4.515 3.984-4.515 1.284 0 2.27.387 2.955 1.162.709.775 1.063 1.892 1.063 3.353 0 1.417-.354 2.524-1.063 3.32-.708.776-1.693 1.163-2.955 1.163-1.15 0-2.103-.343-2.855-1.03-.753-.708-1.13-1.859-1.13-3.453z" fill="#DE3232"/><path d="M6.824 36.62v1h.953l.046-.953-.999-.048zm-3.486 0l-.999.047.046.952h.953v-1zM1.645 1.456v-1H.595l.05 1.048 1-.048zm6.873 0l.998.048.05-1.048H8.519v1zm-.532 41.67l-.748.663.005.006.005.006.738-.675zm0 6.674l.738.675.01-.01-.748-.665zm-5.81.133l-.686.728.006.005.006.005.674-.738zm4.648-14.315H3.338v2h3.486v-2zm-2.487.952L2.643 1.409l-1.997.096 1.693 35.162 1.998-.096zM1.645 2.457h6.873v-2H1.645v2zm5.874-1.048L5.825 36.57l1.998.096L9.516 1.505 7.52 1.41zM2.047 46.48c0-1.38.307-2.228.746-2.726.418-.473 1.099-.79 2.238-.79v-2c-1.517 0-2.828.435-3.738 1.467C.403 43.44.047 44.85.047 46.48h2zm2.984-3.516c1.072 0 1.755.314 2.207.825l1.497-1.326c-.92-1.04-2.208-1.5-3.704-1.5v2zm2.217.837c.484.529.8 1.37.8 2.678h2c0-1.612-.39-3.007-1.324-4.028l-1.476 1.35zm.8 2.678c0 1.254-.31 2.096-.81 2.656l1.496 1.33c.918-1.034 1.315-2.406 1.315-3.986h-2zm-.8 2.646c-.48.526-1.174.837-2.217.837v2c1.481 0 2.758-.464 3.693-1.488l-1.476-1.349zm-2.217.837c-.936 0-1.637-.272-2.181-.768l-1.348 1.477c.961.877 2.164 1.29 3.53 1.29v-2zm-2.17-.758c-.465-.437-.814-1.26-.814-2.724h-2c0 1.721.403 3.202 1.443 4.18l1.371-1.456z" fill="#fff"/></svg>