<svg width="285" height="363" fill="none" xmlns="http://www.w3.org/2000/svg"><g opacity=".15" fill-rule="evenodd" clip-rule="evenodd"><path opacity=".5" d="M162.813 290.679c-.957.383-1.866.885-2.704-.646-.335 1.077-.574 1.603-.694 2.178-.838 4.428-2.92 8.712-4.69 13.643a37.688 37.688 0 0 0-1.556 5.72c-.215 1.006-.311 2.059-.407 3.112l-.072 2.011c0 .742.048 1.508.144 2.25.263 2.465.766 4.811 1.46 7.276.048.215.143.359.239.55l4.858-.478 2.465-.335 2.369-.383c2.345-.431 4.595-.694 6.868-.503 1.269.096 2.537-.12 3.758-.287 1.651-.216 3.23-.407 4.786-.694l.502-.096c.072-.024.072-.024.12-.048s.168-.048.192-.072c.047-.024.095 0 .047.12-.095.215-.191.239-.047.144.143-.096.478-.192.67-.144.047 0 .095.024.143.072.12.096.192.311.24.598-.312 1.149-.718 2.657-.862 3.997-.431 3.663-1.579 7.013-1.723 10.771a19.249 19.249 0 0 0 .646 5.673l.192.718.263.91c.191.598.431 1.196.67 1.771l.766 1.699c.526.311 1.1.551 1.627.838l1.292.574.742.312c.024 0 .216.095.096.024l-.263-.12c-.12-.048.047.024.047.024l.527.215 1.029.431c.191.12.311.072.431 0l.383-.144.765-.287 1.484-.55c1.436-.551 2.704-1.006 4.164-1.221.886-.12 1.699-.598 2.561-.91l3.853-1.316c.957-.335 1.938-.646 2.824-1.101a20.202 20.202 0 0 1 3.422-1.412c.598-.168 1.172-.335 1.795-.431.287-.048.622-.096.909-.12.239-.024.455-.024.67 0 .933.072 1.867-.143 2.68-.072l.288.024c.215.838.119 1.915.095 2.705l-.119 1.173-.096 2.011c-.096 1.579-.144 3.135.143 4.763.312 1.795.24 3.686.24 5.577-.024 2.896.622 5.744 1.795 8.401.502 1.101.598 1.077 2.058.718.598-1.939 1.124-3.854 1.34-5.96.359-3.662 1.172-7.3 1.579-11.178.12-1.364.12-2.752.12-4.164 0-.36 0-.527-.024-1.054l-.096-1.555a44.489 44.489 0 0 0-.383-3.088 150.321 150.321 0 0 0-1.22-6.056l-2.633.24c-1.196.119-2.417.167-3.661.383l-2.609.502c-.43.072-.861.168-1.268.263l-.814.216c-.981.263-1.938.526-2.895.814-1.915.55-3.781 1.173-5.648 1.771l-8.089 2.561-2.01.694-.502.168-.24.071-.072.024-.287.12c-.048.048-.239.048-.167.096l.239.096.12.047.048.024s.143.072-.288-.119l-.502-.24-.048-.024-.12-.071-.047-.024.741.335-.024-.024-.095-.072c-.216-.048-.144-.335-.24-.479l-.095-.239c-.048-.12-.048-.096-.12-.431a15.894 15.894 0 0 1-.287-1.604c-.144-1.101-.168-2.249-.12-3.422.096-1.819.479-3.662 1.029-5.458.144-.478.455-.909.79-1.316a49.786 49.786 0 0 0 2.249-3.064l1.987-3.351a375.06 375.06 0 0 1 2.68-3.877c-.383-1.412-.718-2.442-1.005-3.208l-.814-1.795c-.143-.287-.263-.67-.407-.861a2.58 2.58 0 0 0-.502-.527c-.718-.718-2.01-1.221-3.59-1.293-1.077-.095-2.225-.119-3.183-.335a17.12 17.12 0 0 0-2.991-.335c-1.029-.024-1.986.024-2.991.072-1.317.144-2.465.431-3.662.79-.646.191-1.316.287-1.914.503-.67.239-1.46.406-1.915.861-.885.838-1.795 1.006-2.8 1.077-1.507.096-2.991.288-4.451.264-.67 0-1.34.024-1.986.095l-.599.072a6.006 6.006 0 0 1-.311.072c-.406.12-.885.407-1.675.862l-.191.119c-.048 0-.072-.024-.12-.024-.838-.263-1.053-1.675-1.053-2.776-.048-4.117 1.46-8.425 2.848-12.925.287-.934.239-1.939.455-2.92.383-1.891.741-3.806.957-5.745.12-1.077.287-2.178-.503-3.231zm-19.779-128.673c.079.658.24 1.306-.851 1.572.613.387.9.623 1.237.793 2.61 1.256 4.923 3.262 7.69 5.181 1.007.7 2.108 1.345 3.293 1.918.588.301 1.226.535 1.864.77l1.236.379c.461.123.944.221 1.421.285 1.574.247 3.114.325 4.76.304.142.006.247-.029.381-.057l.511-3.095.202-1.587.157-1.534c.122-1.528.333-2.968.83-4.348.271-.771.348-1.594.447-2.38.141-1.061.285-2.073.365-3.087l.024-.328c-.003-.048-.003-.048-.01-.082-.006-.034-.001-.112-.012-.131-.007-.034.016-.059.082-.01.118.096.117.159.081.054-.035-.105-.039-.329.022-.44.008-.03.031-.055.069-.077.079-.058.225-.067.411-.049.662.384 1.53.888 2.338 1.2 2.202.876 4.092 2.147 6.401 2.861 1.147.355 2.371.54 3.629.543h.478l.608-.012c.403-.019.815-.068 1.211-.121l1.183-.193c.28-.275.524-.592.79-.871l.572-.707.317-.408c.004-.015.095-.118.03-.056l-.118.144c-.049.066.023-.026.023-.026l.221-.291.439-.567c.106-.099.096-.182.072-.268l-.026-.261-.051-.524-.095-1.012c-.103-.983-.174-1.846-.065-2.788.073-.57-.089-1.155-.139-1.741l-.176-2.611c-.049-.65-.079-1.311-.214-1.937a13.041 13.041 0 0 1-.307-2.359c-.005-.399-.013-.784.031-1.186.018-.186.044-.402.077-.585.025-.152.061-.286.111-.416.2-.567.222-1.182.402-1.676l.062-.174c.556.006 1.209.244 1.695.391l.709.269 1.232.394c.965.322 1.923.611 2.981.703 1.166.106 2.328.465 3.502.779 1.794.497 3.67.57 5.514.284.767-.129.769-.193.788-1.159-1.104-.694-2.205-1.339-3.477-1.823-2.213-.832-4.337-1.942-6.676-2.84-.828-.301-1.689-.532-2.566-.767-.223-.06-.327-.088-.658-.161l-.982-.199a28.828 28.828 0 0 0-1.98-.276 97.724 97.724 0 0 0-3.963-.249l-.289 1.674c-.125.762-.298 1.528-.371 2.336l-.122 1.703c-.027.28-.04.563-.048.832l-.001.541c0 .653.004 1.291.023 1.933.023 1.28.099 2.542.16 3.801l.245 5.447.096 1.364.021.34.004.16.003.049.027.198c.022.038-.01.156.031.12l.1-.133.049-.066.023-.026s.069-.077-.122.159l-.232.272-.023.025-.065.063-.022.026.331-.405-.019.011-.06.047c-.066.126-.232.033-.337.069l-.165.02c-.082.009-.067.013-.287.002-.332-.009-.69-.041-1.044-.088a13.063 13.063 0 0 1-2.144-.495c-1.114-.362-2.194-.907-3.217-1.547-.273-.169-.489-.434-.686-.709a31.824 31.824 0 0 0-1.528-1.906l-1.75-1.791c-.655-.765-1.31-1.529-1.961-2.309-.941.003-1.635.04-2.159.09l-1.249.207c-.203.041-.46.052-.603.109a1.654 1.654 0 0 0-.411.225c-.565.326-1.092 1.044-1.399 2.013-.239.653-.445 1.362-.738 1.92a11 11 0 0 0-.705 1.802c-.186.635-.316 1.237-.453 1.869-.13.841-.143 1.602-.119 2.404.011.433-.041.865-.007 1.272.038.456.01.974.217 1.332.373.689.325 1.282.203 1.918-.191.952-.319 1.905-.577 2.807-.112.416-.208.836-.271 1.249l-.055.383a4.048 4.048 0 0 1-.007.206c.006.272.105.617.256 1.183l.043.139c-.008.029-.027.04-.035.07-.303.476-1.216.375-1.899.192-2.564-.655-4.988-2.308-7.551-3.918-.531-.334-1.163-.471-1.737-.768-1.11-.553-2.239-1.094-3.407-1.55-.649-.254-1.304-.541-2.09-.226zM.876 360.931c.155.534.377 1.048-.488 1.417.56.236.83.392 1.132.486 2.332.681 4.521 2.021 7.074 3.229.929.44 1.929.823 2.987 1.133.528.168 1.088.275 1.648.381l1.075.144c.398.038.811.053 1.214.04 1.337-.012 2.621-.159 3.98-.403.118-.014.2-.058.308-.099l-.003-2.632-.051-1.339-.082-1.291c-.109-1.281-.132-2.501.09-3.711.117-.675.067-1.367.041-2.03-.029-.897-.05-1.755-.122-2.604l-.025-.275c-.01-.039-.01-.039-.02-.066-.01-.027-.017-.093-.028-.107-.01-.027.005-.051.067-.019.11.062.118.115.074.033s-.078-.267-.042-.367c.003-.026.018-.05.046-.073.058-.059.177-.087.334-.097.6.226 1.387.523 2.099.671 1.942.422 3.68 1.213 5.688 1.487.998.136 2.036.12 3.077-.051l.395-.065.502-.094c.33-.071.664-.168.985-.267l.951-.322c.195-.266.353-.561.535-.829l.375-.663.206-.382c.001-.013.063-.11.018-.05l-.078.135c-.032.062.015-.024.015-.024l.143-.271.285-.53c.074-.096.055-.163.023-.231l-.057-.213-.114-.426-.218-.824c-.22-.799-.398-1.504-.438-2.298-.017-.481-.232-.943-.354-1.421l-.505-2.136c-.13-.531-.245-1.073-.443-1.572a10.897 10.897 0 0 1-.578-1.91c-.06-.329-.119-.646-.138-.985a6.385 6.385 0 0 1-.017-.494c0-.13.011-.245.035-.359.088-.497.02-1.009.102-1.442l.028-.153c.46-.072 1.033.036 1.456.09l.623.126 1.073.156c.843.134 1.675.241 2.563.172.979-.073 1.99.064 3.004.163 1.552.164 3.114-.034 4.6-.524.617-.212.61-.265.493-1.067-1.009-.422-2.008-.804-3.127-1.03-1.946-.384-3.855-1.01-5.914-1.431-.725-.136-1.47-.208-2.227-.282a9.874 9.874 0 0 0-.567-.042l-.84-.03a24.745 24.745 0 0 0-1.676.044 82.79 82.79 0 0 0-3.312.338l-.009 1.425c.002.648-.036 1.305.014 1.984l.134 1.426c.016.235.044.471.075.694l.073.448c.09.54.18 1.067.285 1.596.195 1.055.431 2.089.655 3.122l.951 4.473.268 1.114.063.279.026.132.01.039.049.161c.023.028.013.131.042.095l.064-.124.032-.061.015-.025s.046-.073-.079.148l-.154.257-.016.024-.045.061-.015.024.219-.38-.015.011-.043.048c-.037.113-.187.06-.27.103l-.133.039c-.067.02-.054.021-.237.042-.276.038-.576.06-.875.07-.599.02-1.216-.027-1.843-.114-.97-.147-1.94-.448-2.873-.838-.25-.102-.465-.291-.665-.492a27.08 27.08 0 0 0-1.526-1.367l-1.694-1.24c-.647-.543-1.294-1.085-1.94-1.641a19.63 19.63 0 0 0-1.773.372l-1.006.343c-.161.062-.373.106-.483.173a1.39 1.39 0 0 0-.31.242c-.422.348-.759 1.015-.88 1.858-.107.573-.18 1.188-.346 1.69a9.21 9.21 0 0 0-.336 1.587c-.067.551-.09 1.067-.118 1.609.009.713.103 1.344.233 2.005.069.357.085.721.17 1.053.093.372.141.805.362 1.072.403.519.445 1.016.431 1.559-.027.813-.002 1.619-.091 2.401a9.96 9.96 0 0 0-.053 1.071l.008.324c.008.053.015.106.022.171.043.224.172.496.375.944l.054.109c-.003.025-.017.037-.02.063-.184.435-.953.477-1.544.419-2.21-.189-4.443-1.223-6.784-2.203-.486-.202-1.028-.229-1.543-.396-.994-.304-2.003-.597-3.032-.814-.571-.12-1.153-.267-1.76.101zm238.16-333.254c.155.534.377 1.048-.488 1.417.56.236.83.392 1.132.486 2.332.68 4.521 2.021 7.074 3.229.929.44 1.929.823 2.987 1.133.528.168 1.088.275 1.648.38l1.075.145a9.57 9.57 0 0 0 1.214.04c1.337-.012 2.621-.16 3.98-.403.118-.014.2-.058.308-.1l-.003-2.63-.051-1.34-.082-1.291c-.108-1.28-.132-2.501.089-3.711.118-.675.069-1.367.042-2.03-.029-.897-.049-1.755-.122-2.604l-.025-.275c-.009-.04-.009-.04-.019-.067-.011-.027-.017-.092-.029-.106-.01-.027.005-.051.067-.02.11.063.118.116.074.034s-.077-.267-.042-.367c.003-.026.018-.05.046-.074.058-.059.177-.086.334-.097.6.227 1.388.524 2.099.671 1.942.423 3.68 1.214 5.688 1.487.998.136 2.036.12 3.077-.05l.395-.065.502-.094c.331-.071.664-.168.985-.267l.951-.322c.195-.266.353-.562.535-.829l.375-.663.206-.382c.001-.013.063-.11.018-.05l-.078.135c-.032.062.015-.024.015-.024l.143-.272.285-.53c.075-.096.055-.162.023-.23l-.057-.213-.114-.426-.218-.825c-.22-.799-.398-1.503-.437-2.297-.018-.481-.233-.943-.355-1.421l-.504-2.136c-.13-.53-.246-1.073-.444-1.572-.25-.62-.447-1.262-.578-1.91-.059-.33-.119-.646-.138-.985a6.291 6.291 0 0 1-.016-.494 1.6 1.6 0 0 1 .035-.36c.087-.496.02-1.008.101-1.441l.028-.153c.461-.072 1.033.036 1.456.09l.623.125 1.073.157c.843.134 1.675.24 2.563.172.979-.073 1.99.064 3.004.163 1.552.164 3.114-.034 4.601-.524.617-.212.609-.265.492-1.067-1.008-.422-2.008-.805-3.127-1.03-1.946-.384-3.855-1.01-5.913-1.431-.726-.136-1.471-.208-2.228-.282-.193-.019-.283-.028-.567-.042l-.839-.03a24.394 24.394 0 0 0-1.676.044 81.166 81.166 0 0 0-3.313.338l-.009 1.425c.002.648-.036 1.305.014 1.984l.134 1.426c.016.234.045.47.075.694l.073.448c.09.54.181 1.067.285 1.595.195 1.056.432 2.09.655 3.123l.951 4.472.268 1.115.063.278.026.133.01.04.049.16c.023.028.013.13.042.095l.064-.124.032-.062.015-.024s.046-.073-.079.148l-.154.257-.016.024-.044.06-.016.025.219-.38-.014.011-.044.048c-.037.113-.187.06-.269.103l-.134.04c-.066.018-.053.02-.237.04a8.58 8.58 0 0 1-.875.071c-.598.02-1.216-.028-1.843-.115-.97-.146-1.939-.448-2.873-.837-.25-.102-.465-.291-.665-.492-.51-.49-1.01-.94-1.526-1.367l-1.694-1.24c-.647-.543-1.294-1.085-1.94-1.64-.778.13-1.347.257-1.773.37l-1.006.344c-.161.062-.373.106-.483.173-.11.067-.208.135-.309.242-.423.348-.76 1.014-.881 1.858-.107.573-.18 1.188-.346 1.69a9.285 9.285 0 0 0-.336 1.587c-.066.55-.091 1.067-.118 1.608.009.714.103 1.345.233 2.006.069.357.085.721.17 1.053.093.372.142.804.362 1.072.403.519.445 1.015.431 1.558-.027.814-.002 1.62-.091 2.402a9.7 9.7 0 0 0-.052 1.07l.007.325c.008.053.016.105.022.17.043.225.172.497.375.945l.054.108c-.002.026-.017.038-.019.063-.185.436-.954.478-1.544.42-2.211-.19-4.444-1.223-6.785-2.203-.486-.203-1.028-.23-1.543-.396-.994-.304-2.003-.597-3.032-.814-.571-.12-1.153-.268-1.759.101z" fill="#D6EBF3"/><path opacity=".5" d="M74.272 225.831c-.097-.375-.323-.749-.242-1.059.064-.277.436-.537 1.583-.374-1.406-.815-2.214-1.108-3.038-1.287-3.232-.57-6.48-.114-9.47 1.417-1.471.782-2.942 1.905-3.96 3.631-1.067 1.727-1.277 4.137-.63 5.993.21.684.5 1.303.824 1.873.34.521.647 1.058 1.034 1.531.76.961 1.633 1.856 2.602 2.589 1.923 1.482 4.138 2.492 6.432 3.062 1.875.456 3.798.781 5.754.684a18.644 18.644 0 0 0 7.563-2.15c2.667-1.401 5.14-3.224 7.257-5.749 1.18-1.4 2.004-3.322 2.391-5.243.55-2.59.372-5.293-.355-7.638-.647-2.068-1.552-3.892-2.424-5.732-1.681-3.469-4.962-6.302-8.598-7.719-3.733-1.417-7.757-1.678-11.216-.766-2.036.489-3.975 1.059-5.85 1.759-1.891.684-3.717 1.531-5.398 2.622-3.41 2.166-6.157 5.26-8.404 8.598-1.923 2.964-2.731 6.368-3.539 9.788a5.634 5.634 0 0 0-.178 1.661c.016.57-.016 1.14.049 1.71.064.846.08 1.693.258 2.524.081.423.13.847.227 1.254l.355 1.221c.145.619.42 1.205.679 1.775.21.603.55 1.14.905 1.645 1.761 2.557 3.96 4.543 6.416 6.335 1.357 1.026 3.006 1.644 4.59 2.247 3.377 1.254 6.981 1.742 10.585 1.628.986-.048 1.972-.097 2.925-.309.485-.098.97-.179 1.455-.309.468-.147.953-.31 1.422-.489 1.034-.358 2.052-.83 3.103-1.221 1.018-.489 2.069-.88 3.038-1.466 3.07-1.612 5.463-4.185 6.788-7.068.533-1.205.42-1.237-.566-1.53-1.567 1.482-3.28 2.654-5.171 3.859-3.297 2.036-7.095 3.111-10.877 3.469l-1.002.114-1.002.065c-.662.049-1.341.098-2.004.065-2.893-.032-5.737-.521-8.242-1.531-.63-.211-1.163-.57-1.761-.814-3.249-1.433-5.721-3.973-6.869-7.393-.808-2.492-.889-5.276-.355-7.963.307-1.352.646-2.736 1.26-4.023.242-.537.485-1.091.808-1.579.307-.505.598-1.026.97-1.499.42-.553.824-1.091 1.293-1.596a24.175 24.175 0 0 1 6.254-5.406 20.429 20.429 0 0 1 5.883-2.394c.533-.13 1.115-.098 1.648-.098 3.701.277 6.82.863 9.81 2.231 1.406.668 2.65 1.743 3.75 3.013.355.472.775.928.953 1.498.76 2.101 1.6 3.941 1.94 5.895.128.538.064 1.075.096 1.612-.016.294-.032.603-.032.896-.032.293-.049.586.016.831.113.456 0 .863-.097 1.286-.178.391-.372.782-.679 1.14-.856 1.091-1.923 2.068-3.167 2.736a64.288 64.288 0 0 1-3.717 1.791 48.76 48.76 0 0 1-3.847 1.368c-2.036.57-4.202.261-6.173-.472-4.186-1.466-8.469-6.465-5.091-9.445.582-.619 1.26-1.319 2.1-1.808 1.665-.928 3.67-1.4 5.625-1.384 1.115.033 2.133.244 3.313.098zm162.384 11.492c-.058-.223-.193-.446-.145-.631.039-.165.26-.32.944-.223-.838-.485-1.319-.66-1.811-.767a8.862 8.862 0 0 0-5.644.845c-.877.466-1.753 1.135-2.36 2.164-.636 1.029-.761 2.466-.376 3.572.125.408.299.777.492 1.116.202.311.385.631.616.913a8.712 8.712 0 0 0 1.551 1.543 10.374 10.374 0 0 0 3.833 1.825c1.118.272 2.264.466 3.43.407 1.57-.097 3.12-.543 4.508-1.281 1.589-.834 3.063-1.922 4.324-3.426.704-.835 1.195-1.98 1.426-3.125a9.158 9.158 0 0 0-.212-4.553c-.385-1.232-.925-2.319-1.445-3.416-1.001-2.068-2.957-3.756-5.124-4.601-2.225-.844-4.624-1-6.685-.456-1.214.291-2.37.631-3.487 1.048-1.127.408-2.215.913-3.217 1.563-2.033 1.291-3.67 3.135-5.009 5.125-1.146 1.766-1.628 3.795-2.109 5.833-.087.311-.116.65-.106.99.009.34-.01.68.029 1.019.038.505.048 1.01.154 1.505.048.252.077.504.134.747l.212.728c.087.369.251.718.405 1.058.125.359.327.679.539.98 1.05 1.524 2.36 2.708 3.824 3.776.81.612 1.792.98 2.736 1.339 2.013.748 4.161 1.039 6.309.971.588-.029 1.175-.058 1.744-.184.289-.059.578-.107.867-.185.279-.087.568-.184.847-.291.617-.213 1.224-.495 1.85-.728.606-.291 1.233-.524 1.811-.873 1.83-.961 3.255-2.495 4.045-4.213.318-.718.251-.738-.337-.912-.934.883-1.955 1.582-3.082 2.3-1.965 1.213-4.229 1.854-6.483 2.067l-.597.068-.597.039c-.395.029-.8.058-1.195.039-1.724-.019-3.419-.311-4.912-.912-.376-.126-.694-.34-1.05-.486-1.936-.854-3.41-2.368-4.094-4.406-.482-1.485-.53-3.145-.212-4.746.183-.806.385-1.631.751-2.398.145-.32.289-.65.482-.941.183-.301.356-.612.578-.893.25-.33.491-.651.771-.952a14.42 14.42 0 0 1 3.727-3.222 12.206 12.206 0 0 1 3.507-1.427c.317-.077.664-.058.982-.058 2.206.165 4.065.514 5.847 1.33.838.398 1.58 1.038 2.235 1.795.211.282.462.554.568.893.453 1.252.953 2.349 1.156 3.514.077.32.038.641.058.961-.01.175-.02.359-.02.534-.019.174-.029.349.01.495.067.271 0 .514-.058.767a2.773 2.773 0 0 1-.404.679c-.511.65-1.147 1.233-1.888 1.631-.742.388-1.474.737-2.216 1.067-.751.301-1.502.573-2.292.816-1.214.339-2.505.155-3.68-.282-2.495-.873-5.047-3.853-3.034-5.629.347-.369.751-.787 1.252-1.078.992-.553 2.187-.835 3.352-.825.665.02 1.272.146 1.975.058zM156.684 40.906c-.078-.3-.26-.6-.195-.849.052-.222.35-.431 1.271-.3-1.128-.654-1.776-.889-2.438-1.032a11.918 11.918 0 0 0-7.597 1.136c-1.18.627-2.36 1.529-3.177 2.914-.856 1.384-1.024 3.318-.505 4.807.168.549.401 1.045.661 1.503.272.418.518.849.83 1.228a11.66 11.66 0 0 0 2.087 2.077c1.543 1.189 3.319 1.999 5.16 2.456 1.504.366 3.047.627 4.616.549a14.963 14.963 0 0 0 6.068-1.725c2.139-1.123 4.123-2.586 5.821-4.611.947-1.124 1.608-2.666 1.919-4.207a12.342 12.342 0 0 0-.285-6.127c-.519-1.66-1.245-3.123-1.945-4.6-1.349-2.782-3.98-5.055-6.898-6.192-2.995-1.136-6.223-1.346-8.998-.614-1.633.392-3.189.85-4.693 1.411-1.517.549-2.982 1.228-4.331 2.104-2.735 1.737-4.939 4.22-6.741 6.898-1.543 2.377-2.192 5.108-2.84 7.851a4.545 4.545 0 0 0-.143 1.333c.013.457-.012.915.039 1.372.052.68.065 1.359.208 2.025.065.34.104.68.181 1.006l.286.98c.116.496.337.966.544 1.424.169.483.441.914.726 1.32 1.413 2.05 3.177 3.644 5.147 5.081 1.09.823 2.412 1.32 3.683 1.803 2.709 1.006 5.601 1.398 8.492 1.307.791-.04 1.582-.079 2.347-.248.389-.079.778-.144 1.166-.249a19.66 19.66 0 0 0 1.141-.392c.83-.287 1.647-.666 2.49-.98.817-.392 1.659-.705 2.437-1.175 2.464-1.294 4.383-3.358 5.446-5.67.428-.967.337-.993-.454-1.228-1.258 1.188-2.632 2.13-4.149 3.096-2.645 1.633-5.692 2.495-8.726 2.783l-.804.091-.803.052c-.532.04-1.076.079-1.608.053-2.321-.026-4.603-.418-6.612-1.228-.506-.17-.934-.458-1.414-.654-2.606-1.15-4.589-3.188-5.51-5.931-.648-1.999-.713-4.233-.285-6.389.246-1.084.518-2.194 1.011-3.227.195-.43.389-.875.648-1.267.247-.405.48-.823.778-1.202.337-.444.662-.875 1.038-1.28a19.392 19.392 0 0 1 5.017-4.338 16.408 16.408 0 0 1 4.72-1.92c.427-.105.894-.079 1.322-.079 2.969.223 5.471.693 7.87 1.79 1.128.536 2.126 1.398 3.008 2.417.285.38.622.745.765 1.202.609 1.686 1.283 3.162 1.556 4.73.103.43.052.862.078 1.293-.013.235-.026.483-.026.719-.026.235-.039.47.013.666.09.366 0 .692-.078 1.032-.143.314-.298.627-.545.914-.687.876-1.543 1.66-2.541 2.195a52.01 52.01 0 0 1-2.982 1.438c-1.011.405-2.023.77-3.086 1.097-1.633.457-3.371.209-4.953-.379-3.358-1.176-6.793-5.187-4.084-7.577.467-.497 1.012-1.059 1.686-1.45 1.335-.745 2.943-1.124 4.512-1.111.894.026 1.711.196 2.658.078z" fill="#D7EAF2"/><path opacity=".5" d="M71.36 132.149c.62-.465 1.184-1.008 2.091-.057.034-.848.106-1.278.08-1.719-.253-3.382.426-6.903.753-10.833.12-1.431.13-2.925.017-4.462-.04-.772-.175-1.557-.31-2.341l-.34-1.476a13.42 13.42 0 0 0-.543-1.608c-.672-1.741-1.494-3.348-2.479-5.005-.077-.148-.174-.233-.281-.354l-3.439 1.294-1.726.724-1.648.74c-1.621.77-3.206 1.4-4.896 1.704-.94.177-1.82.581-2.675.94-1.159.479-2.27.926-3.345 1.437l-.347.168c-.047.031-.047.031-.077.058-.03.027-.113.067-.126.089-.03.027-.07.019-.058-.077.028-.175.093-.212.007-.114-.086.098-.31.233-.459.235-.035.009-.074.001-.118-.024-.106-.047-.2-.189-.29-.389.002-.896.003-2.071-.153-3.074-.4-2.746-.218-5.406-.846-8.166a14.479 14.479 0 0 0-1.575-3.998l-.279-.485-.368-.61a16.868 16.868 0 0 0-.833-1.157l-.887-1.087c-.444-.123-.908-.185-1.347-.292l-1.051-.166-.6-.081c-.017.004-.175-.028-.074 0l.214.037c.097.011-.039-.008-.039-.008l-.425-.055-.832-.112c-.162-.05-.24.008-.313.084l-.25.179-.501.358-.972.689c-.936.68-1.77 1.258-2.79 1.699-.62.26-1.118.766-1.684 1.16L33.002 97.7c-.631.43-1.284.848-1.839 1.351a15.174 15.174 0 0 1-2.213 1.693c-.402.239-.787.472-1.22.663-.2.091-.434.191-.639.264a2.39 2.39 0 0 1-.487.131c-.692.13-1.329.468-1.934.574l-.214.039c-.32-.567-.46-1.369-.596-1.948l-.142-.876-.322-1.48c-.238-1.167-.506-2.308-1.032-3.435-.576-1.245-.892-2.634-1.26-4.008-.547-2.11-1.572-4.055-2.942-5.759-.58-.702-.645-.666-1.636-.12-.058 1.525-.067 3.02.186 4.593.453 2.733.57 5.536 1.03 8.435.178 1.015.449 2.024.724 3.051.07.261.102.383.222.761l.373 1.112c.27.73.558 1.455.88 2.171a113.984 113.984 0 0 0 2.067 4.164l1.867-.686c.847-.32 1.725-.593 2.588-.992l1.798-.874c.3-.136.594-.289.871-.438l.55-.315a79.288 79.288 0 0 0 1.946-1.156c1.285-.773 2.52-1.589 3.761-2.388l5.382-3.438 1.326-.896.333-.22.16-.099.048-.03.185-.144c.026-.044.165-.081.103-.102l-.192-.023-.097-.012-.04-.008s-.118-.024.233.031l.412.076.04.009.1.028.04.009-.605-.1.022.013.084.034c.166-.007.17.215.267.301l.116.156c.058.077.054.06.171.29.185.342.362.723.521 1.11.32.772.56 1.603.754 2.465.285 1.341.366 2.755.315 4.168-.011.376-.153.749-.318 1.111a37.513 37.513 0 0 0-1.038 2.665l-.791 2.823a277.333 277.333 0 0 1-1.194 3.342 27.42 27.42 0 0 0 1.356 2.136l.941 1.146c.16.181.322.436.464.548a1.9 1.9 0 0 0 .468.284c.662.383 1.699.496 2.861.241.802-.14 1.642-.347 2.38-.377a12.8 12.8 0 0 0 2.24-.339c.752-.183 1.44-.404 2.16-.635.93-.36 1.709-.793 2.509-1.287.432-.265.9-.465 1.294-.739.44-.304.982-.58 1.224-.999.48-.782 1.109-1.08 1.825-1.329 1.078-.363 2.12-.791 3.185-1.058.487-.131.97-.279 1.426-.457l.42-.168c.066-.036.13-.072.213-.113.272-.166.564-.468 1.05-.953l.116-.124c.035-.01.057.003.091-.006.66.028 1.092 1.013 1.307 1.813.837 2.984.58 6.41.447 9.952-.027.735.204 1.456.239 2.212.09 1.449.202 2.911.423 4.363.123.806.215 1.639.995 2.251z" fill="#D6EBF3"/></g></svg>