<svg width="285" height="277" fill="none" xmlns="http://www.w3.org/2000/svg"><g opacity=".15"><g opacity=".5"><mask id="path-1-inside-1" fill="#fff"><path fill-rule="evenodd" clip-rule="evenodd" d="M122.043 79.854c.957-.383 1.867-.885 2.704.646.335-1.077.575-1.603.694-2.178.838-4.428 2.92-8.712 4.691-13.643a37.795 37.795 0 0 0 1.555-5.72c.216-1.006.311-2.059.407-3.112l.072-2.01c0-.743-.048-1.509-.144-2.25-.263-2.466-.765-4.812-1.459-7.277-.048-.215-.144-.359-.24-.55l-4.858.478-2.465.335-2.369.383c-2.345.431-4.595.694-6.868.503-1.268-.096-2.537.12-3.757.287-1.651.215-3.231.407-4.786.694l-.503.096c-.072.024-.072.024-.12.048s-.167.048-.191.072c-.048.024-.096 0-.048-.12.096-.215.191-.24.048-.144-.144.096-.479.192-.67.144-.048 0-.096-.024-.144-.072-.119-.096-.191-.311-.239-.598.311-1.15.718-2.657.861-3.997.431-3.663 1.58-7.014 1.723-10.771a19.214 19.214 0 0 0-.646-5.673l-.191-.718-.263-.91a22.8 22.8 0 0 0-.67-1.77l-.766-1.7c-.527-.312-1.101-.55-1.628-.838l-1.292-.575-.742-.31c-.024 0-.215-.096-.095-.025l.263.12c.12.048-.048-.024-.048-.024l-.526-.215-1.03-.431c-.191-.12-.31-.072-.43 0l-.383.143-.766.288-1.484.55c-1.436.55-2.704 1.005-4.164 1.22-.885.12-1.699.6-2.56.91l-3.853 1.317c-.957.335-1.939.646-2.824 1.101a20.27 20.27 0 0 1-3.422 1.412c-.599.168-1.173.335-1.795.431-.287.048-.622.096-.91.12a3.124 3.124 0 0 1-.67 0c-.933-.072-1.866.143-2.68.072l-.287-.024c-.215-.838-.12-1.915-.096-2.705l.12-1.173.096-2.01c.095-1.58.143-3.136-.144-4.764-.311-1.795-.24-3.686-.24-5.577.025-2.896-.622-5.744-1.794-8.401-.503-1.101-.598-1.077-2.058-.718-.599 1.939-1.125 3.854-1.34 5.96-.36 3.662-1.173 7.3-1.58 11.178-.12 1.364-.12 2.752-.12 4.164 0 .36 0 .527.025 1.054l.095 1.555a45.3 45.3 0 0 0 .383 3.088c.359 2.01.766 3.997 1.22 6.056l2.633-.24c1.197-.12 2.417-.167 3.661-.383l2.609-.502c.43-.072.861-.168 1.268-.264l.814-.215c.981-.263 1.938-.527 2.896-.814 1.914-.55 3.78-1.173 5.647-1.771l8.09-2.561 2.01-.694.502-.168.24-.072.071-.023.287-.12c.048-.048.24-.048.168-.096l-.24-.096-.12-.048-.047-.023s-.144-.072.287.12l.503.239.047.023.12.072.048.024-.742-.335.024.024.096.072c.215.048.143.335.239.479l.096.239c.048.12.048.096.12.43.12.503.215 1.054.287 1.604.143 1.102.167 2.25.12 3.423-.097 1.82-.48 3.662-1.03 5.457-.143.48-.455.91-.79 1.317a49.918 49.918 0 0 0-2.249 3.064l-1.986 3.35c-.886 1.293-1.771 2.586-2.68 3.878.382 1.412.717 2.442 1.004 3.208l.814 1.795c.144.287.263.67.407.861.144.192.287.36.502.527.719.718 2.01 1.22 3.59 1.292 1.077.096 2.226.12 3.183.336.933.191 1.962.31 2.991.335 1.029.024 1.987-.024 2.992-.072 1.316-.144 2.465-.43 3.661-.79.646-.191 1.317-.287 1.915-.503.67-.239 1.46-.407 1.914-.861.886-.838 1.795-1.006 2.8-1.077 1.508-.096 2.992-.288 4.451-.264.67 0 1.341-.024 1.987-.095l.598-.072c.096-.024.191-.048.311-.072.407-.12.886-.407 1.675-.862l.192-.12c.048 0 .072.025.119.025.838.263 1.053 1.675 1.053 2.776.048 4.117-1.459 8.425-2.847 12.925-.288.934-.24 1.939-.455 2.92-.383 1.891-.742 3.806-.957 5.745-.12 1.077-.288 2.178.502 3.231z"/></mask><path fill-rule="evenodd" clip-rule="evenodd" d="M122.043 79.854c.957-.383 1.867-.885 2.704.646.335-1.077.575-1.603.694-2.178.838-4.428 2.92-8.712 4.691-13.643a37.795 37.795 0 0 0 1.555-5.72c.216-1.006.311-2.059.407-3.112l.072-2.01c0-.743-.048-1.509-.144-2.25-.263-2.466-.765-4.812-1.459-7.277-.048-.215-.144-.359-.24-.55l-4.858.478-2.465.335-2.369.383c-2.345.431-4.595.694-6.868.503-1.268-.096-2.537.12-3.757.287-1.651.215-3.231.407-4.786.694l-.503.096c-.072.024-.072.024-.12.048s-.167.048-.191.072c-.048.024-.096 0-.048-.12.096-.215.191-.24.048-.144-.144.096-.479.192-.67.144-.048 0-.096-.024-.144-.072-.119-.096-.191-.311-.239-.598.311-1.15.718-2.657.861-3.997.431-3.663 1.58-7.014 1.723-10.771a19.214 19.214 0 0 0-.646-5.673l-.191-.718-.263-.91a22.8 22.8 0 0 0-.67-1.77l-.766-1.7c-.527-.312-1.101-.55-1.628-.838l-1.292-.575-.742-.31c-.024 0-.215-.096-.095-.025l.263.12c.12.048-.048-.024-.048-.024l-.526-.215-1.03-.431c-.191-.12-.31-.072-.43 0l-.383.143-.766.288-1.484.55c-1.436.55-2.704 1.005-4.164 1.22-.885.12-1.699.6-2.56.91l-3.853 1.317c-.957.335-1.939.646-2.824 1.101a20.27 20.27 0 0 1-3.422 1.412c-.599.168-1.173.335-1.795.431-.287.048-.622.096-.91.12a3.124 3.124 0 0 1-.67 0c-.933-.072-1.866.143-2.68.072l-.287-.024c-.215-.838-.12-1.915-.096-2.705l.12-1.173.096-2.01c.095-1.58.143-3.136-.144-4.764-.311-1.795-.24-3.686-.24-5.577.025-2.896-.622-5.744-1.794-8.401-.503-1.101-.598-1.077-2.058-.718-.599 1.939-1.125 3.854-1.34 5.96-.36 3.662-1.173 7.3-1.58 11.178-.12 1.364-.12 2.752-.12 4.164 0 .36 0 .527.025 1.054l.095 1.555a45.3 45.3 0 0 0 .383 3.088c.359 2.01.766 3.997 1.22 6.056l2.633-.24c1.197-.12 2.417-.167 3.661-.383l2.609-.502c.43-.072.861-.168 1.268-.264l.814-.215c.981-.263 1.938-.527 2.896-.814 1.914-.55 3.78-1.173 5.647-1.771l8.09-2.561 2.01-.694.502-.168.24-.072.071-.023.287-.12c.048-.048.24-.048.168-.096l-.24-.096-.12-.048-.047-.023s-.144-.072.287.12l.503.239.047.023.12.072.048.024-.742-.335.024.024.096.072c.215.048.143.335.239.479l.096.239c.048.12.048.096.12.43.12.503.215 1.054.287 1.604.143 1.102.167 2.25.12 3.423-.097 1.82-.48 3.662-1.03 5.457-.143.48-.455.91-.79 1.317a49.918 49.918 0 0 0-2.249 3.064l-1.986 3.35c-.886 1.293-1.771 2.586-2.68 3.878.382 1.412.717 2.442 1.004 3.208l.814 1.795c.144.287.263.67.407.861.144.192.287.36.502.527.719.718 2.01 1.22 3.59 1.292 1.077.096 2.226.12 3.183.336.933.191 1.962.31 2.991.335 1.029.024 1.987-.024 2.992-.072 1.316-.144 2.465-.43 3.661-.79.646-.191 1.317-.287 1.915-.503.67-.239 1.46-.407 1.914-.861.886-.838 1.795-1.006 2.8-1.077 1.508-.096 2.992-.288 4.451-.264.67 0 1.341-.024 1.987-.095l.598-.072c.096-.024.191-.048.311-.072.407-.12.886-.407 1.675-.862l.192-.12c.048 0 .072.025.119.025.838.263 1.053 1.675 1.053 2.776.048 4.117-1.459 8.425-2.847 12.925-.288.934-.24 1.939-.455 2.92-.383 1.891-.742 3.806-.957 5.745-.12 1.077-.288 2.178.502 3.231z" fill="#D6EBF3" stroke="#fff" stroke-width="2" mask="url(#path-1-inside-1)"/></g><g opacity=".5"><mask id="path-2-inside-2" fill="#fff"><path fill-rule="evenodd" clip-rule="evenodd" d="M141.822 208.527c-.078-.658-.239-1.306.851-1.572-.613-.387-.9-.623-1.237-.793-2.609-1.256-4.923-3.262-7.689-5.181a24.377 24.377 0 0 0-3.293-1.918c-.588-.301-1.226-.535-1.864-.77l-1.236-.379a11.528 11.528 0 0 0-1.421-.285c-1.575-.247-3.114-.325-4.76-.304-.142-.006-.247.029-.382.057l-.511 3.095-.202 1.586-.156 1.535c-.123 1.528-.334 2.968-.831 4.348-.27.771-.347 1.594-.446 2.38-.141 1.061-.285 2.073-.366 3.087l-.024.328c.003.048.003.048.01.082s.002.112.013.131c.007.033-.016.059-.083.01-.117-.096-.116-.159-.081-.054.036.105.04.329-.022.44-.008.03-.031.055-.068.077-.08.058-.226.067-.412.049-.661-.384-1.53-.888-2.338-1.2-2.202-.876-4.091-2.147-6.4-2.861a12.385 12.385 0 0 0-3.63-.543h-.477l-.609.012c-.403.019-.814.068-1.211.121l-1.182.193c-.281.275-.525.592-.791.871l-.572.707-.316.408c-.004.015-.095.118-.031.056l.118-.144c.05-.066-.023.026-.023.026l-.22.291-.44.567c-.106.099-.096.181-.071.268l.025.261.051.524.095 1.012c.103.983.174 1.846.065 2.788-.073.57.09 1.155.139 1.741l.176 2.611c.049.65.079 1.311.214 1.937.174.779.28 1.571.308 2.359.004.399.013.784-.032 1.186a7.606 7.606 0 0 1-.077.585 1.95 1.95 0 0 1-.111.416c-.2.567-.221 1.182-.401 1.675l-.063.175c-.556-.006-1.209-.244-1.695-.391l-.708-.269-1.233-.394c-.964-.322-1.922-.611-2.98-.703-1.167-.106-2.329-.465-3.502-.779-1.795-.497-3.67-.57-5.515-.284-.767.129-.768.193-.788 1.159 1.104.694 2.205 1.339 3.477 1.823 2.214.832 4.337 1.942 6.677 2.84.827.301 1.689.532 2.566.767.222.06.326.088.657.16l.982.2c.655.112 1.314.209 1.98.276 1.309.111 2.61.189 3.963.249l.29-1.674c.124-.762.298-1.528.371-2.337l.122-1.703c.027-.279.039-.562.047-.831l.002-.541c0-.653-.005-1.291-.024-1.933-.023-1.28-.099-2.542-.16-3.801l-.244-5.447-.097-1.364-.02-.34-.005-.16-.003-.049-.026-.198c-.022-.038.01-.157-.032-.12l-.099.133-.05.066-.023.026s-.068.077.122-.159l.233-.272.022-.026.065-.062.023-.026-.332.405.019-.011.061-.047c.065-.126.232-.034.337-.069l.164-.02c.082-.009.068-.013.288-.002.332.009.689.041 1.043.088.707.094 1.425.27 2.145.495 1.113.362 2.194.907 3.217 1.547.273.169.489.434.686.709a31.815 31.815 0 0 0 1.527 1.906l1.75 1.791c.655.765 1.311 1.529 1.962 2.309.94-.003 1.635-.04 2.158-.09l1.25-.207c.202-.041.46-.052.603-.109.142-.057.27-.119.41-.225.565-.326 1.092-1.045 1.4-2.013.238-.653.444-1.362.737-1.92.274-.548.52-1.167.706-1.802.186-.635.315-1.237.453-1.869.13-.841.142-1.602.119-2.404-.012-.433.04-.865.006-1.273-.037-.455-.01-.973-.217-1.331-.372-.689-.325-1.282-.202-1.918.191-.952.319-1.905.577-2.807.111-.416.208-.836.271-1.249l.054-.384c.002-.063.003-.126.008-.205-.007-.272-.106-.617-.257-1.183l-.042-.139c.008-.029.027-.04.035-.07.302-.476 1.215-.375 1.899-.192 2.563.655 4.987 2.308 7.55 3.918.532.334 1.164.471 1.737.768 1.111.553 2.24 1.094 3.407 1.55.649.254 1.305.541 2.09.226z"/></mask><path fill-rule="evenodd" clip-rule="evenodd" d="M141.822 208.527c-.078-.658-.239-1.306.851-1.572-.613-.387-.9-.623-1.237-.793-2.609-1.256-4.923-3.262-7.689-5.181a24.377 24.377 0 0 0-3.293-1.918c-.588-.301-1.226-.535-1.864-.77l-1.236-.379a11.528 11.528 0 0 0-1.421-.285c-1.575-.247-3.114-.325-4.76-.304-.142-.006-.247.029-.382.057l-.511 3.095-.202 1.586-.156 1.535c-.123 1.528-.334 2.968-.831 4.348-.27.771-.347 1.594-.446 2.38-.141 1.061-.285 2.073-.366 3.087l-.024.328c.003.048.003.048.01.082s.002.112.013.131c.007.033-.016.059-.083.01-.117-.096-.116-.159-.081-.054.036.105.04.329-.022.44-.008.03-.031.055-.068.077-.08.058-.226.067-.412.049-.661-.384-1.53-.888-2.338-1.2-2.202-.876-4.091-2.147-6.4-2.861a12.385 12.385 0 0 0-3.63-.543h-.477l-.609.012c-.403.019-.814.068-1.211.121l-1.182.193c-.281.275-.525.592-.791.871l-.572.707-.316.408c-.004.015-.095.118-.031.056l.118-.144c.05-.066-.023.026-.023.026l-.22.291-.44.567c-.106.099-.096.181-.071.268l.025.261.051.524.095 1.012c.103.983.174 1.846.065 2.788-.073.57.09 1.155.139 1.741l.176 2.611c.049.65.079 1.311.214 1.937.174.779.28 1.571.308 2.359.004.399.013.784-.032 1.186a7.606 7.606 0 0 1-.077.585 1.95 1.95 0 0 1-.111.416c-.2.567-.221 1.182-.401 1.675l-.063.175c-.556-.006-1.209-.244-1.695-.391l-.708-.269-1.233-.394c-.964-.322-1.922-.611-2.98-.703-1.167-.106-2.329-.465-3.502-.779-1.795-.497-3.67-.57-5.515-.284-.767.129-.768.193-.788 1.159 1.104.694 2.205 1.339 3.477 1.823 2.214.832 4.337 1.942 6.677 2.84.827.301 1.689.532 2.566.767.222.06.326.088.657.16l.982.2c.655.112 1.314.209 1.98.276 1.309.111 2.61.189 3.963.249l.29-1.674c.124-.762.298-1.528.371-2.337l.122-1.703c.027-.279.039-.562.047-.831l.002-.541c0-.653-.005-1.291-.024-1.933-.023-1.28-.099-2.542-.16-3.801l-.244-5.447-.097-1.364-.02-.34-.005-.16-.003-.049-.026-.198c-.022-.038.01-.157-.032-.12l-.099.133-.05.066-.023.026s-.068.077.122-.159l.233-.272.022-.026.065-.062.023-.026-.332.405.019-.011.061-.047c.065-.126.232-.034.337-.069l.164-.02c.082-.009.068-.013.288-.002.332.009.689.041 1.043.088.707.094 1.425.27 2.145.495 1.113.362 2.194.907 3.217 1.547.273.169.489.434.686.709a31.815 31.815 0 0 0 1.527 1.906l1.75 1.791c.655.765 1.311 1.529 1.962 2.309.94-.003 1.635-.04 2.158-.09l1.25-.207c.202-.041.46-.052.603-.109.142-.057.27-.119.41-.225.565-.326 1.092-1.045 1.4-2.013.238-.653.444-1.362.737-1.92.274-.548.52-1.167.706-1.802.186-.635.315-1.237.453-1.869.13-.841.142-1.602.119-2.404-.012-.433.04-.865.006-1.273-.037-.455-.01-.973-.217-1.331-.372-.689-.325-1.282-.202-1.918.191-.952.319-1.905.577-2.807.111-.416.208-.836.271-1.249l.054-.384c.002-.063.003-.126.008-.205-.007-.272-.106-.617-.257-1.183l-.042-.139c.008-.029.027-.04.035-.07.302-.476 1.215-.375 1.899-.192 2.563.655 4.987 2.308 7.55 3.918.532.334 1.164.471 1.737.768 1.111.553 2.24 1.094 3.407 1.55.649.254 1.305.541 2.09.226z" fill="#D6EBF3" stroke="#fff" stroke-width="2" mask="url(#path-2-inside-2)"/></g><g opacity=".5"><mask id="path-3-inside-3" fill="#fff"><path fill-rule="evenodd" clip-rule="evenodd" d="M283.981 9.602c-.155-.534-.377-1.048.488-1.417-.56-.236-.83-.392-1.132-.486-2.332-.68-4.521-2.021-7.074-3.23a20.365 20.365 0 0 0-2.987-1.132c-.528-.168-1.088-.275-1.648-.381l-1.075-.144a9.562 9.562 0 0 0-1.214-.04c-1.337.012-2.621.16-3.98.403-.118.014-.2.058-.308.1l.003 2.63.051 1.34.082 1.291c.109 1.28.132 2.501-.089 3.71-.118.676-.068 1.368-.042 2.031.029.897.049 1.755.122 2.604l.025.275a.32.32 0 0 0 .019.066c.011.027.017.093.029.107.01.027-.005.051-.067.02-.11-.063-.118-.116-.074-.034s.077.267.042.367c-.003.026-.018.05-.046.073-.058.06-.177.087-.334.097-.6-.227-1.387-.524-2.099-.67-1.942-.423-3.68-1.214-5.688-1.487a10.367 10.367 0 0 0-3.077.05l-.395.065-.502.094c-.331.071-.664.168-.985.267l-.951.322c-.195.266-.353.561-.535.829l-.375.663-.206.382c-.001.012-.063.11-.018.05l.078-.135c.032-.062-.015.024-.015.024l-.143.271-.285.53c-.074.096-.055.163-.023.231l.057.213.114.426.218.824c.22.8.398 1.504.437 2.298.018.481.233.943.355 1.421l.505 2.136c.129.53.245 1.073.443 1.572.25.62.447 1.262.578 1.91.059.33.119.646.138.985.01.156.019.339.017.494 0 .13-.011.245-.035.36-.088.496-.021 1.008-.102 1.441l-.028.153c-.46.072-1.033-.036-1.456-.09l-.623-.126-1.073-.156c-.843-.134-1.675-.24-2.563-.172-.979.073-1.99-.064-3.004-.163-1.552-.164-3.114.034-4.601.524-.616.212-.609.265-.492 1.067 1.009.422 2.008.804 3.127 1.03 1.946.384 3.855 1.01 5.914 1.431.725.136 1.47.208 2.227.282.193.019.283.027.567.042l.839.03a24.77 24.77 0 0 0 1.677-.044 81.39 81.39 0 0 0 3.312-.338l.009-1.425c-.002-.648.036-1.306-.014-1.984l-.134-1.426c-.016-.235-.044-.47-.075-.694l-.073-.448c-.09-.54-.181-1.067-.285-1.596-.195-1.055-.432-2.09-.655-3.122l-.951-4.473-.268-1.114-.063-.279-.026-.132-.009-.04-.05-.16c-.023-.028-.013-.13-.042-.095l-.064.124-.032.061-.015.025s-.046.073.079-.148l.154-.257.016-.024.045-.06.015-.025-.219.38.015-.011.043-.048c.037-.113.187-.06.269-.103l.134-.04c.066-.019.054-.02.237-.041a8.58 8.58 0 0 1 .875-.07c.598-.02 1.216.027 1.843.114.971.147 1.939.448 2.873.837.25.102.465.292.665.493.51.49 1.011.94 1.526 1.367l1.694 1.24a204.98 204.98 0 0 1 1.94 1.64 19.493 19.493 0 0 0 1.773-.371l1.006-.343c.161-.062.373-.106.483-.173a1.4 1.4 0 0 0 .309-.242c.423-.348.76-1.015.881-1.858.107-.573.18-1.188.346-1.69.151-.49.269-1.037.336-1.587.067-.551.091-1.067.118-1.609-.009-.713-.103-1.345-.233-2.005-.069-.357-.085-.721-.169-1.053-.094-.372-.142-.805-.363-1.072-.403-.52-.445-1.016-.431-1.559.027-.813.002-1.62.091-2.401.035-.36.057-.72.053-1.07l-.008-.325a3.738 3.738 0 0 1-.022-.171c-.043-.224-.172-.496-.375-.944l-.054-.109c.003-.025.017-.037.019-.063.185-.435.954-.477 1.545-.42 2.211.19 4.443 1.224 6.784 2.204.486.202 1.028.23 1.543.396.994.304 2.003.597 3.032.814.571.12 1.153.267 1.759-.101z"/></mask><path fill-rule="evenodd" clip-rule="evenodd" d="M283.981 9.602c-.155-.534-.377-1.048.488-1.417-.56-.236-.83-.392-1.132-.486-2.332-.68-4.521-2.021-7.074-3.23a20.365 20.365 0 0 0-2.987-1.132c-.528-.168-1.088-.275-1.648-.381l-1.075-.144a9.562 9.562 0 0 0-1.214-.04c-1.337.012-2.621.16-3.98.403-.118.014-.2.058-.308.1l.003 2.63.051 1.34.082 1.291c.109 1.28.132 2.501-.089 3.71-.118.676-.068 1.368-.042 2.031.029.897.049 1.755.122 2.604l.025.275a.32.32 0 0 0 .019.066c.011.027.017.093.029.107.01.027-.005.051-.067.02-.11-.063-.118-.116-.074-.034s.077.267.042.367c-.003.026-.018.05-.046.073-.058.06-.177.087-.334.097-.6-.227-1.387-.524-2.099-.67-1.942-.423-3.68-1.214-5.688-1.487a10.367 10.367 0 0 0-3.077.05l-.395.065-.502.094c-.331.071-.664.168-.985.267l-.951.322c-.195.266-.353.561-.535.829l-.375.663-.206.382c-.001.012-.063.11-.018.05l.078-.135c.032-.062-.015.024-.015.024l-.143.271-.285.53c-.074.096-.055.163-.023.231l.057.213.114.426.218.824c.22.8.398 1.504.437 2.298.018.481.233.943.355 1.421l.505 2.136c.129.53.245 1.073.443 1.572.25.62.447 1.262.578 1.91.059.33.119.646.138.985.01.156.019.339.017.494 0 .13-.011.245-.035.36-.088.496-.021 1.008-.102 1.441l-.028.153c-.46.072-1.033-.036-1.456-.09l-.623-.126-1.073-.156c-.843-.134-1.675-.24-2.563-.172-.979.073-1.99-.064-3.004-.163-1.552-.164-3.114.034-4.601.524-.616.212-.609.265-.492 1.067 1.009.422 2.008.804 3.127 1.03 1.946.384 3.855 1.01 5.914 1.431.725.136 1.47.208 2.227.282.193.019.283.027.567.042l.839.03a24.77 24.77 0 0 0 1.677-.044 81.39 81.39 0 0 0 3.312-.338l.009-1.425c-.002-.648.036-1.306-.014-1.984l-.134-1.426c-.016-.235-.044-.47-.075-.694l-.073-.448c-.09-.54-.181-1.067-.285-1.596-.195-1.055-.432-2.09-.655-3.122l-.951-4.473-.268-1.114-.063-.279-.026-.132-.009-.04-.05-.16c-.023-.028-.013-.13-.042-.095l-.064.124-.032.061-.015.025s-.046.073.079-.148l.154-.257.016-.024.045-.06.015-.025-.219.38.015-.011.043-.048c.037-.113.187-.06.269-.103l.134-.04c.066-.019.054-.02.237-.041a8.58 8.58 0 0 1 .875-.07c.598-.02 1.216.027 1.843.114.971.147 1.939.448 2.873.837.25.102.465.292.665.493.51.49 1.011.94 1.526 1.367l1.694 1.24a204.98 204.98 0 0 1 1.94 1.64 19.493 19.493 0 0 0 1.773-.371l1.006-.343c.161-.062.373-.106.483-.173a1.4 1.4 0 0 0 .309-.242c.423-.348.76-1.015.881-1.858.107-.573.18-1.188.346-1.69.151-.49.269-1.037.336-1.587.067-.551.091-1.067.118-1.609-.009-.713-.103-1.345-.233-2.005-.069-.357-.085-.721-.169-1.053-.094-.372-.142-.805-.363-1.072-.403-.52-.445-1.016-.431-1.559.027-.813.002-1.62.091-2.401.035-.36.057-.72.053-1.07l-.008-.325a3.738 3.738 0 0 1-.022-.171c-.043-.224-.172-.496-.375-.944l-.054-.109c.003-.025.017-.037.019-.063.185-.435.954-.477 1.545-.42 2.211.19 4.443 1.224 6.784 2.204.486.202 1.028.23 1.543.396.994.304 2.003.597 3.032.814.571.12 1.153.267 1.759-.101z" fill="#D6EBF3" stroke="#fff" stroke-width="2" mask="url(#path-3-inside-3)"/></g><path opacity=".5" d="M192.484 139.784c.388-1.921 1.212-3.843 2.392-5.243 2.117-2.525 4.59-4.348 7.256-5.749l-9.648 10.992zm0 0a15.379 15.379 0 0 0 .356 7.638m-.356-7.638l22.593 21.855m-11.216-.766c3.734 1.417 7.758 1.677 11.216.766m-11.216-.766c-3.636-1.417-6.917-4.25-8.597-7.719m8.597 7.719l.178-.467h.002m-.18.467l.182-.466-.002-.001m11.036 1.233c2.037-.489 3.976-1.059 5.851-1.759l-5.851 1.759zm-19.813-8.485l-.254-.533c-.791-1.662-1.586-3.331-2.17-5.199m2.424 5.732l.45-.218.001.002m-.451.216l.451-.214v-.002m-2.875-5.516l.477-.149v.001m-.477.148l.477-.148s0 0 0 0m0 0a14.883 14.883 0 0 1-.344-7.386l.001-.005c.375-1.859 1.17-3.698 2.284-5.02l.001-.001c2.068-2.466 4.486-4.252 7.106-5.627l.002-.002a18.141 18.141 0 0 1 7.357-2.091c1.884-.094 3.752.219 5.606.67 2.234.555 4.383 1.536 6.246 2.972l.004.003h0c.929.702 1.772 1.566 2.511 2.5l.006.008h0c.266.323.485.671.724 1.05.086.137.174.278.269.423.307.543.578 1.124.774 1.76l.002.008.003.009c.6 1.721.401 3.974-.583 5.566l-.005.009h0c-.957 1.621-2.343 2.688-3.76 3.442-2.887 1.477-6.02 1.918-9.143 1.369a7.148 7.148 0 0 1-1.471-.49.92.92 0 0 0 .405-.56c.07-.275.01-.54-.048-.728.323-.008.642.007.966.03.164.011.334.026.508.041.37.031.758.064 1.145.076h.01v0c2.034.017 4.125-.473 5.872-1.448l.008-.004h0c.903-.525 1.621-1.267 2.198-1.881.934-.832 1.36-1.83 1.37-2.881.009-1.04-.388-2.086-1.008-3.041-1.235-1.903-3.442-3.585-5.632-4.352-2.032-.755-4.309-1.091-6.478-.484l-.012.004h0c-1.34.412-2.614.872-3.885 1.381l-.009.004-.008.004a64.612 64.612 0 0 0-3.746 1.805l-.005.002c-1.314.705-2.429 1.73-3.318 2.86-.351.412-.567.854-.747 1.25l-.021.046-.011.049a8.676 8.676 0 0 0-.024.105c-.089.376-.206.87-.071 1.414l.002.007h0c.039.146.035.356.003.648l-.003.027v.028c0 .277-.016.574-.032.868l-.001.029.001.028c.01.166.01.319.01.488 0 .092 0 .19.002.296.004.277.02.583.094.899.265 1.515.826 2.977 1.402 4.482.186.486.374.976.554 1.473.176.555.55 1.029.849 1.409.064.081.124.157.179.23l.01.013.011.013c1.127 1.303 2.424 2.43 3.913 3.137l.006.003h0c3.065 1.402 6.249 1.996 9.981 2.275l.019.002h.018l.245.002c.454.005 1.008.011 1.519-.114a20.937 20.937 0 0 0 6.025-2.451h0a24.69 24.69 0 0 0 6.374-5.507c.462-.499.863-1.027 1.258-1.548l.053-.071c.322-.409.589-.856.836-1.268l.161-.268c.323-.491.57-1.038.792-1.533l.047-.104c.639-1.341.988-2.773 1.295-4.122l.003-.013h-.001c.548-2.758.468-5.631-.37-8.215l-.002-.005h0c-1.195-3.563-3.773-6.206-7.14-7.692l-.013-.005h0a8.898 8.898 0 0 1-.703-.337l-.127-.065a7.183 7.183 0 0 0-.947-.419c-2.567-1.032-5.466-1.527-8.401-1.561-.694-.033-1.399.018-2.053.066h-.003l-.997.065-.012.001-.012.001-.998.114c-3.839.364-7.713 1.457-11.087 3.54l-.006.004h0c-1.813 1.156-3.489 2.297-5.033 3.719a2.355 2.355 0 0 1-.24-.085l.011-.044c.038-.137.116-.333.249-.634 1.279-2.78 3.592-5.27 6.565-6.83l.013-.007.013-.008c.627-.379 1.267-.663 1.942-.962.335-.149.679-.301 1.033-.471.464-.173.921-.361 1.367-.545l.185-.076a28.793 28.793 0 0 1 1.519-.589l.008-.002.007-.003c.453-.173.924-.332 1.383-.475.342-.092.677-.157 1.033-.225l.381-.075.01-.002h0c.903-.201 1.845-.249 2.837-.298 3.546-.112 7.082.37 10.389 1.597l.041.016c1.584.602 3.145 1.196 4.423 2.162l.007.005h0c2.429 1.772 4.58 3.72 6.299 6.215l.003.004h0c.348.495.655.986.841 1.521l.008.022.009.02.039.085c.25.552.483 1.064.609 1.598l.003.013.003.013.352 1.209c.055.233.09.449.127.684.027.164.054.339.092.536l.002.011h0c.129.6.167 1.2.208 1.843.012.2.025.405.041.614l.001.01.001.009c.04.353.04.684.039 1.045 0 .196 0 .401.006.622a5.131 5.131 0 0 1-.159 1.513l-.003.01-.002.009c-.811 3.433-1.603 6.748-3.47 9.627-2.223 3.302-4.923 6.336-8.255 8.452l-.004.003c-1.641 1.065-3.431 1.896-5.295 2.571l-.005.001c-1.852.692-3.772 1.257-5.792 1.741l-.011.003h0c-3.348.883-7.264.634-10.909-.749m-10.724-13.132c.573 1.832 1.352 3.469 2.146 5.134l.252.53m0 0c1.619 3.341 4.795 6.092 8.326 7.468m11.408-33.08c-1.875-.456-3.798-.781-5.753-.684l12.185 3.746c-1.923-1.482-4.137-2.492-6.432-3.062zm-166.282 6.371a8.625 8.625 0 0 0-.315-.016.86.86 0 0 1-.021.279.716.716 0 0 1-.088.212c.207.079.387.129.566.168a8.356 8.356 0 0 0 5.316-.797c.823-.438 1.616-1.051 2.16-1.975h0l.006-.009c.553-.895.667-2.174.329-3.145l-.003-.009-.003-.008a5.055 5.055 0 0 0-.44-1.004 20.993 20.993 0 0 1-.165-.258 5.632 5.632 0 0 0-.41-.596h-.001l-.006-.008a8.166 8.166 0 0 0-1.46-1.454h0l-.003-.003a9.864 9.864 0 0 0-3.648-1.735c-1.096-.267-2.188-.449-3.282-.394a10.622 10.622 0 0 0-4.301 1.223l-.003.001c-1.542.81-2.961 1.859-4.174 3.305v.001c-.638.757-1.1 1.82-1.318 2.902h0l-.002.005a8.666 8.666 0 0 0 .2 4.3c.338 1.078.796 2.04 1.27 3.035l.149.314c.94 1.94 2.792 3.546 4.853 4.35 2.137.811 4.428.954 6.378.439h0l.01-.002a29.375 29.375 0 0 0 3.43-1.031h0l.004-.001c1.1-.399 2.153-.888 3.115-1.512h0l.005-.003c1.953-1.241 3.544-3.025 4.86-4.978 1.089-1.682 1.555-3.622 2.04-5.673l.002-.01.002-.01c.07-.249.097-.536.088-.841a12.631 12.631 0 0 1-.004-.392c0-.206 0-.385-.022-.585v-.009l-.002-.009a21.18 21.18 0 0 1-.025-.379c-.025-.38-.046-.717-.12-1.059h0l-.001-.011c-.025-.131-.042-.239-.058-.337a4.775 4.775 0 0 0-.07-.377l-.208-.715-.004-.013-.003-.013c-.07-.298-.201-.587-.353-.922l-.02-.044-.01-.02-.007-.021c-.101-.292-.271-.567-.476-.858v.001l-.003-.005c-1.007-1.462-2.27-2.607-3.707-3.655h0l-.006-.005c-.74-.559-1.647-.904-2.602-1.267l-.009-.003c-1.941-.721-4.022-1.005-6.113-.94-.593.03-1.136.058-1.655.173h0l-.01.002c-.08.017-.159.032-.234.046-.208.041-.397.077-.592.129-.27.084-.545.177-.808.278l-.008.003-.007.002a17.473 17.473 0 0 0-1.005.392c-.263.109-.536.221-.813.324-.22.106-.428.198-.628.286a9.884 9.884 0 0 0-1.12.555l-.012.008-.014.007c-1.688.886-3.009 2.286-3.764 3.851.824-.703 1.704-1.296 2.637-1.891h0l.006-.004c2.042-1.26 4.382-1.919 6.694-2.139l.592-.067.012-.002h.012l.595-.039c.387-.029.817-.06 1.244-.04 1.766.021 3.517.319 5.071.943.22.075.417.173.586.259l.078.04c.147.075.27.139.402.193h0l.012.005c2.055.906 3.634 2.523 4.366 4.705h0l.002.005c.512 1.578.559 3.325.227 4.998h0l-.003.013c-.183.803-.394 1.676-.785 2.497l-.028.062a6.65 6.65 0 0 1-.485.937c-.03.048-.06.099-.09.151a7.384 7.384 0 0 1-.547.823c-.233.307-.476.627-.757.931a14.91 14.91 0 0 1-3.847 3.322h0a12.669 12.669 0 0 1-3.649 1.485c-.332.081-.692.076-.96.073l-.138-.001h-.018l-.019-.001c-2.237-.168-4.161-.525-6.017-1.374h0l-.007-.003c-.92-.437-1.715-1.131-2.398-1.92l-.011-.013-.01-.014a3.859 3.859 0 0 0-.097-.123c-.176-.223-.428-.541-.546-.91a49.226 49.226 0 0 0-.322-.856c-.345-.9-.688-1.796-.85-2.718a2.682 2.682 0 0 1-.06-.573c-.002-.071-.002-.132-.002-.188 0-.095 0-.177-.005-.27l-.002-.029.002-.028c.01-.176.018-.348.018-.507v-.027l.003-.028c.02-.173.017-.265.004-.312h0l-.002-.007c-.093-.375-.011-.716.041-.937l.015-.062.011-.049.021-.047c.108-.237.246-.521.473-.789.543-.689 1.227-1.319 2.038-1.754h0l.005-.003a39.727 39.727 0 0 1 2.244-1.081l.009-.004.008-.003a29.516 29.516 0 0 1 2.332-.83h0l.012-.003c1.346-.377 2.748-.166 3.984.293 1.344.471 2.696 1.5 3.457 2.674.383.59.64 1.252.634 1.924-.007.683-.285 1.329-.877 1.86-.343.364-.787.824-1.35 1.151h0l-.008.005c-1.075.599-2.356.898-3.6.888h0-.01c-.237-.007-.478-.028-.702-.047l-.292-.024zm-9.683-10.267l.003.002-.003-.002z" fill="#D7EAF2" stroke="#fff"/><g opacity=".5"><mask id="path-6-inside-4" fill="#fff"><path fill-rule="evenodd" clip-rule="evenodd" d="M213.497 238.384c-.621.465-1.184 1.008-2.092.057-.033.848-.105 1.278-.08 1.719.254 3.382-.425 6.903-.752 10.833a28.469 28.469 0 0 0-.017 4.462c.04.772.175 1.557.311 2.341l.339 1.476c.145.539.329 1.087.543 1.608.672 1.741 1.494 3.348 2.479 5.005.076.148.174.233.281.354l3.439-1.294 1.726-.724 1.648-.74c1.621-.77 3.206-1.4 4.896-1.704.94-.177 1.821-.581 2.675-.94 1.159-.479 2.27-.926 3.345-1.437l.347-.168c.047-.031.047-.031.077-.058.03-.027.113-.067.125-.09.031-.026.07-.018.059.078-.028.175-.093.211-.007.114.085-.098.31-.233.459-.235.035-.009.074-.001.118.024.106.046.2.189.291.389-.003.896-.005 2.071.152 3.074.4 2.746.218 5.406.846 8.166a14.458 14.458 0 0 0 1.575 3.998l.279.485.368.61c.256.398.547.786.832 1.157l.888 1.087c.444.123.908.185 1.347.292l1.051.166.6.081c.017-.004.175.028.074-.001l-.215-.036c-.096-.011.04.008.04.008l.425.054.832.113c.162.05.24-.008.313-.084l.25-.179.501-.358.972-.689c.936-.68 1.77-1.258 2.789-1.699.621-.259 1.119-.766 1.685-1.16l2.544-1.707c.631-.431 1.284-.848 1.839-1.351a15.14 15.14 0 0 1 2.213-1.693c.402-.239.787-.472 1.221-.663a8.4 8.4 0 0 1 .638-.264c.169-.064.326-.106.487-.131.692-.13 1.329-.468 1.934-.574l.214-.039c.32.567.46 1.369.596 1.948l.142.876.322 1.48c.238 1.167.506 2.308 1.032 3.435.576 1.245.892 2.634 1.261 4.008.546 2.111 1.571 4.055 2.941 5.759.58.702.645.666 1.636.121.058-1.526.067-3.021-.186-4.594-.453-2.733-.57-5.536-1.03-8.435-.178-1.015-.449-2.024-.724-3.051a14.47 14.47 0 0 0-.222-.761l-.373-1.112c-.27-.73-.558-1.455-.88-2.171a113.188 113.188 0 0 0-2.067-4.164l-1.867.686c-.847.32-1.725.593-2.588.992l-1.798.874a14.74 14.74 0 0 0-.871.438l-.55.315c-.662.383-1.306.761-1.946 1.156-1.285.773-2.521 1.589-3.761 2.388l-5.382 3.438-1.326.896-.333.22-.16.098-.048.032-.185.143c-.026.044-.165.081-.103.102l.192.023.097.012.039.008s.118.024-.232-.031l-.412-.077-.039-.008-.101-.029-.04-.008.605.1-.022-.013-.084-.034c-.166.007-.17-.215-.267-.301l-.116-.156c-.058-.077-.054-.06-.171-.29a11.851 11.851 0 0 1-.521-1.109 15.153 15.153 0 0 1-.754-2.466c-.285-1.341-.366-2.755-.315-4.168.011-.376.153-.75.317-1.111.392-.906.735-1.782 1.039-2.665l.791-2.823c.392-1.113.784-2.225 1.194-3.342a27.42 27.42 0 0 0-1.356-2.136l-.941-1.146c-.16-.181-.322-.436-.464-.548a1.9 1.9 0 0 0-.468-.284c-.662-.383-1.699-.496-2.861-.241-.802.14-1.642.347-2.38.377-.715.042-1.487.156-2.24.339-.753.183-1.439.404-2.161.635-.928.36-1.708.793-2.508 1.287-.432.265-.901.465-1.294.739-.44.304-.982.58-1.224.999-.48.781-1.109 1.08-1.825 1.328-1.078.364-2.119.792-3.185 1.059-.487.131-.97.278-1.426.457l-.421.168c-.065.036-.13.072-.212.113-.272.166-.564.468-1.05.953l-.116.124c-.035.01-.057-.003-.092.006-.66-.028-1.091-1.013-1.306-1.813-.837-2.984-.58-6.41-.447-9.952.027-.735-.204-1.456-.239-2.212-.09-1.449-.202-2.911-.423-4.363-.123-.806-.215-1.639-.995-2.251z"/></mask><path fill-rule="evenodd" clip-rule="evenodd" d="M213.497 238.384c-.621.465-1.184 1.008-2.092.057-.033.848-.105 1.278-.08 1.719.254 3.382-.425 6.903-.752 10.833a28.469 28.469 0 0 0-.017 4.462c.04.772.175 1.557.311 2.341l.339 1.476c.145.539.329 1.087.543 1.608.672 1.741 1.494 3.348 2.479 5.005.076.148.174.233.281.354l3.439-1.294 1.726-.724 1.648-.74c1.621-.77 3.206-1.4 4.896-1.704.94-.177 1.821-.581 2.675-.94 1.159-.479 2.27-.926 3.345-1.437l.347-.168c.047-.031.047-.031.077-.058.03-.027.113-.067.125-.09.031-.026.07-.018.059.078-.028.175-.093.211-.007.114.085-.098.31-.233.459-.235.035-.009.074-.001.118.024.106.046.2.189.291.389-.003.896-.005 2.071.152 3.074.4 2.746.218 5.406.846 8.166a14.458 14.458 0 0 0 1.575 3.998l.279.485.368.61c.256.398.547.786.832 1.157l.888 1.087c.444.123.908.185 1.347.292l1.051.166.6.081c.017-.004.175.028.074-.001l-.215-.036c-.096-.011.04.008.04.008l.425.054.832.113c.162.05.24-.008.313-.084l.25-.179.501-.358.972-.689c.936-.68 1.77-1.258 2.789-1.699.621-.259 1.119-.766 1.685-1.16l2.544-1.707c.631-.431 1.284-.848 1.839-1.351a15.14 15.14 0 0 1 2.213-1.693c.402-.239.787-.472 1.221-.663a8.4 8.4 0 0 1 .638-.264c.169-.064.326-.106.487-.131.692-.13 1.329-.468 1.934-.574l.214-.039c.32.567.46 1.369.596 1.948l.142.876.322 1.48c.238 1.167.506 2.308 1.032 3.435.576 1.245.892 2.634 1.261 4.008.546 2.111 1.571 4.055 2.941 5.759.58.702.645.666 1.636.121.058-1.526.067-3.021-.186-4.594-.453-2.733-.57-5.536-1.03-8.435-.178-1.015-.449-2.024-.724-3.051a14.47 14.47 0 0 0-.222-.761l-.373-1.112c-.27-.73-.558-1.455-.88-2.171a113.188 113.188 0 0 0-2.067-4.164l-1.867.686c-.847.32-1.725.593-2.588.992l-1.798.874a14.74 14.74 0 0 0-.871.438l-.55.315c-.662.383-1.306.761-1.946 1.156-1.285.773-2.521 1.589-3.761 2.388l-5.382 3.438-1.326.896-.333.22-.16.098-.048.032-.185.143c-.026.044-.165.081-.103.102l.192.023.097.012.039.008s.118.024-.232-.031l-.412-.077-.039-.008-.101-.029-.04-.008.605.1-.022-.013-.084-.034c-.166.007-.17-.215-.267-.301l-.116-.156c-.058-.077-.054-.06-.171-.29a11.851 11.851 0 0 1-.521-1.109 15.153 15.153 0 0 1-.754-2.466c-.285-1.341-.366-2.755-.315-4.168.011-.376.153-.75.317-1.111.392-.906.735-1.782 1.039-2.665l.791-2.823c.392-1.113.784-2.225 1.194-3.342a27.42 27.42 0 0 0-1.356-2.136l-.941-1.146c-.16-.181-.322-.436-.464-.548a1.9 1.9 0 0 0-.468-.284c-.662-.383-1.699-.496-2.861-.241-.802.14-1.642.347-2.38.377-.715.042-1.487.156-2.24.339-.753.183-1.439.404-2.161.635-.928.36-1.708.793-2.508 1.287-.432.265-.901.465-1.294.739-.44.304-.982.58-1.224.999-.48.781-1.109 1.08-1.825 1.328-1.078.364-2.119.792-3.185 1.059-.487.131-.97.278-1.426.457l-.421.168c-.065.036-.13.072-.212.113-.272.166-.564.468-1.05.953l-.116.124c-.035.01-.057-.003-.092.006-.66-.028-1.091-1.013-1.306-1.813-.837-2.984-.58-6.41-.447-9.952.027-.735-.204-1.456-.239-2.212-.09-1.449-.202-2.911-.423-4.363-.123-.806-.215-1.639-.995-2.251z" fill="#D6EBF3" stroke="#fff" stroke-width="2" mask="url(#path-6-inside-4)"/></g></g></svg>