<svg width="239" height="79" fill="none" xmlns="http://www.w3.org/2000/svg"><g filter="url(#filter0_d)"><path fill-rule="evenodd" clip-rule="evenodd" d="M151.859 37.441c-13.803 0-15.54 2.335-15.313 3.636-1.12 2.915 2.545 5.971 3.19 7.282-1.224-1.719-1.443-5.307 2.449-6.874 1.007-.408 8.573-1.13 10.196-1.196-.209-.892-.322-1.956-.522-2.848z" fill="url(#paint0_linear)"/><path d="M46.17 21.74c-.105.968-.18 1.945-.247 2.942-.067.987-.124 1.984-.18 2.962-.058.978-.105 1.937-.162 2.867-.047.93-.095 1.813-.123 2.649a248.278 248.278 0 0 0-.19 5.658 117.66 117.66 0 0 0-.171 5.743 81.8 81.8 0 0 1-.18 5.42 32.22 32.22 0 0 1-.656 4.776c-.322 1.471-.835 2.734-1.566 3.816-.721 1.073-1.7 1.918-2.914 2.516-1.225.617-2.8.911-4.71.911-1.442 0-2.59-.208-3.464-.626-.864-.418-1.52-.921-1.984-1.529-.456-.598-.76-1.234-.902-1.908-.133-.674-.209-1.272-.209-1.784 0-.56.095-1.083.256-1.567.18-.474.409-.902.731-1.262a3.423 3.423 0 0 1 1.14-.864 3.622 3.622 0 0 1 1.537-.323c.608 0 1.15.114 1.624.342.475.227.873.531 1.196.901.323.37.56.779.73 1.244.162.465.248.911.248 1.377a3.395 3.395 0 0 1-.171.816 3.283 3.283 0 0 1-.437.769c-.2.285-.484.57-.845.845.2.085.39.133.55.161.181.029.343.038.504.038.427 0 .873-.123 1.348-.38.465-.256.902-.654 1.291-1.196.399-.54.722-1.224.988-2.04.256-.827.408-1.795.446-2.934 0-1.225 0-2.44.01-3.608.009-1.186.028-2.487.056-3.91-.55 1.062-1.148 1.888-1.785 2.467-.645.58-1.253 1.016-1.822 1.291a5.57 5.57 0 0 1-2.003.59c-1.206 0-2.27-.305-3.171-.912-.902-.608-1.643-1.472-2.231-2.582-.589-1.12-1.035-2.45-1.32-4.026-.285-1.566-.427-3.313-.427-5.25 0-5.363.37-10.48 1.11-15.35l6.247.674a49.12 49.12 0 0 0-.389 1.775 70.22 70.22 0 0 0-.332 1.994 48.75 48.75 0 0 0-.256 2.079c-.076.693-.143 1.367-.21 2.003a171.9 171.9 0 0 0-.37 4.604c0 1.567.048 2.915.152 4.073.105 1.158.276 2.117.532 2.876.256.76.608 1.33 1.044 1.709.447.38 1.007.57 1.71.57.483-.086.967-.428 1.423-1.035.2-.266.399-.598.617-.987.209-.39.418-.874.636-1.443.21-.58.418-1.254.617-2.032.2-.779.38-1.69.541-2.725.038-1.272.086-2.44.114-3.503.029-1.053.038-2.079.038-3.038a75.11 75.11 0 0 0-.076-3.36 77.545 77.545 0 0 0-.218-3.39l6.285.105zM11.139 49.146c-.38 0-.75-.01-1.101-.028a19.597 19.597 0 0 0-1.063-.029c-.694 0-1.339.01-1.947.029-.607.019-1.13.038-1.576.076-.54.028-1.025.066-1.452.095.228-2.459.408-4.851.541-7.177a309.7 309.7 0 0 0 .304-6.247c.057-2.136.104-4.167.114-6.085 0-1.87-.038-3.778-.095-5.734-.038-.835-.076-1.709-.114-2.649-.038-.92-.085-1.86-.142-2.829a73.807 73.807 0 0 0-.228-2.886c-.086-.968-.18-1.908-.276-2.829a37.3 37.3 0 0 0 1.918.095c.598 0 1.14.01 1.642.01.532 0 1.007-.01 1.424-.01.428-.019.788-.028 1.083-.047.341-.02.645-.038.911-.048-.152 2.05-.266 4.063-.342 6.029-.085 1.965-.142 3.74-.18 5.316a204.472 204.472 0 0 0-.076 5.24v1.5a31.816 31.816 0 0 0 2.8-4.044 33.164 33.164 0 0 0 2.175-4.49 30.13 30.13 0 0 0 1.424-4.71 22.94 22.94 0 0 0 .503-4.698v-.788l8.363.74a495.49 495.49 0 0 0-3.76 6.731c-1.062 1.946-1.983 3.617-2.743 5.032a204.718 204.718 0 0 0-1.86 3.522c-.475.94-.845 1.67-1.111 2.221 1.168.313 2.098.74 2.81 1.291a6.433 6.433 0 0 1 1.69 1.908c.408.722.702 1.51.873 2.374.18.854.313 1.746.399 2.658.104.92.19 1.85.285 2.781.095.94.256 1.852.503 2.734.133.503.323 1.035.56 1.567.218.474.494 1.006.835 1.585.342.58.779 1.177 1.3 1.785l-6.939.142c-.38-.38-.683-.873-.92-1.5a12.677 12.677 0 0 1-.551-1.841 16.045 16.045 0 0 1-.342-2.24 51.92 51.92 0 0 1-.161-2.65 37.653 37.653 0 0 0-.143-2.44c-.076-.768-.19-1.49-.36-2.135-.162-.646-.418-1.206-.779-1.671-.36-.475-.845-.835-1.443-1.092-.588-.256-1.348-.38-2.288-.38-.18 0-.36.01-.54.029-.181.019-.371.038-.57.066.047 1.776.123 4.016.208 6.712.095 2.687.238 5.696.437 9.01zm44.164-.276c.275-3.56.674-7.186 1.186-10.898.484-3.683 1.13-7.319 1.937-10.87a219.509 219.509 0 0 1 1.623 10.776 614.22 614.22 0 0 1 1.263 10.746l7.063-.294a313.451 313.451 0 0 1-1.794-7.11 291.51 291.51 0 0 1-1.576-6.836 378.76 378.76 0 0 1-1.453-6.845c-.437-2.297-.883-4.652-1.329-7.091l-7.1.152a175.842 175.842 0 0 1-1.53 7.253 294.66 294.66 0 0 1-1.718 6.92 233.193 233.193 0 0 1-1.946 6.883 382.443 382.443 0 0 1-2.212 7.11l7.586.105zm26.989-.34c.028-.656.066-1.282.114-1.88a75.72 75.72 0 0 1 .132-1.728c-.56.987-1.148 1.737-1.784 2.26-.627.53-1.216.92-1.757 1.186a6.038 6.038 0 0 1-1.898.541c-1.206 0-2.27-.304-3.171-.911-.902-.608-1.642-1.472-2.231-2.582-.589-1.12-1.035-2.45-1.32-4.026-.284-1.566-.427-3.313-.427-5.25 0-2.715.086-5.335.257-7.879a82.84 82.84 0 0 1 .844-7.471l6.247.674a80.29 80.29 0 0 0-.902 5.221 86.556 86.556 0 0 0-.456 3.92 48.96 48.96 0 0 0-.199 3.305c0 1.566.048 2.914.152 4.072.105 1.158.275 2.117.532 2.877.256.76.607 1.329 1.044 1.709.446.38 1.006.57 1.709.57.474-.086.94-.41 1.405-.988.19-.256.398-.56.617-.95.209-.389.418-.854.636-1.424.209-.55.418-1.205.617-1.965.2-.76.39-1.633.57-2.639a97.87 97.87 0 0 0 .038-2.886v-6.968c0-1.395-.02-2.962-.039-4.7l5.583.105a144.74 144.74 0 0 0-.2 3.456c-.047 1.054-.085 2.05-.114 2.98-.028.922-.038 1.795-.057 2.621a102.61 102.61 0 0 0-.028 2.383c0 1.187.01 2.335.038 3.465.028 1.13.057 2.335.114 3.607.047 1.273.104 2.668.161 4.187.057 1.519.114 3.256.18 5.212l-6.407-.105zm26.002-28.034a6.401 6.401 0 0 1-.769.038 14.61 14.61 0 0 1-.93.028h-1.966c-.313 0-.588-.01-.835-.028-.256 0-.456-.02-.617-.038-.161-.02-.256-.048-.294-.105.085.57.171 1.292.256 2.165.057.864.114 1.86.171 2.971.047 1.101.085 2.298.104 3.57.019.826.029 1.67.029 2.563-.475.057-1.035.114-1.671.17-.873.067-1.86.124-2.952.181l-.523.029.076-2.658c.048-1.567.114-3.114.2-4.633.076-1.49.18-2.877.294-4.187l-6.645.105c.142 1.965.275 3.854.398 5.658a315.101 315.101 0 0 1 .399 10.699c.029 1.756.038 3.56.038 5.42v3.2c0 1.063-.019 2.164-.038 3.294l5.117-.19v-2.781c0-.912.01-1.994.029-3.247 0-1.187.009-2.526.028-4.035l.029-1.405c1.784.038 3.531.066 5.211.114a129.18 129.18 0 0 1-.104 3.911c-.048 1.33-.105 2.62-.171 3.864a287.286 287.286 0 0 1-.256 3.465 14.396 14.396 0 0 1 2.411-.218c.617 0 1.187.028 1.728.076.541.038 1.044.095 1.519.142v-6.123c0-3.92.019-7.756.047-11.497.048-3.75.133-7.3.247-10.623a1.73 1.73 0 0 1-.56.105z" fill="#fff"/><path fill-rule="evenodd" clip-rule="evenodd" d="M123.037 34.868a10.81 10.81 0 0 1-1.851 1.776c-.484.342-1.016.73-1.585 1.158-.561.427-1.092.873-1.567 1.348a7.877 7.877 0 0 0-1.206 1.49c-.322.523-.474 1.054-.474 1.586 0 .74.18 1.367.541 1.899.361.522.873.788 1.528.788.608 0 1.149-.171 1.624-.494a5.711 5.711 0 0 0 1.272-1.215 8.24 8.24 0 0 0 .94-1.567c.256-.55.455-1.063.598-1.528l.18-5.24zm.37 14.42a25.661 25.661 0 0 1-.265-1.556 21.053 21.053 0 0 1-.2-1.623c-.759 1.12-1.652 1.974-2.705 2.572-1.054.608-2.203.902-3.446.902a6.983 6.983 0 0 1-1.975-.304 4.756 4.756 0 0 1-1.832-1.072c-.551-.503-.997-1.206-1.348-2.08-.352-.882-.532-1.993-.532-3.332 0-1.12.171-2.088.494-2.924.332-.825.75-1.556 1.272-2.173a9.593 9.593 0 0 1 1.775-1.624 21.34 21.34 0 0 1 1.956-1.234c.645-.36 1.272-.693 1.86-1.006.589-.314 1.073-.617 1.453-.93a12.36 12.36 0 0 0 1.88-1.833 9.407 9.407 0 0 0 1.291-2.031c-.067-1.13-.181-2.07-.361-2.8-.171-.722-.399-1.311-.674-1.748-.275-.427-.617-.73-1.025-.911a3.432 3.432 0 0 0-1.358-.256c-.759 0-1.396.17-1.918.493-.512.332-.93.722-1.262 1.177.398.266.721.542.94.836.227.294.398.579.503.864.133.313.209.626.228.959 0 1.12-.323 1.965-.95 2.563-.626.588-1.433.883-2.43.883-.503 0-.978-.114-1.405-.352a3.809 3.809 0 0 1-1.12-.996 4.775 4.775 0 0 1-.75-1.529 6.483 6.483 0 0 1-.266-1.918c0-.692.152-1.424.465-2.192.313-.77.817-1.49 1.5-2.146.693-.665 1.566-1.215 2.658-1.652 1.082-.427 2.402-.645 3.94-.645 1.547 0 2.867.294 3.968.901a7.91 7.91 0 0 1 2.706 2.383c.702.988 1.215 2.136 1.538 3.437a16.51 16.51 0 0 1 .474 4.006c0 1.035-.009 2.155-.028 3.37l-.029 2.734-2.107-2.031.636 3.778c.133.779.294 1.652.066 2.43-.133.447-.408.807-.664 1.187-.617.93-1.111 1.576-1.624 2.601-.455.912-.863 2.26-.693 3.276.105.636.219 1.072.409 1.49l-1.045.057z" fill="#fff"/><path d="M168.244 15.037c0 .341-.066.674-.209.987a2.937 2.937 0 0 1-.56.826 2.41 2.41 0 0 1-.835.55c-.323.133-.655.2-.997.2a2.62 2.62 0 0 1-1.016-.2 2.377 2.377 0 0 1-.835-.55 2.602 2.602 0 0 1-.56-.826 2.325 2.325 0 0 1-.209-.987c0-.361.066-.693.209-1.026a2.69 2.69 0 0 1 .56-.835 2.79 2.79 0 0 1 .835-.57 2.628 2.628 0 0 1 1.016-.208c.342 0 .684.075.997.208a2.673 2.673 0 0 1 1.395 1.405c.143.333.209.665.209 1.026zm-6.645 0c0 .341-.066.674-.209.987a2.937 2.937 0 0 1-.56.826 2.42 2.42 0 0 1-.835.55 2.657 2.657 0 0 1-2.013 0 2.368 2.368 0 0 1-.835-.55 2.57 2.57 0 0 1-.56-.826 2.325 2.325 0 0 1-.209-.987c0-.361.066-.693.209-1.026.132-.322.332-.598.56-.835a2.77 2.77 0 0 1 .835-.57c.323-.133.646-.208.997-.208s.693.075 1.016.208c.322.143.598.333.835.57.237.237.418.513.56.835.143.333.209.665.209 1.026zm3.74 12.474c0-.589-.047-1.149-.161-1.68a5.001 5.001 0 0 0-.465-1.396 3.067 3.067 0 0 0-.76-.95 1.657 1.657 0 0 0-1.053-.35c-.674 0-1.216.303-1.643.92-.427.617-.769 1.424-1.035 2.44a20.443 20.443 0 0 0-.541 3.522 58.377 58.377 0 0 0-.142 4.158v1.794a13.505 13.505 0 0 0 2.326-1.566 11.405 11.405 0 0 0 1.842-2.003c.522-.731.92-1.5 1.205-2.326.285-.826.427-1.67.427-2.563zm6.076 15.484c0 .968-.218 1.88-.664 2.734a7.248 7.248 0 0 1-1.795 2.221 8.903 8.903 0 0 1-2.658 1.481 9.668 9.668 0 0 1-3.247.541 8.778 8.778 0 0 1-2.344-.323 7.394 7.394 0 0 1-2.26-1.053c-.721-.484-1.405-1.14-2.041-1.937-.636-.807-1.196-1.785-1.661-2.953-.475-1.167-.836-2.525-1.111-4.1-.266-1.567-.399-3.37-.399-5.402 0-1.918.133-3.608.399-5.089.266-1.48.636-2.762 1.111-3.863.474-1.102 1.016-2.023 1.642-2.773a9.176 9.176 0 0 1 2.003-1.822 7.274 7.274 0 0 1 2.212-.988 9.162 9.162 0 0 1 5.373.238 7.229 7.229 0 0 1 2.583 1.566 7.538 7.538 0 0 1 1.765 2.544c.428 1.007.646 2.165.646 3.475 0 1.187-.247 2.373-.722 3.588-.484 1.206-1.205 2.345-2.155 3.418-.949 1.073-2.126 2.05-3.531 2.933-1.405.874-3.019 1.567-4.842 2.08a23.58 23.58 0 0 0 .437 2.781c.18.845.418 1.557.712 2.145.285.59.617 1.054 1.006 1.377.39.332.836.494 1.339.494.332-.02.636-.076.94-.18.256-.086.531-.21.797-.4.266-.18.494-.436.674-.778-.418-.2-.75-.456-.978-.769a4.21 4.21 0 0 1-.512-.892 3.153 3.153 0 0 1-.228-1.035c0-.788.161-1.424.475-1.918.313-.493.683-.883 1.11-1.158a4.173 4.173 0 0 1 1.301-.579c.446-.104.797-.161 1.054-.161.275 0 .617.057 1.025.18.399.114.788.332 1.168.665.379.332.693.788.977 1.386.266.579.399 1.357.399 2.326zm18.484-22.566a6.401 6.401 0 0 1-.769.038c-.294.019-.607.028-.93.028h-1.975c-.313 0-.588-.01-.835-.028a5.06 5.06 0 0 1-.617-.038c-.162-.02-.257-.048-.295-.104.086.57.171 1.29.257 2.164.057.864.114 1.86.171 2.971.047 1.102.085 2.298.104 3.57.019.826.029 1.67.029 2.563-.475.057-1.035.114-1.671.171-.874.066-1.861.123-2.953.18l-.522.029.076-2.658c.048-1.567.114-3.114.199-4.633.076-1.49.181-2.877.295-4.187l-6.646.105c.143 1.965.276 3.854.399 5.658.095 1.803.18 3.607.247 5.392a326.2 326.2 0 0 1 .152 5.307c.028 1.756.038 3.56.038 5.42v3.2c0 1.063-.019 2.164-.038 3.294l5.117-.19V45.9c0-.912.009-1.994.028-3.247 0-1.187.01-2.525.029-4.035l.028-1.405c1.785.038 3.532.067 5.212.114a129.18 129.18 0 0 1-.104 3.911c-.048 1.33-.105 2.62-.171 3.864a286.186 286.186 0 0 1-.257 3.465 14.416 14.416 0 0 1 2.412-.218c.617 0 1.186.028 1.728.076.541.038 1.044.095 1.518.142v-6.123c0-3.92.019-7.756.048-11.497.047-3.75.133-7.3.247-10.622a1.675 1.675 0 0 1-.551.104zm16.281 10.832a29.56 29.56 0 0 0-.171-3.36c-.114-.988-.303-1.833-.55-2.526-.257-.693-.579-1.215-.959-1.585a1.99 1.99 0 0 0-1.396-.55c-.588 0-1.139.312-1.642.93-.513.616-.959 1.518-1.348 2.705-.389 1.187-.693 2.62-.911 4.32-.228 1.699-.333 3.607-.333 5.743 0 1.377.067 2.61.2 3.702.123 1.092.332 2.023.588 2.782.257.769.589 1.348.978 1.747s.836.607 1.358.607c.531 0 .987-.218 1.405-.655.408-.427.769-1.016 1.072-1.756.304-.74.561-1.595.779-2.573.228-.977.399-2.003.532-3.075a52.422 52.422 0 0 0 .398-6.456zm-3.835 18.427c-1.623 0-3.019-.352-4.187-1.054-1.177-.703-2.145-1.69-2.905-2.953-.759-1.262-1.329-2.762-1.689-4.5-.361-1.737-.542-3.626-.542-5.676 0-2.383.209-4.557.637-6.55.427-1.985 1.053-3.684 1.879-5.118.836-1.424 1.861-2.535 3.076-3.332 1.225-.797 2.63-1.196 4.225-1.196 1.604 0 2.99.332 4.158 1.006 1.167.674 2.126 1.614 2.886 2.83.759 1.205 1.329 2.657 1.689 4.347.361 1.7.542 3.55.542 5.582a34.3 34.3 0 0 1-.181 3.427 27.599 27.599 0 0 1-.617 3.684 22.83 22.83 0 0 1-1.139 3.55 12.186 12.186 0 0 1-1.794 3.038 8.12 8.12 0 0 1-2.573 2.117c-.997.541-2.155.798-3.465.798zm19.053-28.566a63.503 63.503 0 0 0-.332 2.231c-.095.807-.181 1.69-.257 2.658a85.076 85.076 0 0 0-.18 3.218 148.635 148.635 0 0 0-.104 3.94 24.71 24.71 0 0 0 2.193-2.791 30.467 30.467 0 0 0 1.822-3.085 30.882 30.882 0 0 0 1.424-3.21 33.726 33.726 0 0 0 1.054-3.227l6.664.598c-.75 1.586-1.49 3-2.231 4.234a45.438 45.438 0 0 1-2.136 3.238c-.683.92-1.31 1.708-1.889 2.354a24.212 24.212 0 0 1-1.566 1.566 8.517 8.517 0 0 1 1.794.817c.503.313.921.607 1.253.883.399.332.722.674.987 1.034.314.513.561 1.092.76 1.738.18.645.351 1.329.484 2.05.143.722.275 1.481.418 2.25.142.779.323 1.567.531 2.354.209.788.494 1.567.836 2.326a9.5 9.5 0 0 0 1.348 2.174h-6.55a19.328 19.328 0 0 1-.798-2.525 66.127 66.127 0 0 1-.503-2.316 26.461 26.461 0 0 1-.323-2.364c-.152-1.035-.446-1.937-.883-2.734a6.978 6.978 0 0 0-.702-.997 3.9 3.9 0 0 0-.988-.845 5.041 5.041 0 0 0-1.319-.579 5.799 5.799 0 0 0-1.699-.18c-.038 1.756-.029 3.693.009 5.82.038 2.126.095 4.508.142 7.148l-6.104-.114c.181-2.734.332-5.174.446-7.339.114-2.155.2-4.12.257-5.857.047-1.737.085-3.294.095-4.661.009-1.367 0-2.63-.029-3.779a74.264 74.264 0 0 0-.133-3.19c-.066-.987-.133-1.965-.218-2.933l6.427.095zm-41.23 46.375c.408 0 .731-.085.968-.256.237-.171.361-.437.361-.807a.9.9 0 0 0-.114-.475.83.83 0 0 0-.314-.313 1.186 1.186 0 0 0-.455-.171 2.376 2.376 0 0 0-.522-.047c-.162 0-.342.009-.541.019-.19.009-.361.037-.485.075v1.928c.114.019.276.028.494.047.199-.01.408 0 .608 0zm-1.111-3.19c.133-.038.313-.066.56-.095.247-.028.484-.038.722-.038.37 0 .721.048 1.053.133.333.086.617.219.864.409.247.19.437.427.579.712.143.284.219.636.219 1.025 0 .408-.067.75-.209 1.035a1.92 1.92 0 0 1-.579.702c-.247.18-.551.313-.902.399a4.914 4.914 0 0 1-1.158.133 11.15 11.15 0 0 1-2.725-.313V61.81h1.566v2.497h.01zm6.674 4.272h-1.567v-6.768h1.567v6.768zm-9.408-5.458h-2.184v5.468h-1.566V63.12h-2.174v-1.31h5.933v1.31h-.009zm-7.092-1.31v6.768h-1.566v-5.468h-2.497v5.468h-1.566v-6.768h5.629zm-8.857 2.715a1.92 1.92 0 0 0-.095-.617 1.5 1.5 0 0 0-.266-.504 1.133 1.133 0 0 0-.427-.332 1.321 1.321 0 0 0-.598-.123c-.237 0-.456.047-.636.133-.18.095-.332.209-.456.36a1.766 1.766 0 0 0-.294.504c-.067.19-.114.38-.142.579h2.914zm-4.547.702c0-.598.085-1.12.265-1.566.181-.447.409-.826.703-1.12a2.982 2.982 0 0 1 1.006-.675 3.12 3.12 0 0 1 1.168-.227c.93 0 1.661.285 2.183.864.523.579.788 1.443.788 2.591 0 .086 0 .18-.009.294 0 .105-.01.21-.019.295h-4.471c.047.54.237.968.579 1.262.341.295.835.447 1.481.447.379 0 .731-.038 1.044-.105a4.19 4.19 0 0 0 .74-.218l.209 1.282c-.085.047-.209.085-.361.132a4.548 4.548 0 0 1-.522.133c-.19.038-.398.076-.626.095a5.503 5.503 0 0 1-.684.038c-.598 0-1.11-.085-1.557-.266a3.001 3.001 0 0 1-1.091-.74 3.055 3.055 0 0 1-.636-1.11 5.007 5.007 0 0 1-.19-1.406zm-.855 2.07v3.199h-1.386v-1.918h-5.259v-6.768h1.566v5.487h2.488V61.81h1.566v5.488h1.025zm-9.863-2.772a1.92 1.92 0 0 0-.095-.617 1.5 1.5 0 0 0-.266-.504 1.133 1.133 0 0 0-.427-.332 1.324 1.324 0 0 0-.598-.123 1.49 1.49 0 0 0-.636.133 1.413 1.413 0 0 0-.456.36 1.743 1.743 0 0 0-.294.504c-.067.19-.114.38-.143.579h2.915zm-4.548.702c0-.598.086-1.12.266-1.566.181-.447.408-.826.703-1.12a2.972 2.972 0 0 1 1.006-.675 3.12 3.12 0 0 1 1.168-.227c.93 0 1.661.285 2.183.864.522.579.788 1.443.788 2.591 0 .086 0 .18-.009.294 0 .105-.01.21-.019.295h-4.462c.047.54.237.968.579 1.262.342.295.835.447 1.481.447.38 0 .731-.038 1.044-.105.313-.066.56-.142.741-.218l.208 1.282c-.085.047-.208.085-.36.132a5.8 5.8 0 0 1-1.149.228 5.503 5.503 0 0 1-.684.038c-.598 0-1.11-.085-1.556-.266a3.005 3.005 0 0 1-1.092-.74 3.055 3.055 0 0 1-.636-1.11 5 5 0 0 1-.2-1.406zm-1.243-.028c0 .522-.067.996-.2 1.424-.133.427-.322.807-.579 1.11a2.45 2.45 0 0 1-.94.722 3.04 3.04 0 0 1-1.272.256c-.322 0-.617-.038-.883-.114a3.49 3.49 0 0 1-.664-.256v2.63h-1.567v-8.943c.323-.086.712-.171 1.178-.247a9.14 9.14 0 0 1 1.471-.114 3.99 3.99 0 0 1 1.434.247c.427.161.778.399 1.082.703.294.303.522.673.683 1.11.181.437.257.93.257 1.472zm-1.605.028c0-.702-.161-1.243-.474-1.633-.314-.389-.826-.579-1.519-.579-.143 0-.304.01-.456.02a2.038 2.038 0 0 0-.475.085v3.873c.143.095.323.18.551.266.228.085.475.123.731.123.57 0 .987-.19 1.253-.579.256-.399.389-.92.389-1.576zm-10.727-.702a1.92 1.92 0 0 0-.095-.617 1.5 1.5 0 0 0-.266-.504 1.133 1.133 0 0 0-.427-.332 1.321 1.321 0 0 0-.598-.123 1.49 1.49 0 0 0-.636.133 1.424 1.424 0 0 0-.456.36 1.766 1.766 0 0 0-.294.504c-.067.19-.114.38-.143.579h2.915zm-4.547.702c0-.598.085-1.12.265-1.566.181-.447.409-.826.703-1.12a2.972 2.972 0 0 1 1.006-.675 3.12 3.12 0 0 1 1.168-.227c.93 0 1.661.285 2.183.864.522.579.788 1.443.788 2.591 0 .086 0 .18-.009.294 0 .105-.01.21-.019.295h-4.462c.047.54.237.968.579 1.262.342.295.835.447 1.481.447.38 0 .731-.038 1.044-.105.314-.066.56-.142.741-.218l.209 1.282c-.086.047-.209.085-.361.132a4.658 4.658 0 0 1-.522.133c-.19.038-.399.076-.627.095a5.497 5.497 0 0 1-.683.038c-.598 0-1.111-.085-1.557-.266a3.005 3.005 0 0 1-1.092-.74 3.055 3.055 0 0 1-.636-1.11 4.694 4.694 0 0 1-.199-1.406zm-7.187 2.269c.408 0 .731-.085.968-.256.238-.171.361-.437.361-.807a.9.9 0 0 0-.114-.475.827.827 0 0 0-.313-.313 1.197 1.197 0 0 0-.456-.171 2.376 2.376 0 0 0-.522-.047c-.161 0-.342.009-.541.019a2.07 2.07 0 0 0-.484.075v1.928c.114.019.275.028.493.047.2-.01.409 0 .608 0zm-1.111-3.19a3.73 3.73 0 0 1 .56-.095c.247-.028.485-.038.722-.038.37 0 .721.048 1.054.133.332.086.617.219.864.409.246.19.436.427.579.712.142.284.218.636.218 1.025 0 .408-.066.75-.209 1.035a1.901 1.901 0 0 1-.579.702c-.247.18-.551.313-.902.399-.351.085-.74.133-1.158.133-.494 0-.959-.029-1.395-.076a11.202 11.202 0 0 1-1.33-.238V61.81h1.567v2.497h.009zm6.684 4.272h-1.567v-6.768h1.567v6.768zm-10.244 0h-1.566v-2.838h-2.554v2.838h-1.566v-6.768h1.566v2.639h2.554v-2.64h1.566v6.77zm-7.3-3.38c0 .523-.067.998-.199 1.425-.133.427-.323.807-.58 1.11-.246.314-.56.551-.939.722-.38.17-.798.256-1.272.256-.323 0-.617-.038-.883-.114a3.484 3.484 0 0 1-.665-.256v2.63h-1.566v-8.943c.322-.086.712-.171 1.177-.247a9.15 9.15 0 0 1 1.471-.114 3.99 3.99 0 0 1 1.434.247c.427.161.778.399 1.082.703.294.303.522.673.684 1.11.17.437.256.93.256 1.472zm-1.614.03c0-.703-.161-1.245-.475-1.634-.313-.389-.826-.579-1.518-.579-.143 0-.304.01-.456.02a2.08 2.08 0 0 0-.475.085v3.873c.142.095.323.18.55.266.229.085.475.123.732.123.569 0 .987-.19 1.253-.579.266-.399.389-.92.389-1.576zm-9.151-3.59c.522 0 .949.067 1.31.19.35.133.636.314.845.542.208.237.36.512.455.844.095.333.133.694.133 1.092v4.101c-.237.048-.608.114-1.092.19-.484.076-1.035.114-1.651.114-.409 0-.779-.038-1.111-.114a2.24 2.24 0 0 1-.864-.38 1.768 1.768 0 0 1-.56-.674c-.133-.275-.2-.617-.2-1.025 0-.389.076-.712.228-.987a1.94 1.94 0 0 1 .617-.655c.257-.171.56-.285.902-.36a4.893 4.893 0 0 1 1.073-.115c.17 0 .351.01.541.029.19.019.39.057.608.114v-.257c0-.18-.02-.351-.067-.522a1.202 1.202 0 0 0-.228-.436 1.103 1.103 0 0 0-.427-.295 1.912 1.912 0 0 0-.664-.104c-.361 0-.693.028-.997.076a4.22 4.22 0 0 0-.74.18l-.19-1.272c.199-.066.484-.142.863-.209.38-.028.788-.066 1.216-.066zm.132 5.84c.484 0 .855-.03 1.102-.077v-1.737c-.086-.029-.21-.048-.38-.076a3.153 3.153 0 0 0-.541-.038c-.171 0-.351.01-.522.038-.18.028-.333.076-.475.142a.79.79 0 0 0-.342.295.846.846 0 0 0-.133.474c0 .37.114.627.352.77.227.142.54.208.94.208zm-4.376 1.1h-1.567v-2.838h-2.553v2.838h-1.567v-6.768h1.567v2.639h2.553v-2.64h1.567v6.77zm-7.68-6.768v6.768h-1.557c0-.493 0-.977.01-1.462 0-.484.009-.93.009-1.348 0-.418.01-.778.01-1.082 0-.304.009-.532.009-.683-.256.332-.522.712-.807 1.11-.275.408-.55.807-.826 1.215-.275.409-.532.807-.769 1.187-.237.39-.456.74-.636 1.044h-1.386v-6.75h1.538c0 .504 0 .978-.01 1.434 0 .456-.01.864-.01 1.234s0 .693-.009.969c0 .275-.01.484-.01.635.238-.37.495-.75.75-1.148.257-.39.523-.779.789-1.149.266-.38.522-.73.778-1.073.257-.332.513-.636.75-.902h1.377zM69.38 63.1c-.01.38-.019.78-.038 1.187-.019.409-.057.817-.123 1.215-.067.4-.171.779-.304 1.14-.142.36-.332.693-.58.978a3.05 3.05 0 0 1-.92.721c-.37.19-.816.313-1.339.37l-.218-1.31c.437-.085.779-.228 1.025-.418.238-.19.428-.446.56-.74.105-.228.18-.475.238-.76.057-.284.095-.588.133-.901a15.7 15.7 0 0 0 .057-.969c.01-.332.01-.645.01-.959v-.845h4.793v6.77h-1.566v-5.478H69.38zm-3.522-1.29c-.693 2.572-1.51 4.898-2.43 6.987a6.781 6.781 0 0 1-.532.996c-.18.276-.38.504-.607.684a2.31 2.31 0 0 1-.75.399 3.266 3.266 0 0 1-.96.123c-.236 0-.483-.028-.72-.076a2.02 2.02 0 0 1-.542-.17l.285-1.254c.313.124.617.18.92.18.41 0 .732-.094.96-.294.227-.19.427-.493.607-.902a36.723 36.723 0 0 1-1.424-3.104 35.727 35.727 0 0 1-1.215-3.57h1.67c.086.361.19.76.324 1.178.123.427.256.854.408 1.29.152.438.304.874.465 1.301.161.428.332.836.494 1.206.275-.769.531-1.585.769-2.45.237-.863.455-1.708.655-2.515h1.623v-.01zm-11.212 2.715c.2-.2.418-.418.646-.665.237-.247.465-.494.693-.74.228-.247.446-.494.655-.722.209-.228.38-.427.522-.589h1.842c-.19.228-.408.475-.655.741-.247.266-.503.541-.76.826-.265.285-.522.55-.778.816-.256.266-.484.504-.693.703.266.228.541.484.835.788.285.294.57.617.855.95.285.331.54.664.788 1.005.237.342.446.656.607.95H57.39a14.07 14.07 0 0 0-1.272-1.652 9.51 9.51 0 0 0-.74-.769 7.872 7.872 0 0 0-.722-.617v3.038H53.08V61.81h1.567v2.716z" fill="#fff"/><path fill-rule="evenodd" clip-rule="evenodd" d="M125.315 47.523c.181 1.092.351 1.386.94 2.193.304.418.75.835 1.111 1.14.18.151.617.512.816.616-.038-.17-.323-.588-.474-.864-.456-.873-1.054-2.079-1.235-3.161-.189-1.11.912-2.497 1.386-3.313.874-1.51 1.719-2.972.997-4.975-.133-.36-.38-.873-.626-1.12.18 1.054.322 2.013.028 3-.19.636-.503 1.054-.826 1.528-.693 1.035-.911 1.197-1.547 2.46-.257.512-.703 1.708-.57 2.496z" fill="#EB5E00"/><path fill-rule="evenodd" clip-rule="evenodd" d="M129.559 51.966c.114-.124.076-.076.162-.228.36-.655.664-1.291.636-2.174-.019-.57-.323-1.006-.513-1.31-.332-.541-1.453-1.339-.627-2.972.105-.208.133-.38.257-.56.218-.341.37-.702.579-1.044.114-.18.199-.323.313-.503.104-.18.256-.351.313-.541a2.906 2.906 0 0 0-.455.389c-.874.911-2.193 2.202-2.383 3.617-.076.541.076 1.101.256 1.604.418 1.14 1.291 1.52 1.443 2.108.076.294.086.627.067.854-.01.18-.067.589-.048.76z" fill="#EB5E00"/><path d="M137.458 41.419c.161.313.36.636.588.987.228.351.475.684.75.987.275.313.56.55.874.76.322.19.655.294 1.006.294.493 0 .978-.2 1.471-.608.475-.398.912-1.034 1.291-1.889.38-.864.684-1.984.912-3.35.247-1.368.36-3.02.36-4.928 0-1.576-.075-2.933-.237-4.073-.152-1.139-.361-2.079-.626-2.829-.257-.75-.57-1.29-.931-1.642-.36-.351-.74-.532-1.129-.532-.323 0-.646.114-.959.352-.314.237-.617.55-.902.911-.285.37-.551.778-.798 1.253-.246.475-.474.921-.683 1.377-.199.455-.38.873-.532 1.272-.142.399-.256.702-.323.93a506.956 506.956 0 0 0-.113 5.165 299.92 299.92 0 0 0-.038 5.126v.437h.019zm-5.668 15.246c.256-3.028.304-9.18.437-12.256a315.345 315.345 0 0 0 .294-13.471c0-3.038-.047-6.17-.152-9.408l5.582-.066-.142 2.734c.702-1.377 1.519-2.45 2.459-3.228.93-.769 1.908-1.158 2.924-1.158 1.234 0 2.325.266 3.284.807.969.531 1.776 1.367 2.431 2.515.655 1.15 1.158 2.611 1.5 4.396.341 1.785.512 3.92.512 6.436 0 2.877-.237 5.279-.712 7.253-.475 1.956-1.111 3.541-1.889 4.747-.788 1.206-1.68 2.079-2.668 2.592-.987.531-2.003.788-3.038.788a6.18 6.18 0 0 1-1.67-.4c-.494-.18-1.045-.474-1.643-.872-.598-.4-1.196-.978-1.784-1.71.028 2.46 0 5.013.075 7.567l-5.8 2.734z" fill="#EB5E00"/><path d="M144.71 48.947a6.077 6.077 0 0 1-2.117.38 6.177 6.177 0 0 1-1.67-.4c-.494-.18-1.045-.474-1.643-.873-.598-.398-1.196-.977-1.785-1.708v.019l-.037-.076v-4.86c.161.303.351.626.579.967.227.352.474.684.75.988.275.313.56.55.873.76.323.19.655.294 1.006.294.494 0 .978-.2 1.472-.608.474-.399.911-1.035 1.291-1.89.38-.863.683-1.983.911-3.35.038-.219.076-.437.105-.665h.256v11.022h.009z" fill="url(#paint1_linear)"/><path d="M148.558 6.504c-.875-.852-1.935-1.405-3.126-1.704-.428-.109-.661-.244-.819-.716-.465-1.404-1.395-2.428-2.754-3.026a.268.268 0 0 0-.056-.028s-.065-.027-.167-.063c-.047-.018-.093-.036-.149-.054-.149-.055-.242-.091-.307-.091-.288-.082-.642-.172-.949-.19-.009-.01-.028-.01-.037-.019a6.311 6.311 0 0 0-2.568.254c-1.489.462-2.587 1.369-3.284 2.737-.168.326-.168.326-.475.118a7.214 7.214 0 0 0-4.401-1.242c-2.084.082-3.879.87-5.405 2.23-1.051.933-1.833 2.057-2.27 3.389-.354 1.087-.447 2.193-.214 3.317.046.244.028.416-.233.525-.251.109-.446.308-.651.471-1.042.852-1.833 1.885-2.298 3.136-.689 1.885-.624 3.743.167 5.591.596 1.387 1.508 2.51 2.847 3.272 1.238.706 2.577.915 3.992.661 1.07-.19 2.028-.625 2.93-1.205.168-.109.279-.127.4.063.373.571.726 1.142 1.042 1.75.317.616.596 1.259.959 1.857.325.535 1.023.77 1.619.372a42.312 42.312 0 0 1 2.363-1.468c2.782-1.622 5.526-3.29 8.429-4.722 1.247-.616 1.92-.97 3.213-1.46.242-.09.502-.127.688-.344.261-.317.401-.87.047-1.368-.586-.816-1.2-1.614-1.591-2.547-.074-.181-.093-.236.121-.308 1.275-.444 2.625-1.604 3.379-2.692 1.489-2.175 1.419-4.675-.442-6.496z" fill="#fff"/><path d="M147.786 12.768c-.807 1.063-1.879 1.718-3.18 2.003 1.395-1.633 1.357-3.76.807-4.709.038.456.057.883-.029 1.3-.417 2.042-1.784 3.162-3.683 3.741-.94.285-1.899.304-2.848-.047-.199-.076-.275-.171-.247-.39.048-.455.01-.91-.095-1.357-.076-.294-.095-.627-.294-.892-.019.028-.038.047-.038.066 0 .048 0 .095.009.152.105.93-.066 1.832-.408 2.696-.75 1.87-2.069 3.256-3.693 4.386-1.243.864-2.61 1.5-4.101 1.823-1.205.256-2.402.313-3.598-.048-.74-.218-1.405-.57-1.946-1.13-.047-.047-.095-.075-.152-.037-.057.038 0 .095.019.133.076.151.162.294.237.446.599 1.13 1.491 1.87 2.744 2.183.076.02.19 0 .209.133-.361.218-.712.465-1.101.646-.902.436-1.852.693-2.867.607-1.814-.161-3.124-1.11-4.082-2.553a6.394 6.394 0 0 1-1.045-3.038c-.19-2.516.817-4.481 2.82-5.972.123-.095.19-.095.275.048.275.474.655.845 1.101 1.149.266.18.541.35.95.332-.152-.2-.266-.342-.38-.494-.864-1.158-1.32-2.45-1.215-3.902.152-1.974 1.186-3.493 2.686-4.66 1.937-1.51 4.168-2.07 6.598-1.634 1.586.285 2.877 1.073 3.741 2.478.085.133.161.275.246.418.067-.057.086-.114.076-.162-.094-.465-.161-.94-.37-1.367-.066-.142-.104-.304-.047-.465.607-1.604 1.737-2.658 3.37-3.18.513-.162 1.035-.21 1.585-.21.437.048.798.124 1.282.276.038.029.085.048.142.076 1.168.513 1.832 1.462 2.222 2.64.057.16.028.227-.152.294-.665.246-1.244.617-1.624 1.29 2.668-1.148 4.728-.35 6.266 1.918 1.006 1.51.883 3.598-.19 5.013zm-1.414 6.484c-.636.228-1.253.503-1.861.788a64.44 64.44 0 0 0-3.617 1.823c-2.041 1.1-4.044 2.287-6.028 3.493a116.518 116.518 0 0 0-3.446 2.184c-.219.142-.323.104-.418-.124a20.948 20.948 0 0 0-.494-1.044c-.085-.162 0-.228.105-.313a8.603 8.603 0 0 1 1.196-.826.93.93 0 0 0 .218-.162l1.253-.797.019-.02c1.064-.654 2.127-1.31 3.238-1.879-.542.057-1.035.256-1.529.437a26.623 26.623 0 0 0-3.892 1.775c-.332.18-.674.342-1.006.522-.124.067-.209.076-.295-.066a15.461 15.461 0 0 0-1.129-1.728c.199-.152.417-.085.607-.104 2.174-.266 4.044-1.197 5.725-2.564a11.83 11.83 0 0 0 2.259-2.41 7.958 7.958 0 0 0 .892-1.662c.057-.152.105-.21.276-.152a4.92 4.92 0 0 0 1.737.304c.038 0 .066.028.161.057-.863.598-1.67 1.205-2.212 2.136.143 0 .209-.076.285-.133 1.016-.817 2.174-1.367 3.389-1.832.883-.333 1.785-.59 2.687-.845.209-.057.323-.029.418.18.408.94.949 1.804 1.566 2.63.124.161.105.256-.104.332zm2.069-13.044c-.892-.892-1.974-1.471-3.19-1.785-.436-.114-.674-.256-.835-.75-.475-1.471-1.424-2.544-2.81-3.17-.028-.02-.057-.029-.057-.029s-.066-.028-.171-.066a2.5 2.5 0 0 0-.152-.057c-.152-.057-.247-.095-.313-.095-.294-.086-.655-.18-.968-.2-.01-.01-.029-.01-.038-.019a6.28 6.28 0 0 0-2.62.266c-1.519.484-2.64 1.434-3.352 2.867-.17.342-.17.342-.484.124a7.22 7.22 0 0 0-4.49-1.301c-2.127.085-3.959.911-5.516 2.335-1.073.978-1.87 2.155-2.316 3.55-.361 1.14-.456 2.298-.218 3.475.047.257.028.437-.238.551-.256.114-.456.323-.664.494-1.064.892-1.871 1.974-2.345 3.284-.703 1.975-.636 3.93.171 5.858.607 1.452 1.538 2.63 2.905 3.427 1.262.74 2.629.959 4.072.693 1.092-.2 2.07-.655 2.991-1.263.171-.114.284-.133.408.067.38.598.74 1.196 1.063 1.832.323.646.608 1.32.978 1.946.332.56 1.044.807 1.652.39a43.204 43.204 0 0 1 2.411-1.539c2.839-1.699 5.639-3.446 8.601-4.946 1.263-.645 2.544-1.253 3.864-1.765.247-.095.522-.133.702-.361.266-.332.409-.912.048-1.434-.598-.854-1.215-1.69-1.623-2.667-.076-.19-.095-.247.123-.323 1.301-.465 2.364-1.253 3.133-2.392 1.528-2.279 1.177-5.089-.722-6.997z" fill="#EB5E00"/><path d="M132.512 28.185c4.557-2.554 9.113-5.098 13.67-7.652l.19-.047.37.218-14.23 9.892v-2.411z" fill="url(#paint2_linear)"/><path fill-rule="evenodd" clip-rule="evenodd" d="M131.306 53.637h6.294c0 3.399-2.82 6.142-6.294 6.142-3.475 0-6.294-2.753-6.294-6.142h6.294z" fill="#EB5E00"/><path d="M131.325 55.042c3.455 0 6.256-.548 6.256-1.225 0-.676-2.801-1.224-6.256-1.224s-6.256.548-6.256 1.224c0 .677 2.801 1.225 6.256 1.225z" fill="url(#paint3_linear)"/></g><defs><filter id="filter0_d" x="0" y="0" width="238.271" height="79" filterUnits="userSpaceOnUse" color-interpolation-filters="sRGB"><feFlood flood-opacity="0" result="BackgroundImageFix"/><feColorMatrix in="SourceAlpha" values="0 0 0 0 0 0 0 0 0 0 0 0 0 0 0 0 0 0 127 0"/><feOffset dy="4"/><feGaussianBlur stdDeviation="2"/><feColorMatrix values="0 0 0 0 0 0 0 0 0 0 0 0 0 0 0 0 0 0 0.13 0"/><feBlend in2="BackgroundImageFix" result="effect1_dropShadow"/><feBlend in="SourceGraphic" in2="effect1_dropShadow" result="shape"/></filter><linearGradient id="paint0_linear" x1="149.6" y1="36.607" x2="136.45" y2="45.8" gradientUnits="userSpaceOnUse"><stop offset=".411" stop-color="#C13B00"/><stop offset=".83" stop-color="#79301D"/></linearGradient><linearGradient id="paint1_linear" x1="143.2" y1="43.709" x2="136.618" y2="44.75" gradientUnits="userSpaceOnUse"><stop stop-color="#EB5E00"/><stop offset=".862" stop-color="#BF3900"/></linearGradient><linearGradient id="paint2_linear" x1="146.918" y1="20.642" x2="134.754" y2="28.037" gradientUnits="userSpaceOnUse"><stop stop-color="#EB5E00"/><stop offset=".602" stop-color="#BF3900"/></linearGradient><linearGradient id="paint3_linear" x1="125.085" y1="54.135" x2="137.805" y2="53.489" gradientUnits="userSpaceOnUse"><stop offset=".442" stop-color="#AB2800"/><stop offset=".972" stop-color="#EB5E00"/></linearGradient></defs></svg>