<svg width="263" height="81" fill="none" xmlns="http://www.w3.org/2000/svg"><path fill-rule="evenodd" clip-rule="evenodd" d="M168.684 42.715c-15.748 0-17.73 2.664-17.47 4.148-1.278 3.325 2.903 6.812 3.639 8.307-1.397-1.96-1.646-6.054 2.795-7.841 1.148-.466 9.78-1.29 11.632-1.365-.239-1.018-.369-2.231-.596-3.25z" fill="url(#paint0_linear)"/><path d="M48.109 24.8a82.34 82.34 0 0 0-.282 3.358c-.076 1.127-.14 2.264-.206 3.38-.065 1.115-.119 2.209-.184 3.27-.054 1.062-.108 2.069-.14 3.022a283.194 283.194 0 0 0-.217 6.455c-.12 2.21-.184 4.397-.195 6.552 0 2.166-.076 4.224-.206 6.184s-.379 3.77-.747 5.448c-.368 1.679-.953 3.12-1.787 4.354-.823 1.224-1.939 2.188-3.325 2.87-1.397.704-3.195 1.04-5.372 1.04-1.646 0-2.957-.239-3.953-.715-.986-.477-1.733-1.05-2.264-1.744-.52-.682-.866-1.408-1.029-2.177-.151-.769-.238-1.451-.238-2.036 0-.639.109-1.235.293-1.787.205-.541.465-1.029.833-1.44a3.903 3.903 0 0 1 1.3-.986 4.13 4.13 0 0 1 1.755-.368c.693 0 1.31.13 1.852.39.541.26.996.606 1.364 1.029.369.422.64.888.834 1.418a4.72 4.72 0 0 1 .282 1.57 3.868 3.868 0 0 1-.195.932 3.71 3.71 0 0 1-.498.877c-.228.325-.553.65-.964.964.227.098.444.152.628.184.206.033.39.044.574.044.487 0 .996-.14 1.538-.433.53-.293 1.029-.748 1.473-1.365.455-.617.823-1.397 1.126-2.329.293-.942.466-2.047.51-3.346 0-1.397 0-2.784.01-4.116.01-1.353.033-2.837.065-4.462-.628 1.213-1.31 2.155-2.036 2.816-.736.66-1.43 1.159-2.08 1.473a6.355 6.355 0 0 1-2.285.672c-1.375 0-2.588-.347-3.617-1.04-1.029-.693-1.874-1.679-2.545-2.946-.672-1.278-1.18-2.794-1.506-4.592-.325-1.787-.487-3.78-.487-5.99 0-6.119.422-11.956 1.267-17.512l7.127.769a55.914 55.914 0 0 0-.444 2.025 83.09 83.09 0 0 0-.38 2.274c-.119.791-.205 1.57-.292 2.372-.087.79-.162 1.56-.238 2.285a190.94 190.94 0 0 0-.423 5.253c0 1.787.054 3.325.174 4.647.119 1.32.314 2.415.606 3.281.293.867.693 1.516 1.191 1.95.51.433 1.148.65 1.95.65.552-.098 1.105-.488 1.625-1.181.227-.303.454-.682.703-1.127.239-.444.477-.996.726-1.646.238-.66.477-1.43.704-2.317a33.54 33.54 0 0 0 .617-3.109c.044-1.451.098-2.783.13-3.996.033-1.202.044-2.372.044-3.466 0-1.332-.033-2.61-.087-3.834a88.345 88.345 0 0 0-.249-3.866l7.17.119zM8.144 56.069c-.433 0-.855-.01-1.256-.033-.4-.021-.801-.032-1.213-.032-.79 0-1.527.01-2.22.032-.693.022-1.289.044-1.798.087-.617.033-1.17.076-1.657.108.26-2.805.466-5.534.617-8.187.152-2.665.271-5.037.347-7.127.065-2.437.119-4.754.13-6.942 0-2.134-.043-4.31-.108-6.542-.044-.953-.087-1.95-.13-3.021a184.02 184.02 0 0 0-.163-3.228 84.18 84.18 0 0 0-.26-3.292 218.781 218.781 0 0 0-.314-3.228c.79.054 1.516.098 2.188.109.682 0 1.3.01 1.874.01.606 0 1.148-.01 1.624-.01.487-.022.899-.033 1.235-.055.39-.021.736-.043 1.04-.054-.174 2.34-.304 4.636-.39 6.877a313.306 313.306 0 0 0-.206 6.066 233.418 233.418 0 0 0-.087 5.978v1.711a36.282 36.282 0 0 0 3.195-4.614 37.826 37.826 0 0 0 2.48-5.122 34.366 34.366 0 0 0 1.625-5.372c.379-1.809.574-3.607.574-5.361v-.9l9.541.846a564.02 564.02 0 0 0-4.288 7.678c-1.213 2.22-2.264 4.127-3.13 5.74a231.786 231.786 0 0 0-2.123 4.018c-.542 1.073-.964 1.907-1.267 2.535 1.332.357 2.393.845 3.205 1.473a7.34 7.34 0 0 1 1.928 2.177c.466.823.802 1.722.997 2.707.206.975.357 1.993.455 3.033.119 1.05.216 2.112.325 3.173.108 1.072.292 2.112.574 3.12.151.573.368 1.18.639 1.786.249.542.563 1.148.953 1.809.39.66.888 1.343 1.483 2.036l-7.917.163c-.433-.434-.78-.997-1.05-1.712a14.453 14.453 0 0 1-.628-2.1 18.298 18.298 0 0 1-.39-2.557 59.367 59.367 0 0 1-.184-3.021 42.934 42.934 0 0 0-.163-2.784c-.086-.877-.216-1.7-.411-2.437-.184-.736-.477-1.375-.889-1.906-.411-.541-.963-.953-1.646-1.245-.671-.293-1.538-.434-2.61-.434-.206 0-.411.011-.617.033-.206.022-.423.043-.65.076.054 2.025.14 4.581.238 7.657.109 3.065.271 6.498.498 10.278zm50.384-.315c.314-4.061.769-8.198 1.353-12.433a136.37 136.37 0 0 1 2.21-12.4 249.752 249.752 0 0 1 1.852 12.292c.53 4.191 1.007 8.274 1.44 12.26l8.058-.336a357.345 357.345 0 0 1-2.047-8.112 332.961 332.961 0 0 1-1.798-7.798 432.759 432.759 0 0 1-1.657-7.808c-.498-2.622-1.007-5.308-1.516-8.09l-8.101.172a200.708 200.708 0 0 1-1.744 8.275 336.577 336.577 0 0 1-1.96 7.895 266.358 266.358 0 0 1-2.22 7.852 435.935 435.935 0 0 1-2.524 8.112l8.654.12zm30.79-.39a61.96 61.96 0 0 1 .13-2.145c.044-.682.098-1.343.152-1.97-.64 1.126-1.31 1.981-2.036 2.577-.715.606-1.386 1.05-2.004 1.354a6.889 6.889 0 0 1-2.166.617c-1.375 0-2.588-.346-3.617-1.04-1.03-.693-1.874-1.678-2.545-2.945-.672-1.279-1.181-2.795-1.506-4.593-.325-1.787-.487-3.78-.487-5.989 0-3.097.097-6.086.292-8.989.195-2.892.52-5.74.964-8.524l7.126.77a91.703 91.703 0 0 0-1.028 5.956 98.919 98.919 0 0 0-.52 4.473 55.832 55.832 0 0 0-.228 3.77c0 1.786.055 3.324.174 4.645.119 1.322.314 2.415.606 3.282.293.866.693 1.516 1.192 1.95.509.433 1.148.65 1.949.65.541-.098 1.072-.467 1.603-1.127a9.97 9.97 0 0 0 .704-1.083c.238-.444.476-.975.726-1.625a22.44 22.44 0 0 0 .703-2.242c.228-.866.445-1.863.65-3.01.033-1.105.044-2.2.044-3.293v-7.95c0-1.592-.022-3.379-.044-5.36l6.369.119a161.712 161.712 0 0 0-.228 3.942c-.054 1.202-.097 2.34-.13 3.4-.032 1.051-.043 2.048-.065 2.99-.022.931-.032 1.841-.032 2.718 0 1.354.01 2.664.043 3.953.032 1.29.065 2.665.13 4.116.054 1.451.12 3.043.184 4.776.065 1.733.13 3.715.206 5.946l-7.31-.12zm29.665-31.981a7.31 7.31 0 0 1-.877.043 16.37 16.37 0 0 1-1.062.033h-2.242c-.357 0-.671-.011-.953-.033a5.74 5.74 0 0 1-.704-.043c-.184-.022-.292-.054-.335-.12.097.65.194 1.474.292 2.47.065.986.13 2.123.195 3.39.054 1.256.097 2.62.119 4.072.022.942.033 1.906.033 2.924a65.11 65.11 0 0 1-1.907.195c-.996.076-2.122.141-3.368.206l-.596.033.087-3.033c.054-1.787.13-3.552.228-5.285.086-1.7.205-3.282.335-4.776l-7.581.119c.162 2.242.314 4.397.455 6.455.108 2.057.206 4.115.281 6.151.076 2.004.13 4.019.174 6.055.032 2.003.043 4.061.043 6.184v3.65c0 1.213-.022 2.469-.043 3.758l5.837-.217v-3.173c0-1.04.011-2.275.033-3.704 0-1.354.011-2.881.032-4.603l.033-1.603c2.036.043 4.029.076 5.946.13-.022 1.516-.054 3.01-.119 4.462-.055 1.516-.12 2.99-.195 4.408-.098 1.43-.195 2.74-.293 3.953a16.43 16.43 0 0 1 2.751-.249c.704 0 1.354.033 1.971.087.618.043 1.192.108 1.733.162V48.5c0-4.473.022-8.849.054-13.116.054-4.278.152-8.329.282-12.12a1.976 1.976 0 0 1-.639.12z" fill="#540003"/><path fill-rule="evenodd" clip-rule="evenodd" d="M135.803 39.779c-.65.79-1.365 1.462-2.112 2.025-.552.39-1.159.834-1.809 1.322a17.67 17.67 0 0 0-1.787 1.538 8.934 8.934 0 0 0-1.375 1.7c-.369.596-.542 1.202-.542 1.809 0 .844.206 1.56.618 2.166.411.595.996.899 1.743.899.693 0 1.311-.195 1.852-.564a6.514 6.514 0 0 0 1.452-1.386 9.358 9.358 0 0 0 1.072-1.787c.292-.628.52-1.213.682-1.744l.206-5.978zm.422 16.451a29.245 29.245 0 0 1-.303-1.776 23.716 23.716 0 0 1-.227-1.852c-.867 1.278-1.885 2.253-3.087 2.935-1.202.693-2.513 1.03-3.932 1.03-.725 0-1.483-.12-2.252-.347-.769-.239-1.452-.64-2.091-1.224-.628-.574-1.137-1.376-1.538-2.372-.4-1.007-.606-2.275-.606-3.802 0-1.278.195-2.382.563-3.335.379-.943.856-1.777 1.451-2.48a10.944 10.944 0 0 1 2.026-1.853 24.57 24.57 0 0 1 2.231-1.408c.736-.411 1.451-.79 2.123-1.148.671-.357 1.223-.703 1.657-1.06a14.031 14.031 0 0 0 2.144-2.091 10.668 10.668 0 0 0 1.473-2.318c-.076-1.289-.206-2.36-.412-3.195-.195-.823-.454-1.495-.769-1.993-.314-.487-.704-.834-1.169-1.04a3.928 3.928 0 0 0-1.549-.292c-.866 0-1.592.195-2.188.563a5.353 5.353 0 0 0-1.44 1.343c.455.304.823.618 1.072.953.26.336.455.661.574.986.152.357.238.715.26 1.094 0 1.278-.368 2.242-1.083 2.924-.715.672-1.635 1.007-2.773 1.007a3.27 3.27 0 0 1-1.603-.4 4.379 4.379 0 0 1-1.278-1.138c-.368-.487-.649-1.061-.855-1.743a7.42 7.42 0 0 1-.303-2.188c0-.79.173-1.625.53-2.502.358-.877.932-1.7 1.711-2.448.791-.758 1.788-1.386 3.033-1.884 1.235-.487 2.74-.736 4.495-.736 1.765 0 3.27.335 4.527 1.028a9.012 9.012 0 0 1 3.086 2.719c.802 1.126 1.387 2.437 1.755 3.92.368 1.473.541 3 .541 4.57 0 1.181-.01 2.46-.032 3.846l-.032 3.119-2.405-2.318.726 4.31c.151.889.336 1.885.076 2.773-.152.51-.466.92-.759 1.354-.704 1.061-1.267 1.798-1.852 2.967-.519 1.04-.985 2.578-.79 3.737.119.726.249 1.224.466 1.7l-1.192.065z" fill="#540003"/><path d="M187.377 17.154c0 .39-.076.77-.238 1.127a3.353 3.353 0 0 1-.639.942 2.764 2.764 0 0 1-.953.628 2.958 2.958 0 0 1-1.137.228 2.98 2.98 0 0 1-1.159-.228 2.712 2.712 0 0 1-.953-.628 2.947 2.947 0 0 1-.639-.942 2.655 2.655 0 0 1-.238-1.127c0-.411.075-.79.238-1.17.151-.367.379-.682.639-.952.281-.282.596-.488.953-.65a2.995 2.995 0 0 1 1.159-.238c.39 0 .78.086 1.137.238.368.162.682.379.953.65.271.27.477.585.639.953.162.379.238.758.238 1.17zm-7.581 0c0 .39-.076.77-.238 1.127a3.374 3.374 0 0 1-.639.942 2.764 2.764 0 0 1-.953.628 3.03 3.03 0 0 1-1.159.228c-.401 0-.78-.076-1.137-.228a2.694 2.694 0 0 1-.953-.628 2.947 2.947 0 0 1-.639-.942 2.655 2.655 0 0 1-.239-1.127c0-.411.076-.79.239-1.17.151-.367.379-.682.639-.952.281-.282.595-.488.953-.65a2.929 2.929 0 0 1 1.137-.238c.401 0 .79.086 1.159.238.368.162.682.379.953.65.27.27.476.585.639.953.162.379.238.758.238 1.17zm4.267 14.232c0-.672-.054-1.31-.184-1.917-.119-.618-.292-1.138-.531-1.593a3.5 3.5 0 0 0-.866-1.082 1.892 1.892 0 0 0-1.202-.401c-.769 0-1.387.346-1.874 1.05-.487.704-.877 1.625-1.18 2.784-.293 1.159-.509 2.502-.618 4.018a66.825 66.825 0 0 0-.162 4.744v2.047a15.37 15.37 0 0 0 2.653-1.788 12.934 12.934 0 0 0 2.101-2.285 10.308 10.308 0 0 0 1.376-2.653 8.858 8.858 0 0 0 .487-2.924zm6.932 17.664a6.637 6.637 0 0 1-.758 3.12 8.276 8.276 0 0 1-2.047 2.533 10.176 10.176 0 0 1-3.033 1.69 11.02 11.02 0 0 1-3.704.617c-.877 0-1.776-.119-2.675-.368a8.435 8.435 0 0 1-2.578-1.202c-.823-.552-1.603-1.3-2.328-2.21-.726-.92-1.365-2.036-1.896-3.368-.541-1.332-.953-2.88-1.267-4.678-.303-1.787-.455-3.845-.455-6.163 0-2.188.152-4.115.455-5.805.304-1.69.726-3.152 1.267-4.408.542-1.256 1.159-2.307 1.874-3.163a10.48 10.48 0 0 1 2.285-2.079 8.3 8.3 0 0 1 2.524-1.126 10.065 10.065 0 0 1 2.567-.336c1.256 0 2.447.206 3.563.606a8.266 8.266 0 0 1 2.946 1.787c.844.791 1.516 1.755 2.014 2.903.488 1.148.737 2.47.737 3.964 0 1.354-.282 2.707-.823 4.094-.553 1.375-1.376 2.675-2.459 3.899-1.083 1.224-2.426 2.34-4.029 3.346-1.603.997-3.444 1.787-5.523 2.372.119 1.16.281 2.22.498 3.174.206.963.476 1.776.812 2.447.325.672.704 1.202 1.148 1.57a2.28 2.28 0 0 0 1.527.564 3.914 3.914 0 0 0 1.072-.206c.293-.097.607-.238.91-.455.303-.206.563-.498.769-.888-.476-.227-.855-.52-1.115-.877a4.762 4.762 0 0 1-.585-1.018 3.575 3.575 0 0 1-.26-1.18c0-.9.184-1.625.541-2.189.358-.563.78-1.007 1.267-1.32.488-.315.975-.542 1.484-.662.509-.119.91-.184 1.202-.184.315 0 .704.065 1.17.206.455.13.899.38 1.332.758.433.38.791.9 1.116 1.582.303.66.455 1.548.455 2.653zm21.086-25.743a7.308 7.308 0 0 1-.877.043c-.336.022-.693.032-1.062.032h-2.252c-.358 0-.672-.01-.953-.032-.293 0-.52-.022-.704-.043-.184-.022-.293-.054-.336-.12.097.65.195 1.473.292 2.47.065.985.13 2.123.195 3.39.054 1.256.098 2.62.119 4.072.022.942.033 1.906.033 2.924-.542.065-1.181.13-1.906.195-.997.076-2.123.141-3.368.206l-.596.032.086-3.032c.055-1.787.13-3.553.228-5.285.087-1.7.206-3.282.336-4.777l-7.582.12c.163 2.242.314 4.397.455 6.454.109 2.058.206 4.116.282 6.152.076 2.004.13 4.018.173 6.054.033 2.004.043 4.062.043 6.185v3.65a222.9 222.9 0 0 1-.043 3.758l5.838-.217v-3.173c0-1.04.011-2.275.032-3.704 0-1.354.011-2.881.033-4.603l.032-1.603c2.036.043 4.029.076 5.946.13-.022 1.516-.054 3.01-.119 4.462-.054 1.516-.119 2.99-.195 4.408-.097 1.43-.195 2.74-.292 3.953a16.43 16.43 0 0 1 2.751-.25c.704 0 1.353.033 1.971.088.617.043 1.191.108 1.733.162v-6.986c0-4.473.021-8.848.054-13.115a560.9 560.9 0 0 1 .281-12.12 1.899 1.899 0 0 1-.628.12zm18.575 12.357c0-1.43-.065-2.708-.195-3.834-.13-1.127-.347-2.09-.629-2.881-.292-.79-.66-1.386-1.093-1.809a2.273 2.273 0 0 0-1.593-.628c-.671 0-1.299.357-1.873 1.061-.585.704-1.094 1.733-1.538 3.087-.444 1.354-.791 2.99-1.04 4.928-.26 1.939-.379 4.116-.379 6.552 0 1.57.076 2.979.228 4.224.14 1.246.379 2.307.671 3.174.292.877.671 1.538 1.116 1.992.444.455.953.694 1.548.694.607 0 1.127-.25 1.603-.748.466-.487.877-1.159 1.224-2.003.347-.845.639-1.82.888-2.935.26-1.116.455-2.286.607-3.51a60.015 60.015 0 0 0 .455-7.364zm-4.376 21.022c-1.852 0-3.444-.401-4.776-1.203-1.343-.8-2.448-1.927-3.314-3.368-.867-1.44-1.517-3.151-1.928-5.133-.412-1.982-.617-4.138-.617-6.477 0-2.718.238-5.199.725-7.473.488-2.263 1.202-4.202 2.145-5.838.953-1.624 2.122-2.891 3.509-3.801 1.397-.91 3-1.365 4.819-1.365 1.831 0 3.412.38 4.744 1.148 1.332.77 2.426 1.841 3.292 3.228.867 1.375 1.517 3.032 1.928 4.96.412 1.939.618 4.05.618 6.368a39.27 39.27 0 0 1-.206 3.91 31.497 31.497 0 0 1-.704 4.202 25.98 25.98 0 0 1-1.3 4.051 13.87 13.87 0 0 1-2.047 3.466 9.258 9.258 0 0 1-2.935 2.415c-1.137.617-2.458.91-3.953.91zm21.737-32.589c-.13.79-.26 1.625-.379 2.545-.109.92-.206 1.928-.293 3.033a101.519 101.519 0 0 0-.206 3.671 169.224 169.224 0 0 0-.119 4.495 27.94 27.94 0 0 0 2.502-3.184 35.054 35.054 0 0 0 2.08-3.52 35.383 35.383 0 0 0 1.624-3.66 38.292 38.292 0 0 0 1.202-3.683l7.603.682c-.855 1.809-1.7 3.423-2.545 4.83A52.199 52.199 0 0 1 257.049 33c-.779 1.05-1.494 1.95-2.155 2.686a27.456 27.456 0 0 1-1.787 1.787 9.72 9.72 0 0 1 2.047.931c.574.358 1.051.693 1.43 1.007a6.8 6.8 0 0 1 1.126 1.18c.357.586.639 1.246.866 1.983.206.736.401 1.516.553 2.34.162.822.314 1.689.476 2.566.163.888.369 1.787.607 2.686s.563 1.787.953 2.654c.39.877.899 1.7 1.538 2.48h-7.473a22.12 22.12 0 0 1-.91-2.881 76.17 76.17 0 0 1-.574-2.643 30.02 30.02 0 0 1-.368-2.697c-.173-1.18-.509-2.209-1.007-3.119a8.08 8.08 0 0 0-.802-1.137 4.449 4.449 0 0 0-1.126-.964 5.757 5.757 0 0 0-1.506-.66c-.552-.152-1.202-.228-1.938-.206-.044 2.003-.033 4.213.011 6.639.043 2.426.108 5.144.162 8.155l-6.964-.13c.206-3.12.379-5.902.509-8.372.13-2.458.227-4.7.292-6.682a265.9 265.9 0 0 0 .109-5.318c.011-1.56 0-3-.033-4.31a87.28 87.28 0 0 0-.151-3.64 166.455 166.455 0 0 0-.249-3.346l7.332.108z" fill="#540003"/><path d="M200.98 77.004c.466 0 .834-.098 1.105-.293.271-.195.411-.498.411-.92 0-.217-.043-.401-.13-.542a.936.936 0 0 0-.357-.357 1.368 1.368 0 0 0-.52-.195 2.714 2.714 0 0 0-.596-.054c-.184 0-.389.01-.617.021a2.392 2.392 0 0 0-.552.087v2.198c.13.022.314.033.563.055.227-.011.466 0 .693 0zm-1.267-3.64a4.24 4.24 0 0 1 .639-.108c.282-.032.552-.043.823-.043.422 0 .823.054 1.202.152.379.097.704.249.986.465.281.217.498.488.66.813.163.325.25.725.25 1.17 0 .465-.076.855-.239 1.18a2.175 2.175 0 0 1-.66.801 2.897 2.897 0 0 1-1.029.455 5.611 5.611 0 0 1-1.322.152 14.71 14.71 0 0 1-1.592-.087 12.75 12.75 0 0 1-1.516-.27v-7.528h1.787v2.849h.011zm7.614 4.874h-1.787v-7.722h1.787v7.722zm-10.733-6.227h-2.491v6.238h-1.787v-6.238h-2.48v-1.495h6.769v1.495h-.011zm-8.091-1.495v7.722h-1.787V72h-2.848v6.238h-1.787v-7.722h6.422zm-10.104 3.098c0-.25-.033-.477-.109-.704a1.713 1.713 0 0 0-.303-.574 1.291 1.291 0 0 0-.487-.38 1.51 1.51 0 0 0-.683-.14c-.27 0-.519.054-.725.151a1.623 1.623 0 0 0-.52.412 2.006 2.006 0 0 0-.336.574 3.42 3.42 0 0 0-.162.66h3.325zm-5.188.801c0-.682.097-1.278.303-1.787.206-.509.466-.942.802-1.278a3.383 3.383 0 0 1 1.148-.769 3.56 3.56 0 0 1 1.332-.26c1.061 0 1.895.325 2.491.986.595.66.899 1.646.899 2.957 0 .097 0 .205-.011.335 0 .12-.011.239-.022.336h-5.101c.054.617.271 1.105.661 1.44.39.336.953.51 1.689.51a5.76 5.76 0 0 0 1.192-.12c.357-.075.639-.162.844-.249l.239 1.462c-.098.055-.239.098-.412.152a5.23 5.23 0 0 1-.596.152 6.213 6.213 0 0 1-.714.108c-.26.032-.52.043-.78.043-.682 0-1.267-.097-1.776-.303a3.424 3.424 0 0 1-1.246-.845 3.502 3.502 0 0 1-.726-1.267 5.767 5.767 0 0 1-.216-1.603zm-.975 2.361v3.65h-1.581v-2.188h-6v-7.722h1.787v6.26h2.837v-6.26h1.787v6.26h1.17zm-11.253-3.162c0-.25-.032-.477-.108-.704a1.713 1.713 0 0 0-.303-.574 1.295 1.295 0 0 0-.488-.38 1.505 1.505 0 0 0-.682-.14c-.271 0-.52.054-.726.151a1.619 1.619 0 0 0-.519.412c-.141.162-.25.358-.336.574a3.49 3.49 0 0 0-.163.66h3.325zm-5.187.801c0-.682.097-1.278.303-1.787.206-.509.466-.942.801-1.278a3.403 3.403 0 0 1 1.148-.769c.433-.173.878-.26 1.332-.26 1.062 0 1.896.325 2.491.986.596.66.899 1.646.899 2.957 0 .097 0 .205-.01.335 0 .12-.011.239-.022.336h-5.09c.054.617.27 1.105.66 1.44.39.336.953.51 1.69.51a5.76 5.76 0 0 0 1.191-.12 4.69 4.69 0 0 0 .845-.249l.238 1.462c-.097.055-.238.098-.411.152a6.666 6.666 0 0 1-1.311.26c-.26.032-.52.043-.78.043-.682 0-1.267-.097-1.776-.303a3.429 3.429 0 0 1-1.245-.845 3.488 3.488 0 0 1-.726-1.267 5.722 5.722 0 0 1-.227-1.603zm-1.419-.032a5.44 5.44 0 0 1-.228 1.624c-.151.488-.368.92-.66 1.267a2.794 2.794 0 0 1-1.073.823 3.47 3.47 0 0 1-1.451.293 3.66 3.66 0 0 1-1.007-.13 3.976 3.976 0 0 1-.758-.292v3h-1.787V70.765c.368-.097.812-.195 1.343-.281.53-.087 1.094-.13 1.678-.13.607 0 1.159.097 1.636.281.487.184.888.455 1.235.802.335.346.595.769.779 1.267.206.498.293 1.061.293 1.679zm-1.831.032c0-.801-.184-1.419-.541-1.863-.357-.444-.942-.66-1.733-.66-.162 0-.347.01-.52.021a2.39 2.39 0 0 0-.541.098v4.419c.162.108.368.205.628.303.26.097.541.14.834.14.65 0 1.126-.216 1.429-.66.293-.455.444-1.05.444-1.798zm-12.238-.801c0-.25-.032-.477-.108-.704a1.715 1.715 0 0 0-.304-.574 1.284 1.284 0 0 0-.487-.38 1.505 1.505 0 0 0-.682-.14c-.271 0-.52.054-.726.151a1.623 1.623 0 0 0-.52.412c-.14.162-.249.358-.335.574a3.49 3.49 0 0 0-.163.66h3.325zm-5.188.801c0-.682.098-1.278.304-1.787.205-.509.465-.942.801-1.278a3.403 3.403 0 0 1 1.148-.769 3.56 3.56 0 0 1 1.332-.26c1.062 0 1.895.325 2.491.986.596.66.899 1.646.899 2.957 0 .097 0 .205-.011.335 0 .12-.011.239-.021.336h-5.091c.054.617.271 1.105.661 1.44.39.336.953.51 1.689.51a5.77 5.77 0 0 0 1.192-.12c.357-.075.639-.162.845-.249l.238 1.462c-.098.055-.238.098-.412.152a5.264 5.264 0 0 1-.595.152 6.266 6.266 0 0 1-.715.108c-.26.032-.52.043-.78.043-.682 0-1.267-.097-1.776-.303-.498-.206-.921-.487-1.246-.845a3.486 3.486 0 0 1-.725-1.267 5.346 5.346 0 0 1-.228-1.603zm-8.198 2.589c.465 0 .834-.098 1.104-.293.271-.195.412-.498.412-.92 0-.217-.043-.401-.13-.542a.95.95 0 0 0-.357-.357 1.368 1.368 0 0 0-.52-.195 2.714 2.714 0 0 0-.596-.054c-.184 0-.39.01-.617.021a2.393 2.393 0 0 0-.553.087v2.198c.13.022.314.033.563.055.228-.011.466 0 .694 0zm-1.268-3.64c.152-.043.358-.075.639-.108.282-.032.553-.043.824-.043.422 0 .823.054 1.202.152.379.097.704.249.985.465a2.3 2.3 0 0 1 .661.813c.162.325.249.725.249 1.17 0 .465-.076.855-.238 1.18a2.178 2.178 0 0 1-.661.801 2.881 2.881 0 0 1-1.029.455 5.57 5.57 0 0 1-1.321.152c-.563 0-1.094-.033-1.592-.087a12.75 12.75 0 0 1-1.516-.27v-7.528h1.787v2.849h.01zm7.625 4.874h-1.787v-7.722h1.787v7.722zm-11.686 0h-1.787V75h-2.913v3.238h-1.787v-7.722h1.787v3.011h2.913v-3.01h1.787v7.721zm-8.329-3.855c0 .595-.075 1.137-.227 1.624-.152.488-.368.92-.661 1.267a2.79 2.79 0 0 1-1.072.823c-.433.196-.91.293-1.451.293a3.66 3.66 0 0 1-1.007-.13 3.924 3.924 0 0 1-.758-.292v3H106.3V70.765c.369-.097.813-.195 1.343-.281a10.41 10.41 0 0 1 1.679-.13c.607 0 1.159.097 1.636.281a3.42 3.42 0 0 1 1.234.802c.336.346.596.769.78 1.267.195.498.292 1.061.292 1.679zm-1.841.032c0-.801-.184-1.419-.541-1.863-.358-.444-.942-.66-1.733-.66-.163 0-.347.01-.52.021a2.39 2.39 0 0 0-.541.098v4.419c.162.108.368.205.628.303.26.097.541.14.834.14.649 0 1.126-.216 1.429-.66.303-.455.444-1.05.444-1.798zm-10.44-4.094c.595 0 1.083.076 1.494.217.401.151.726.357.964.617.239.271.412.585.52.964.108.38.152.79.152 1.246v4.678c-.271.054-.693.13-1.246.217a12.2 12.2 0 0 1-1.884.13c-.466 0-.888-.043-1.267-.13a2.556 2.556 0 0 1-.986-.433 2.019 2.019 0 0 1-.639-.77c-.152-.313-.227-.703-.227-1.169 0-.444.086-.812.26-1.126a2.21 2.21 0 0 1 .704-.748 3.032 3.032 0 0 1 1.028-.411c.39-.087.791-.13 1.224-.13.195 0 .401.01.618.032.216.022.444.065.693.13v-.292c0-.206-.022-.4-.076-.596a1.37 1.37 0 0 0-.26-.498 1.263 1.263 0 0 0-.487-.336 2.186 2.186 0 0 0-.759-.119c-.411 0-.79.033-1.137.087-.346.054-.628.13-.844.206l-.217-1.452c.227-.075.552-.162.986-.238.433-.032.898-.076 1.386-.076zm.151 6.661c.553 0 .975-.032 1.257-.087v-1.982c-.098-.032-.239-.054-.434-.086a3.589 3.589 0 0 0-.617-.044c-.195 0-.401.011-.596.044a1.98 1.98 0 0 0-.541.162.905.905 0 0 0-.39.336.965.965 0 0 0-.152.541c0 .423.13.715.401.878.26.162.618.238 1.072.238zm-4.992 1.256h-1.787V75H91.44v3.238h-1.787v-7.722h1.787v3.011h2.913v-3.01h1.788v7.721zm-8.762-7.722v7.722h-1.776c0-.563 0-1.115.01-1.668 0-.552.011-1.06.011-1.537 0-.477.011-.889.011-1.235 0-.347.01-.607.01-.78-.291.38-.595.812-.92 1.267-.314.466-.628.92-.942 1.386-.314.466-.607.921-.877 1.354-.271.444-.52.845-.726 1.192H80.6v-7.7h1.754c0 .573 0 1.115-.01 1.635 0 .52-.011.985-.011 1.408 0 .422 0 .79-.011 1.104 0 .314-.01.553-.01.726.27-.422.562-.856.855-1.31.292-.445.595-.889.899-1.311.303-.433.595-.834.888-1.224.292-.379.585-.725.855-1.029h1.57zM74.589 71.99c-.01.433-.022.888-.043 1.354-.022.466-.065.931-.141 1.386a7.158 7.158 0 0 1-.347 1.3 3.85 3.85 0 0 1-.66 1.115 3.48 3.48 0 0 1-1.05.824c-.423.216-.932.357-1.528.422l-.25-1.495c.5-.097.889-.26 1.17-.476a2.27 2.27 0 0 0 .64-.845c.119-.26.205-.541.27-.866.065-.325.109-.672.152-1.03.032-.357.054-.725.065-1.104.01-.379.01-.736.01-1.094v-.964h5.47v7.722H76.56V71.99h-1.97zm-4.018-1.473c-.79 2.935-1.722 5.589-2.773 7.971-.195.445-.4.824-.606 1.138a3.246 3.246 0 0 1-.693.78c-.26.205-.542.357-.856.454a3.705 3.705 0 0 1-1.094.141c-.27 0-.552-.032-.823-.087a2.302 2.302 0 0 1-.617-.194l.325-1.43c.357.14.704.206 1.05.206.466 0 .834-.109 1.094-.336.26-.217.487-.563.693-1.029a41.923 41.923 0 0 1-1.624-3.541 40.729 40.729 0 0 1-1.387-4.073h1.907c.097.412.216.867.368 1.343.14.488.292.975.466 1.473.173.498.346.997.53 1.484.184.487.38.953.563 1.375.314-.877.607-1.808.878-2.794.27-.985.52-1.95.747-2.87h1.852v-.01zm-12.79 3.098c.227-.228.476-.477.736-.758.27-.282.53-.564.79-.845.26-.282.51-.563.748-.823s.433-.488.595-.672h2.101c-.216.26-.465.542-.747.845-.282.303-.574.617-.866.942-.304.325-.596.628-.889.932-.292.303-.552.574-.79.801.303.26.617.552.953.9.325.335.65.703.975 1.082.325.38.617.758.899 1.148.27.39.509.747.693 1.083H60.91a16.022 16.022 0 0 0-1.451-1.885c-.27-.313-.553-.606-.845-.877a8.979 8.979 0 0 0-.823-.704v3.466h-1.798v-7.733h1.787v3.098z" fill="#EB5E00"/><path fill-rule="evenodd" clip-rule="evenodd" d="M138.402 54.216c.206 1.246.401 1.581 1.072 2.502.347.476.856.953 1.267 1.3.206.173.704.584.932.703-.043-.194-.368-.67-.542-.985-.519-.996-1.202-2.372-1.408-3.607-.216-1.267 1.04-2.848 1.582-3.78.996-1.721 1.96-3.39 1.137-5.674-.152-.412-.433-.997-.715-1.278.206 1.202.368 2.296.033 3.422-.217.725-.574 1.202-.943 1.744-.79 1.18-1.039 1.364-1.765 2.805-.292.584-.802 1.95-.65 2.848z" fill="#EB5E00"/><path fill-rule="evenodd" clip-rule="evenodd" d="M143.243 59.285c.13-.14.087-.087.185-.26.411-.747.758-1.473.725-2.48-.021-.65-.368-1.148-.585-1.495-.379-.617-1.657-1.527-.714-3.39.119-.238.151-.433.292-.639.249-.39.422-.801.661-1.191.13-.206.227-.368.357-.574.119-.206.292-.4.357-.617a3.303 3.303 0 0 0-.519.444c-.997 1.04-2.502 2.512-2.719 4.126-.087.617.087 1.256.293 1.83.476 1.3 1.472 1.733 1.646 2.405.086.336.097.715.076.975-.011.205-.076.671-.055.866z" fill="#EB5E00"/><path d="M152.254 47.253c.184.357.412.725.672 1.126.26.4.541.78.855 1.126.315.358.639.628.997.867.368.216.747.336 1.148.336.563 0 1.115-.228 1.679-.694.541-.455 1.039-1.18 1.473-2.155.433-.986.779-2.264 1.039-3.823.282-1.56.412-3.444.412-5.621 0-1.798-.087-3.347-.271-4.646-.173-1.3-.412-2.372-.715-3.228-.292-.855-.65-1.473-1.061-1.873-.412-.401-.845-.607-1.289-.607-.368 0-.736.13-1.094.4a5.934 5.934 0 0 0-1.029 1.04 9.559 9.559 0 0 0-.91 1.43c-.281.542-.541 1.05-.779 1.57-.228.52-.434.997-.607 1.452-.162.455-.292.801-.368 1.061a569.538 569.538 0 0 0-.13 5.892 353.677 353.677 0 0 0-.043 5.848v.499h.021zm-6.465 17.393c.292-3.455.346-10.473.498-13.982a364.9 364.9 0 0 0 .336-15.368c0-3.466-.055-7.04-.174-10.733l6.369-.076-.163 3.12c.802-1.571 1.733-2.795 2.805-3.683 1.062-.877 2.177-1.322 3.336-1.322 1.408 0 2.653.304 3.747.921 1.105.607 2.026 1.56 2.773 2.87.747 1.31 1.321 2.979 1.711 5.015.39 2.036.585 4.473.585 7.343 0 3.281-.271 6.021-.812 8.274-.542 2.231-1.268 4.04-2.156 5.415-.899 1.376-1.917 2.372-3.043 2.957-1.126.607-2.285.899-3.466.899a7.064 7.064 0 0 1-1.906-.455c-.563-.206-1.191-.541-1.874-.996-.682-.455-1.364-1.116-2.036-1.95.033 2.805 0 5.719.087 8.632l-6.617 3.12z" fill="#EB5E00"/><path d="M160.529 55.84a6.935 6.935 0 0 1-2.415.434 7.058 7.058 0 0 1-1.907-.455c-.563-.206-1.191-.541-1.873-.996-.682-.455-1.365-1.116-2.036-1.95v.022l-.044-.087v-5.545c.185.347.401.715.661 1.105.26.4.542.78.856 1.126.314.358.639.628.996.867.368.216.747.335 1.148.335.563 0 1.116-.227 1.679-.693.541-.455 1.04-1.18 1.473-2.155.433-.986.78-2.264 1.039-3.823.044-.25.087-.498.12-.758h.292V55.84h.011z" fill="url(#paint1_linear)"/><path d="M164.918 7.42c-.998-.972-2.208-1.603-3.566-1.944-.489-.124-.754-.279-.934-.817-.531-1.602-1.593-2.77-3.142-3.453-.032-.02-.064-.03-.064-.03s-.074-.032-.191-.073c-.053-.02-.106-.041-.17-.062-.17-.062-.276-.103-.35-.103-.329-.093-.732-.197-1.083-.218-.01-.01-.032-.01-.042-.02a7.204 7.204 0 0 0-2.93.29c-1.698.527-2.951 1.56-3.747 3.122-.191.372-.191.372-.541.134a8.23 8.23 0 0 0-5.02-1.416c-2.378.093-4.427.992-6.167 2.543-1.2 1.065-2.091 2.347-2.59 3.866-.404 1.241-.51 2.502-.244 3.784.053.28.032.476-.266.6-.286.124-.509.351-.743.538-1.188.971-2.091 2.15-2.621 3.577-.786 2.15-.712 4.27.191 6.378.679 1.582 1.719 2.864 3.248 3.733 1.411.806 2.94 1.044 4.553.754 1.221-.217 2.314-.713 3.344-1.375.191-.124.318-.144.456.073.425.651.828 1.302 1.189 1.995.361.703.679 1.437 1.093 2.12.372.61 1.168.878 1.847.423a48.232 48.232 0 0 1 2.696-1.674c3.174-1.851 6.305-3.753 9.617-5.387 1.422-.703 2.445-1.266 3.921-1.825.276-.103.573-.144.785-.392.297-.362.457-.993.053-1.561-.668-.931-1.369-1.84-1.815-2.906-.085-.206-.106-.268.138-.351 1.454-.507 2.042-1.463 2.902-2.704 1.698-2.481 2.316-5.541.193-7.62z" fill="#fff"/><path d="M164.037 14.566c-.92 1.213-2.144 1.96-3.628 2.285 1.592-1.862 1.549-4.288.921-5.371.043.52.065 1.007-.033 1.483-.476 2.329-2.036 3.607-4.202 4.267-1.072.325-2.166.347-3.249-.054-.228-.086-.314-.195-.282-.444.054-.52.011-1.04-.108-1.548-.087-.336-.108-.715-.336-1.019-.021.033-.043.055-.043.076 0 .054 0 .109.011.174.119 1.06-.076 2.09-.466 3.075-.856 2.134-2.361 3.715-4.213 5.004-1.419.986-2.978 1.711-4.679 2.08-1.375.292-2.74.357-4.104-.055-.845-.249-1.603-.65-2.221-1.288-.054-.055-.108-.087-.173-.044-.065.043 0 .108.022.152.086.173.184.335.27.509.683 1.289 1.701 2.133 3.13 2.49.087.022.217 0 .239.152-.412.25-.813.531-1.257.737-1.029.498-2.112.79-3.27.693-2.069-.184-3.564-1.267-4.657-2.913a7.296 7.296 0 0 1-1.192-3.466c-.216-2.87.932-5.112 3.217-6.812.141-.109.216-.109.314.054.314.541.747.964 1.256 1.31.303.206.618.401 1.083.38-.173-.228-.303-.39-.433-.564-.986-1.321-1.505-2.794-1.386-4.451.173-2.253 1.354-3.986 3.065-5.318 2.209-1.722 4.754-2.361 7.527-1.863 1.809.325 3.282 1.224 4.267 2.827.098.152.184.314.282.477.075-.065.097-.13.086-.185-.108-.53-.184-1.072-.422-1.56-.076-.162-.119-.346-.054-.53.693-1.83 1.982-3.032 3.845-3.628.584-.184 1.18-.238 1.808-.238.498.054.91.14 1.462.314.044.032.098.054.163.086 1.332.585 2.09 1.668 2.534 3.011.065.184.033.26-.173.336-.758.282-1.419.704-1.852 1.473 3.043-1.31 5.393-.4 7.148 2.188 1.148 1.722 1.007 4.104-.217 5.718zm-1.613 7.397c-.726.26-1.43.574-2.123.9a73.577 73.577 0 0 0-4.127 2.079c-2.328 1.256-4.613 2.61-6.877 3.985a133.112 133.112 0 0 0-3.931 2.491c-.249.163-.369.12-.477-.14a23.62 23.62 0 0 0-.563-1.192c-.098-.184 0-.26.119-.357a9.812 9.812 0 0 1 1.365-.942c.097-.055.173-.109.249-.185l1.429-.91.022-.021c1.213-.747 2.426-1.495 3.693-2.144-.617.064-1.18.292-1.743.498-1.528.563-3.022 1.224-4.441 2.025-.379.206-.769.39-1.148.596-.141.075-.238.086-.336-.076a17.639 17.639 0 0 0-1.288-1.971c.227-.174.476-.098.693-.12 2.48-.303 4.613-1.364 6.53-2.924a13.5 13.5 0 0 0 2.578-2.75 9.122 9.122 0 0 0 1.018-1.896c.065-.173.119-.238.314-.173a5.62 5.62 0 0 0 1.982.346c.043 0 .076.033.184.065-.985.683-1.906 1.376-2.523 2.437.162 0 .238-.086.325-.151 1.159-.932 2.48-1.56 3.866-2.09 1.007-.38 2.036-.672 3.065-.965.238-.064.368-.032.477.206.465 1.073 1.083 2.058 1.787 3 .141.184.119.293-.119.38zm2.361-14.88c-1.018-1.019-2.253-1.68-3.639-2.037-.499-.13-.769-.292-.953-.855-.542-1.68-1.625-2.903-3.206-3.618-.033-.021-.065-.032-.065-.032s-.076-.033-.195-.076a2.938 2.938 0 0 0-.173-.065c-.174-.065-.282-.108-.358-.108-.336-.098-.747-.206-1.105-.228-.01-.01-.032-.01-.043-.021a7.166 7.166 0 0 0-2.989.303c-1.733.552-3.011 1.635-3.823 3.27-.195.39-.195.39-.553.141a8.238 8.238 0 0 0-5.122-1.483c-2.426.097-4.517 1.04-6.293 2.664-1.224 1.115-2.133 2.458-2.643 4.05-.411 1.3-.519 2.622-.249 3.964.055.293.033.499-.27.629-.293.13-.52.368-.758.563-1.214 1.018-2.134 2.252-2.676 3.747-.801 2.253-.725 4.484.195 6.683.693 1.656 1.755 3 3.314 3.91 1.441.844 3 1.093 4.647.79 1.245-.228 2.361-.747 3.411-1.44.195-.13.325-.152.466.075.433.683.845 1.365 1.213 2.09.368.737.693 1.506 1.116 2.22.379.64 1.191.921 1.884.445a49.295 49.295 0 0 1 2.751-1.755c3.238-1.938 6.433-3.931 9.812-5.642 1.441-.737 2.903-1.43 4.408-2.015.282-.108.596-.151.802-.411.303-.38.465-1.04.054-1.636-.682-.974-1.386-1.928-1.852-3.043-.087-.217-.108-.282.141-.368 1.483-.531 2.696-1.43 3.574-2.73 1.743-2.599 1.343-5.805-.823-7.982z" fill="#EB5E00"/><path d="M146.612 32.155c5.198-2.914 10.397-5.816 15.596-8.73l.216-.054.423.25-16.235 11.285v-2.751z" fill="url(#paint2_linear)"/><path fill-rule="evenodd" clip-rule="evenodd" d="M145.236 61.191h7.181c0 3.878-3.217 7.008-7.181 7.008s-7.18-3.141-7.18-7.008h7.18z" fill="#EB5E00"/><path d="M145.258 62.794c3.942 0 7.137-.625 7.137-1.397 0-.771-3.195-1.397-7.137-1.397-3.942 0-7.137.626-7.137 1.397 0 .772 3.195 1.397 7.137 1.397z" fill="url(#paint3_linear)"/><defs><linearGradient id="paint0_linear" x1="166.107" y1="41.763" x2="151.104" y2="52.25" gradientUnits="userSpaceOnUse"><stop offset=".411" stop-color="#C13B00"/><stop offset=".83" stop-color="#79301D"/></linearGradient><linearGradient id="paint1_linear" x1="158.805" y1="49.865" x2="151.297" y2="51.053" gradientUnits="userSpaceOnUse"><stop stop-color="#EB5E00"/><stop offset=".862" stop-color="#BF3900"/></linearGradient><linearGradient id="paint2_linear" x1="163.047" y1="23.549" x2="149.17" y2="31.986" gradientUnits="userSpaceOnUse"><stop stop-color="#EB5E00"/><stop offset=".602" stop-color="#BF3900"/></linearGradient><linearGradient id="paint3_linear" x1="138.139" y1="61.76" x2="152.65" y2="61.022" gradientUnits="userSpaceOnUse"><stop offset=".442" stop-color="#AB2800"/><stop offset=".972" stop-color="#EB5E00"/></linearGradient></defs></svg>