<svg width="318" height="432" fill="none" xmlns="http://www.w3.org/2000/svg"><path opacity=".5" fill-rule="evenodd" clip-rule="evenodd" d="M128.993 92.253c1.106-.442 2.156-1.023 3.124.747.387-1.244.663-1.853.802-2.516.967-5.116 3.373-10.066 5.419-15.762a43.765 43.765 0 0 0 1.797-6.609c.248-1.161.359-2.378.47-3.595l.083-2.322c0-.857-.056-1.742-.166-2.6-.304-2.848-.885-5.558-1.687-8.406-.055-.249-.166-.415-.276-.636l-5.613.553-2.847.387-2.737.443c-2.71.498-5.309.802-7.935.58-1.465-.11-2.931.139-4.341.332-1.907.25-3.732.47-5.529.802l-.581.11c-.083.028-.083.028-.138.056-.055.028-.193.055-.221.083-.055.028-.111 0-.055-.138.11-.249.221-.277.055-.166-.166.11-.553.221-.774.166-.055 0-.111-.028-.166-.083-.138-.11-.221-.36-.277-.691.36-1.328.83-3.07.996-4.618.497-4.231 1.824-8.102 1.99-12.444a22.239 22.239 0 0 0-.746-6.553l-.221-.83-.304-1.05a26.068 26.068 0 0 0-.775-2.047l-.884-1.963c-.608-.36-1.272-.636-1.88-.968l-1.493-.664-.857-.36c-.028 0-.249-.11-.111-.027l.304.139c.139.055-.055-.028-.055-.028l-.608-.249-1.189-.498c-.221-.138-.359-.083-.498 0l-.442.166-.885.332-1.714.636c-1.659.636-3.124 1.161-4.81 1.41-1.023.139-1.963.692-2.959 1.051l-4.45 1.52c-1.107.388-2.24.747-3.263 1.273a23.352 23.352 0 0 1-3.954 1.631c-.69.194-1.354.387-2.073.498-.332.055-.72.11-1.05.138a3.626 3.626 0 0 1-.775 0c-1.078-.083-2.156.166-3.096.083l-.332-.027c-.249-.968-.138-2.213-.11-3.125l.137-1.355.111-2.323c.11-1.825.166-3.622-.166-5.503-.36-2.073-.276-4.258-.276-6.442.027-3.346-.72-6.637-2.074-9.706-.58-1.272-.691-1.245-2.377-.83-.692 2.24-1.3 4.452-1.549 6.886-.414 4.23-1.354 8.433-1.824 12.913-.139 1.576-.139 3.18-.139 4.812 0 .414 0 .608.028 1.216l.11 1.797c.111 1.19.25 2.379.443 3.568.415 2.322.885 4.618 1.41 6.996l3.041-.277c1.382-.138 2.792-.194 4.23-.442l3.014-.581a23.38 23.38 0 0 0 1.465-.304l.94-.25a110.39 110.39 0 0 0 3.345-.94c2.212-.635 4.368-1.354 6.525-2.046l9.345-2.958 2.322-.802.58-.194.277-.083.083-.027.332-.139c.055-.055.276-.055.193-.11l-.276-.11-.138-.056-.056-.028s-.166-.083.332.139l.581.276.055.028.138.083.055.027-.857-.387.028.028.111.083c.248.055.165.387.276.553l.111.276c.055.139.055.11.138.498.138.58.249 1.217.332 1.853.166 1.272.193 2.599.138 3.954-.111 2.102-.553 4.23-1.189 6.305-.166.553-.525 1.05-.912 1.52a57.705 57.705 0 0 0-2.6 3.54l-2.294 3.871a433.822 433.822 0 0 1-3.096 4.48c.442 1.631.83 2.82 1.16 3.705l.94 2.074c.167.332.305.774.47.996.167.22.333.414.581.608.83.83 2.323 1.41 4.148 1.493 1.244.11 2.571.138 3.677.387 1.078.221 2.267.36 3.455.387 1.189.028 2.295-.027 3.456-.083 1.521-.166 2.848-.497 4.23-.912.747-.221 1.521-.332 2.212-.58.774-.277 1.687-.47 2.212-.996 1.023-.968 2.073-1.162 3.235-1.245 1.741-.11 3.455-.331 5.142-.304.774 0 1.548-.027 2.295-.11l.691-.083c.11-.028.221-.056.359-.083.47-.138 1.023-.47 1.936-.996l.221-.138c.055 0 .083.028.138.028.968.304 1.216 1.935 1.216 3.207.056 4.756-1.686 9.734-3.29 14.932-.331 1.079-.276 2.24-.525 3.374-.442 2.184-.857 4.397-1.106 6.636-.138 1.245-.332 2.517.581 3.733zm22.85 148.652c-.09-.76-.276-1.509.984-1.815-.709-.447-1.04-.72-1.429-.916-3.015-1.452-5.688-3.769-8.884-5.986a27.989 27.989 0 0 0-3.804-2.215c-.68-.348-1.417-.619-2.154-.89l-1.428-.438a13.129 13.129 0 0 0-1.641-.329c-1.819-.285-3.598-.376-5.499-.352-.164-.007-.286.034-.441.066l-.591 3.576-.233 1.833-.181 1.772c-.141 1.765-.385 3.429-.959 5.023-.312.891-.402 1.843-.516 2.75-.163 1.226-.329 2.395-.422 3.566l-.028.379a.435.435 0 0 0 .011.095c.008.039.003.129.015.151.008.039-.018.069-.095.012-.136-.111-.135-.184-.094-.062.041.121.046.38-.025.508-.01.034-.036.064-.08.089-.091.067-.26.078-.475.057-.764-.444-1.767-1.026-2.701-1.386-2.544-1.013-4.726-2.481-7.394-3.306a14.293 14.293 0 0 0-4.193-.627l-.552-.001-.703.014c-.466.023-.941.079-1.399.141l-1.366.222c-.324.318-.606.684-.913 1.006l-.661.817-.365.472c-.005.017-.11.136-.036.064l.136-.166c.058-.076-.026.03-.026.03l-.256.336-.506.656c-.123.114-.112.209-.083.309l.029.302.059.604.11 1.17c.119 1.136.201 2.133.075 3.221-.084.658.103 1.334.16 2.012l.204 3.016c.056.751.091 1.514.247 2.237.201.9.323 1.816.355 2.726.005.461.015.905-.036 1.37a8.829 8.829 0 0 1-.089.675 2.32 2.32 0 0 1-.128.481c-.231.655-.256 1.366-.464 1.936l-.072.201c-.643-.006-1.397-.282-1.959-.451l-.818-.311-1.423-.455c-1.115-.372-2.222-.706-3.444-.813-1.348-.121-2.69-.536-4.046-.9-2.073-.573-4.24-.657-6.37-.327-.887.149-.888.222-.911 1.338 1.275.802 2.547 1.547 4.017 2.107 2.557.961 5.01 2.244 7.713 3.281.956.348 1.951.614 2.964.886.258.069.378.101.76.185l1.135.23c.756.13 1.517.242 2.288.319 1.511.129 3.014.219 4.577.289l.335-1.934c.144-.882.344-1.766.429-2.7l.14-1.968c.032-.322.046-.65.055-.96l.002-.625c0-.754-.005-1.491-.027-2.233-.027-1.479-.114-2.937-.185-4.391l-.282-6.294-.112-1.575-.023-.393-.006-.185-.003-.056-.031-.229c-.025-.044.012-.181-.036-.139l-.115.154-.057.076-.027.03s-.079.089.141-.183l.269-.314.026-.03.074-.072.027-.03-.383.468.022-.013.069-.055c.076-.145.268-.038.39-.079l.19-.023c.095-.011.078-.016.332-.003.383.011.797.048 1.205.102.818.109 1.646.312 2.478.572 1.286.418 2.535 1.047 3.716 1.787.316.195.565.501.793.819a37.04 37.04 0 0 0 1.765 2.203l2.022 2.068c.756.884 1.513 1.767 2.266 2.668a26.674 26.674 0 0 0 2.493-.105l1.444-.238c.234-.048.531-.06.696-.127a1.88 1.88 0 0 0 .474-.259c.653-.377 1.262-1.207 1.617-2.326.276-.754.514-1.573.852-2.218.317-.633.601-1.348.816-2.081.215-.734.364-1.43.523-2.16.15-.971.165-1.85.137-2.778-.013-.5.047-.999.008-1.469-.043-.527-.012-1.126-.251-1.539-.43-.796-.376-1.481-.234-2.215.221-1.1.369-2.201.667-3.243.128-.481.24-.966.313-1.443l.063-.443c.001-.073.003-.147.008-.237-.007-.315-.121-.713-.296-1.367l-.049-.161c.009-.034.031-.046.04-.081.35-.55 1.405-.433 2.194-.221 2.962.756 5.762 2.666 8.723 4.526.614.385 1.345.544 2.007.887 1.283.638 2.587 1.264 3.936 1.791.75.293 1.507.624 2.414.26zM316.075 11.093c-.179-.617-.436-1.21.564-1.637-.647-.273-.959-.453-1.308-.562-2.693-.786-5.223-2.335-8.172-3.73a23.489 23.489 0 0 0-3.451-1.31c-.61-.193-1.257-.316-1.904-.44l-1.242-.165c-.46-.045-.937-.061-1.403-.047-1.543.015-3.027.184-4.597.466-.137.016-.231.067-.356.115l.004 3.04.059 1.547.094 1.492c.125 1.479.153 2.889-.103 4.286-.136.78-.079 1.58-.049 2.346.034 1.037.057 2.027.142 3.008l.029.318c.01.045.01.045.022.076.012.032.02.107.033.123.012.032-.006.06-.077.023-.128-.072-.137-.133-.086-.038.05.094.09.308.048.423-.003.03-.02.058-.053.085-.066.069-.204.1-.385.112-.693-.262-1.603-.605-2.425-.775-2.244-.488-4.251-1.402-6.571-1.718a11.976 11.976 0 0 0-3.555.058l-.457.076-.579.108c-.383.083-.768.195-1.138.308l-1.1.372c-.224.308-.407.65-.617.958l-.434.767-.238.44c-.001.015-.072.128-.02.058l.09-.155c.037-.072-.018.028-.018.028l-.165.313-.329.612c-.086.111-.064.188-.026.267l.066.246.131.492.252.952c.255.923.46 1.737.505 2.655.021.555.269 1.089.409 1.641l.584 2.468c.15.613.283 1.24.512 1.816.289.717.517 1.458.668 2.206.068.381.137.747.159 1.138.012.181.022.392.019.571.001.15-.012.283-.04.415-.101.575-.024 1.166-.117 1.666l-.033.176c-.532.083-1.194-.041-1.682-.104l-.719-.144-1.24-.181c-.974-.155-1.935-.278-2.961-.199-1.131.085-2.299-.074-3.471-.188-1.793-.19-3.597.04-5.315.605-.712.245-.703.306-.569 1.233 1.166.487 2.321.93 3.613 1.19 2.248.443 4.453 1.167 6.832 1.653.838.157 1.698.24 2.574.326.222.021.326.032.654.049l.97.034a29.18 29.18 0 0 0 1.936-.05 93.872 93.872 0 0 0 3.827-.392l.01-1.646c-.001-.748.043-1.508-.016-2.292l-.154-1.647a11.823 11.823 0 0 0-.087-.802l-.084-.517a61.18 61.18 0 0 0-.33-1.844c-.225-1.22-.498-2.414-.756-3.607l-1.099-5.167-.309-1.288-.074-.321-.03-.153-.01-.046-.057-.185c-.027-.033-.015-.151-.049-.11l-.074.143-.037.071-.018.028s-.053.085.092-.17l.178-.297.018-.029.052-.07.017-.028-.252.44.016-.014.051-.055c.042-.13.216-.068.311-.119l.154-.045c.077-.022.062-.024.274-.048.319-.044.666-.07 1.011-.081.691-.023 1.405.032 2.129.132 1.121.17 2.24.518 3.32.967.288.118.536.337.768.57a31.154 31.154 0 0 0 1.763 1.578l1.957 1.433c.747.627 1.495 1.254 2.241 1.895a22.582 22.582 0 0 0 2.048-.429l1.162-.396c.186-.071.431-.122.558-.2.128-.077.24-.156.357-.28.488-.401.878-1.172 1.018-2.146.124-.662.208-1.372.399-1.953.175-.566.312-1.197.389-1.833.077-.636.105-1.232.136-1.858-.01-.825-.119-1.554-.269-2.317-.08-.412-.098-.833-.196-1.217-.108-.43-.164-.93-.418-1.238-.466-.6-.515-1.173-.499-1.8.032-.94.003-1.872.106-2.775.04-.415.066-.832.06-1.237l-.008-.375a4.485 4.485 0 0 1-.026-.197c-.05-.26-.199-.573-.433-1.09l-.062-.126c.002-.03.019-.043.022-.073.213-.503 1.101-.551 1.784-.485 2.554.22 5.133 1.413 7.838 2.545.561.235 1.187.265 1.782.458 1.149.352 2.314.69 3.503.94.66.14 1.332.31 2.032-.116zm-275.139 385c-.18-.617-.436-1.211.563-1.637-.647-.273-.959-.453-1.307-.562-2.694-.786-5.224-2.335-8.172-3.73a23.42 23.42 0 0 0-3.452-1.309c-.61-.194-1.257-.317-1.904-.44l-1.241-.166a11.12 11.12 0 0 0-1.403-.047c-1.544.015-3.028.184-4.598.466-.136.016-.231.067-.355.115l.003 3.039.059 1.548.094 1.492c.126 1.479.153 2.889-.103 4.286-.136.781-.079 1.58-.049 2.346.034 1.037.058 2.027.142 3.008l.029.317c.01.046.01.046.022.078.012.031.02.106.033.123.012.031-.006.059-.077.022-.127-.072-.137-.133-.086-.038.05.094.09.308.049.424-.003.029-.02.057-.053.084-.067.069-.205.1-.386.112-.693-.262-1.603-.605-2.425-.775-2.243-.488-4.25-1.402-6.571-1.718a11.994 11.994 0 0 0-3.555.058l-.456.076-.58.108a14.56 14.56 0 0 0-1.138.308l-1.1.372c-.224.308-.407.649-.617.958l-.434.767-.237.441c-.002.014-.073.127-.02.057l.09-.155c.036-.072-.019.028-.019.028l-.165.313-.329.612c-.086.111-.063.188-.026.267l.066.246.132.492.251.952c.255.923.46 1.737.506 2.655.02.556.268 1.089.409 1.641l.583 2.468c.15.613.284 1.24.512 1.816.29.717.517 1.458.669 2.206.067.381.137.747.158 1.138.013.181.022.392.02.571 0 .15-.013.283-.04.416-.102.574-.024 1.165-.118 1.665l-.032.176c-.532.083-1.194-.041-1.682-.103l-.72-.145-1.24-.181c-.973-.155-1.935-.278-2.96-.199-1.132.085-2.3-.074-3.471-.188-1.794-.189-3.598.039-5.315.605-.713.245-.704.306-.57 1.233 1.166.487 2.32.929 3.613 1.19 2.248.443 4.454 1.167 6.832 1.653.839.157 1.699.241 2.574.326.223.021.326.032.654.048l.97.035a27.89 27.89 0 0 0 1.937-.051 92.877 92.877 0 0 0 3.826-.391l.01-1.646c-.001-.748.043-1.508-.016-2.292l-.154-1.647a12.339 12.339 0 0 0-.086-.802l-.085-.517a63.837 63.837 0 0 0-.33-1.844c-.225-1.219-.498-2.414-.756-3.607l-1.1-5.167-.308-1.288-.073-.321-.03-.153-.011-.046-.057-.185c-.027-.033-.015-.151-.05-.11l-.073.143-.037.071-.017.028s-.054.085.091-.17l.179-.297.017-.029.052-.069.018-.029-.253.44.017-.013.05-.055c.043-.131.216-.069.311-.12l.154-.045c.077-.022.062-.024.274-.048.32-.044.666-.07 1.012-.081.69-.023 1.404.032 2.128.132 1.122.169 2.24.518 3.32.967.288.118.536.337.768.569a30.78 30.78 0 0 0 1.763 1.579l1.957 1.433c.747.627 1.495 1.254 2.241 1.895a22.45 22.45 0 0 0 2.049-.429l1.161-.396c.187-.071.431-.122.559-.2a1.57 1.57 0 0 0 .356-.28c.489-.401.878-1.172 1.018-2.146.124-.662.208-1.372.4-1.952a10.64 10.64 0 0 0 .388-1.834c.077-.636.105-1.233.136-1.858-.01-.825-.118-1.554-.268-2.317-.08-.412-.1-.833-.197-1.217-.107-.43-.164-.929-.418-1.238-.466-.6-.515-1.173-.498-1.801.031-.94.002-1.871.105-2.774.04-.415.066-.832.06-1.237l-.008-.375c-.009-.061-.018-.121-.026-.197-.05-.259-.198-.573-.433-1.09l-.062-.126c.003-.03.019-.043.022-.073.214-.503 1.102-.551 1.784-.485 2.554.219 5.133 1.413 7.838 2.545.562.234 1.188.265 1.783.458 1.148.352 2.313.69 3.502.94.66.139 1.333.31 2.033-.116z" fill="#D6EBF3"/><path opacity=".5" fill-rule="evenodd" clip-rule="evenodd" d="M231.282 167.171c.112.432.374.865.28 1.223-.074.319-.504.62-1.829.432 1.624.941 2.557 1.28 3.51 1.487 3.734.658 7.486.131 10.941-1.637 1.699-.903 3.398-2.201 4.574-4.196 1.232-1.994 1.475-4.778.728-6.923a10.84 10.84 0 0 0-.952-2.163c-.392-.603-.747-1.223-1.195-1.769-.878-1.11-1.886-2.145-3.006-2.991-2.222-1.712-4.78-2.879-7.431-3.537-2.166-.527-4.388-.903-6.647-.79a21.531 21.531 0 0 0-8.737 2.483c-3.081 1.618-5.938 3.725-8.384 6.641-1.362 1.618-2.315 3.838-2.763 6.058-.635 2.991-.429 6.114.411 8.824.747 2.389 1.792 4.496 2.801 6.622 1.941 4.007 5.731 7.281 9.932 8.917 4.313 1.637 8.962 1.938 12.958.885 2.352-.565 4.593-1.223 6.758-2.032 2.185-.79 4.295-1.769 6.236-3.029 3.94-2.502 7.114-6.077 9.709-9.934 2.222-3.424 3.155-7.356 4.089-11.306.168-.603.224-1.261.205-1.919-.018-.659.019-1.317-.056-1.976-.074-.978-.093-1.956-.299-2.916-.093-.489-.149-.978-.261-1.449l-.411-1.411c-.168-.715-.485-1.392-.784-2.05-.243-.696-.635-1.317-1.045-1.9-2.035-2.954-4.575-5.249-7.413-7.319-1.568-1.185-3.472-1.9-5.302-2.596-3.902-1.449-8.066-2.013-12.229-1.881-1.139.056-2.278.112-3.38.357-.56.113-1.12.207-1.68.357-.541.17-1.101.358-1.643.565-1.195.414-2.371.959-3.585 1.411-1.176.564-2.39 1.016-3.51 1.693-3.547 1.863-6.31 4.835-7.841 8.165-.616 1.392-.486 1.43.653 1.769 1.811-1.712 3.79-3.067 5.975-4.459 3.808-2.352 8.196-3.594 12.565-4.007l1.158-.132 1.157-.075c.766-.057 1.55-.113 2.315-.076 3.342.038 6.628.602 9.522 1.769.728.244 1.344.658 2.035.94 3.753 1.656 6.61 4.591 7.935 8.542.934 2.878 1.027 6.095.411 9.2-.355 1.561-.747 3.16-1.456 4.646-.28.621-.56 1.261-.934 1.825-.355.584-.691 1.186-1.12 1.731-.485.64-.952 1.261-1.494 1.844a27.91 27.91 0 0 1-7.225 6.246 23.662 23.662 0 0 1-6.796 2.766c-.616.15-1.289.112-1.905.112-4.275-.319-7.879-.997-11.333-2.577-1.624-.771-3.062-2.013-4.331-3.48-.411-.546-.896-1.073-1.102-1.731-.877-2.427-1.848-4.553-2.24-6.811-.15-.621-.075-1.241-.112-1.862.018-.339.037-.696.037-1.035.037-.339.056-.677-.019-.96-.13-.526 0-.997.112-1.486.206-.451.43-.903.785-1.317.989-1.26 2.221-2.389 3.659-3.16a74.746 74.746 0 0 1 4.294-2.07 56.515 56.515 0 0 1 4.444-1.58c2.352-.659 4.854-.301 7.132.545 4.836 1.694 9.783 7.469 5.881 10.912-.672.715-1.456 1.524-2.427 2.088-1.923 1.073-4.238 1.618-6.497 1.6-1.289-.038-2.465-.283-3.828-.113zM43.684 153.894c.067.258.223.515.167.729-.044.19-.3.37-1.09.257.968.561 1.524.763 2.092.886 2.225.393 4.462.079 6.52-.975 1.014-.539 2.026-1.312 2.727-2.501.735-1.188.88-2.848.434-4.126a6.462 6.462 0 0 0-.567-1.29c-.234-.359-.445-.729-.713-1.054a10.055 10.055 0 0 0-1.791-1.783c-1.324-1.02-2.849-1.715-4.43-2.108-1.29-.314-2.614-.538-3.96-.471a12.84 12.84 0 0 0-5.209 1.48c-1.836.965-3.538 2.221-4.996 3.959-.812.964-1.38 2.287-1.647 3.61a10.59 10.59 0 0 0 .245 5.259c.445 1.424 1.068 2.68 1.669 3.947 1.157 2.389 3.416 4.34 5.92 5.315 2.57.976 5.342 1.155 7.723.527a34.157 34.157 0 0 0 4.028-1.211c1.302-.471 2.56-1.054 3.717-1.805 2.348-1.491 4.24-3.622 5.787-5.921 1.324-2.04 1.88-4.384 2.437-6.739.1-.358.133-.751.122-1.143-.011-.393.011-.785-.033-1.178-.045-.583-.056-1.166-.178-1.738-.056-.291-.09-.583-.156-.863l-.245-.841c-.1-.426-.29-.83-.467-1.222-.145-.415-.379-.785-.623-1.133-1.214-1.761-2.727-3.129-4.418-4.362-.935-.706-2.07-1.133-3.16-1.547-2.326-.864-4.808-1.2-7.29-1.122-.678.034-1.357.068-2.014.213-.334.068-.667.124-1.001.213a16.44 16.44 0 0 0-.98.337c-.712.246-1.413.572-2.136.841-.701.336-1.425.605-2.092 1.009-2.114 1.11-3.761 2.882-4.674 4.866-.367.83-.29.853.39 1.055 1.079-1.021 2.258-1.828 3.56-2.658 2.27-1.402 4.886-2.142 7.49-2.388l.69-.079.69-.045c.456-.033.923-.067 1.38-.045 1.991.023 3.95.359 5.675 1.054.434.146.8.393 1.213.561 2.236.987 3.939 2.736 4.73 5.091.556 1.716.611 3.633.244 5.483-.212.931-.445 1.884-.868 2.77-.167.37-.334.751-.556 1.087-.212.348-.412.707-.668 1.032-.29.381-.568.751-.89 1.099a16.648 16.648 0 0 1-4.307 3.723 14.09 14.09 0 0 1-4.05 1.648c-.368.09-.768.067-1.136.067-2.548-.19-4.696-.594-6.754-1.536-.968-.46-1.825-1.2-2.582-2.074-.245-.325-.534-.639-.657-1.032-.523-1.446-1.101-2.713-1.335-4.059-.089-.37-.044-.74-.067-1.11.011-.202.023-.415.023-.617.022-.202.033-.404-.012-.572-.077-.314 0-.594.067-.886.123-.269.256-.538.468-.785.59-.751 1.324-1.424 2.18-1.883a43.946 43.946 0 0 1 2.56-1.234 34.19 34.19 0 0 1 2.648-.942c1.403-.392 2.894-.179 4.252.325 2.882 1.01 5.83 4.452 3.505 6.504-.4.426-.868.908-1.447 1.245-1.146.639-2.526.964-3.872.953-.768-.022-1.47-.168-2.282-.067zm92.39 226.915c.09.347.299.694.224.981-.06.257-.404.498-1.468.347 1.304.755 2.053 1.027 2.816 1.193 2.996.528 6.007.105 8.778-1.313 1.363-.725 2.726-1.766 3.67-3.366.988-1.6 1.183-3.834.584-5.554a8.718 8.718 0 0 0-.764-1.736c-.315-.483-.599-.981-.959-1.419-.704-.89-1.513-1.721-2.411-2.4-1.783-1.373-3.835-2.309-5.962-2.837-1.737-.423-3.52-.725-5.332-.634a17.282 17.282 0 0 0-7.01 1.992c-2.472 1.298-4.763 2.989-6.725 5.328-1.094 1.298-1.858 3.079-2.217 4.86-.51 2.4-.345 4.905.329 7.079.599 1.917 1.438 3.607 2.247 5.313 1.558 3.214 4.598 5.841 7.969 7.154 3.46 1.313 7.189 1.554 10.395.709a46.373 46.373 0 0 0 5.422-1.63c1.752-.634 3.445-1.419 5.003-2.43 3.16-2.007 5.707-4.875 7.789-7.969 1.782-2.747 2.531-5.902 3.28-9.071.135-.483.18-1.011.165-1.54-.015-.528.015-1.056-.045-1.585-.06-.784-.075-1.569-.24-2.339-.075-.392-.12-.785-.21-1.162l-.329-1.132c-.135-.574-.39-1.117-.629-1.645-.195-.559-.51-1.057-.839-1.525-1.633-2.369-3.67-4.211-5.947-5.871-1.258-.951-2.786-1.524-4.253-2.083-3.131-1.162-6.471-1.615-9.811-1.509-.914.045-1.828.09-2.711.287-.45.09-.899.166-1.349.286a23.09 23.09 0 0 0-1.318.453c-.958.332-1.902.77-2.876 1.132-.943.453-1.917.815-2.816 1.359-2.845 1.494-5.062 3.879-6.29 6.55-.495 1.117-.39 1.147.524 1.419 1.453-1.374 3.04-2.46 4.793-3.577 3.056-1.887 6.575-2.883 10.08-3.215l.929-.106.929-.06c.614-.045 1.243-.091 1.857-.061 2.681.031 5.317.483 7.639 1.419.584.196 1.079.528 1.633.755 3.011 1.328 5.302 3.683 6.366 6.852.749 2.309.824 4.89.329 7.381-.284 1.252-.599 2.535-1.168 3.728-.225.498-.449 1.011-.749 1.464-.285.468-.554.951-.899 1.388-.389.514-.764 1.012-1.198 1.48a22.41 22.41 0 0 1-5.797 5.01 18.943 18.943 0 0 1-5.452 2.219c-.494.121-1.033.091-1.528.091-3.43-.257-6.321-.8-9.092-2.068-1.303-.619-2.456-1.615-3.475-2.792-.329-.438-.719-.861-.883-1.389-.704-1.947-1.483-3.652-1.798-5.464-.12-.498-.06-.996-.09-1.494.015-.272.03-.558.03-.83.03-.272.045-.543-.015-.77-.105-.422 0-.8.09-1.192.165-.362.345-.725.629-1.057.794-1.011 1.783-1.916 2.936-2.535a59.473 59.473 0 0 1 3.445-1.66 45.107 45.107 0 0 1 3.565-1.268c1.887-.529 3.894-.242 5.722.437 3.879 1.359 7.849 5.992 4.718 8.754-.539.574-1.168 1.223-1.947 1.676-1.543.86-3.4 1.298-5.213 1.283-1.033-.03-1.977-.227-3.07-.091z" fill="#D7EAF2"/><path opacity=".5" fill-rule="evenodd" clip-rule="evenodd" d="M234.648 275.399c-.718.537-1.369 1.164-2.417.066-.039.98-.121 1.476-.092 1.985.293 3.908-.492 7.975-.87 12.515a32.915 32.915 0 0 0-.019 5.155c.046.893.202 1.799.359 2.705l.392 1.705c.167.623.38 1.256.627 1.857.776 2.012 1.726 3.869 2.864 5.783.088.171.201.27.325.409l3.972-1.495 1.995-.837 1.904-.854c1.873-.89 3.703-1.618 5.655-1.968 1.087-.205 2.104-.672 3.092-1.087 1.338-.553 2.622-1.069 3.863-1.66l.401-.194c.055-.036.055-.036.09-.067.034-.031.13-.078.144-.103.035-.031.081-.022.067.089-.031.203-.107.244-.007.132.099-.113.358-.269.53-.272.04-.01.086-.001.137.028.122.054.231.219.335.449-.002 1.035-.005 2.393.176 3.551.463 3.173.252 6.246.977 9.435.36 1.584.972 3.144 1.82 4.619l.322.56.426.705c.295.459.631.908.961 1.337l1.026 1.255c.512.142 1.048.214 1.555.337l1.215.192.693.094c.02-.005.203.032.086-.001l-.248-.042c-.111-.013.045.01.045.01l.491.062.961.13c.188.058.278-.009.362-.097l.29-.206.578-.414 1.122-.796c1.083-.786 2.045-1.453 3.223-1.963.717-.3 1.293-.885 1.946-1.34l2.94-1.973c.729-.497 1.483-.979 2.124-1.56a17.495 17.495 0 0 1 2.557-1.956c.464-.276.909-.546 1.41-.766.231-.105.501-.221.737-.305.196-.074.376-.123.563-.151.8-.15 1.535-.541 2.235-.664l.246-.044c.37.655.532 1.581.69 2.25l.163 1.012.372 1.71c.275 1.349.585 2.666 1.193 3.969.665 1.437 1.03 3.042 1.456 4.63.631 2.438 1.815 4.685 3.398 6.652.67.812.745.77 1.89.14.066-1.763.078-3.49-.215-5.307-.523-3.157-.659-6.396-1.189-9.744-.207-1.173-.519-2.339-.837-3.525a16.383 16.383 0 0 0-.257-.879l-.431-1.285a39.623 39.623 0 0 0-1.016-2.508 130.822 130.822 0 0 0-2.388-4.811l-2.158.793c-.978.37-1.992.685-2.989 1.146l-2.077 1.009c-.346.157-.686.335-1.007.507l-.634.364c-.765.442-1.51.878-2.249 1.335-1.485.893-2.912 1.836-4.345 2.759l-6.218 3.971-1.532 1.036-.385.254-.184.114-.055.036-.215.165c-.029.051-.19.094-.119.118l.223.027.111.013.046.009s.136.028-.268-.035l-.476-.088-.046-.01-.117-.033-.045-.009.698.114-.025-.015-.097-.038c-.191.008-.196-.25-.309-.349l-.134-.179c-.067-.09-.062-.07-.197-.335a13.697 13.697 0 0 1-.602-1.282c-.369-.893-.647-1.852-.871-2.848-.329-1.55-.422-3.184-.364-4.816.013-.434.177-.866.367-1.283a43.208 43.208 0 0 0 1.2-3.08l.914-3.261c.453-1.285.906-2.57 1.379-3.86a31.9 31.9 0 0 0-1.566-2.468l-1.088-1.325c-.185-.208-.372-.503-.535-.632a2.26 2.26 0 0 0-.541-.329c-.765-.441-1.963-.573-3.306-.278-.926.162-1.896.401-2.749.435-.827.049-1.718.18-2.588.392-.869.211-1.663.467-2.496.734-1.073.416-1.973.916-2.898 1.487-.499.306-1.04.537-1.494.853-.509.352-1.135.67-1.415 1.155-.555.903-1.281 1.248-2.109 1.534-1.245.42-2.448.915-3.679 1.223-.563.151-1.12.322-1.647.528l-.486.195c-.075.041-.15.083-.246.13-.314.192-.652.541-1.213 1.101l-.133.143c-.041.011-.066-.004-.106.007-.763-.032-1.262-1.17-1.51-2.095-.966-3.447-.67-7.405-.517-11.497.032-.848-.235-1.682-.275-2.555-.104-1.674-.233-3.363-.489-5.04-.142-.932-.249-1.894-1.149-2.601z" fill="#D6EBF3"/></svg>