<svg width="349" height="469" fill="none" xmlns="http://www.w3.org/2000/svg"><path d="M376.329 36.266c-16.893 15.827-44.367-.148-50.708 34.06-.223 1.216-.39 2.48-.195 3.696 1.924 11.885 16.131 17.276 22.397 24.581 22.509 26.215 14.095 77.305-12.997 91.512-33.35 17.496-72.938-4.58-109.328 1.67-7.308 1.252-14.802 3.892-19.887 9.957-5.086 6.066-6.871 16.294-2.343 22.986 2.268 3.364 5.736 5.402 9.186 7.035 16.688 7.907 35.181 8.755 52.771 13.408 19.134 5.047 43.968 17.976 52.465 43.822 12.31 37.462-13.629 66.733-37.356 79.589-21.403 11.591-45.511 14.906-69.182 17.472-44.274 4.777-93.346 10.019-137.118-2.922-28.84-8.534-58.09-17.03-69.646-56.874-7.903-27.246-4.844-59.759 6.87-84.304 11.083-23.243 28.683-39.77 47.929-49.47 18.65-9.405 38.658-18.245 58.322-22.874 28.664-6.741 60.814-2.1 86.14-24.349 40.834-35.865-22.825-53.534-43.837-57.29-30.226-5.416-61.27-2.678-91.31-8.743-8.841-1.793-20.417-5.685-30.802-12.119-16.056-9.958-29.277-26.03-25.168-49.9C13.63 10.825 16.075 5.25 19.338.425H382.93a28.31 28.31 0 0 1 3.05 9.307c1.431 9.92-2.864 20.161-9.651 26.534z" fill="#E6F2F8"/><path d="M302.094 338.646s-2.157 8.214-6.759 18.938c-6.285 14.635-17.116 33.954-33.247 43.535-48.997 29.094-134.652 19.514-169.359 0-34.707-19.514-43.576-62.473-43.576-62.473h252.941z" fill="#E1F2FA"/><path d="M302.094 338.646s-2.157 8.214-6.759 18.938c-6.573 11.931-15.684 24.216-27.622 31.306-50.289 29.866-138.204 20.025-173.831 0-22.843-12.842-34.781-35.581-40.406-50.244h248.618z" fill="#EBF7FC"/><path d="M304.856 324.921c0 4.711-.949 9.292-2.762 13.725-12.291 30.107-64.253 52.716-126.47 52.716-62.218 0-114.17-22.609-126.462-52.716-1.813-4.433-2.761-9.023-2.761-13.725 0-36.696 57.857-66.441 129.223-66.441 71.365 0 129.232 29.745 129.232 66.441z" fill="#F5FCFF"/><path d="M295.605 324.772c0 4.098-.884 8.094-2.566 11.95-11.408 26.214-59.633 45.896-117.369 45.896S69.718 362.936 58.31 336.722c-1.682-3.856-2.565-7.852-2.565-11.95 0-31.947 53.691-57.845 119.925-57.845s119.935 25.898 119.935 57.845z" fill="#E1F2FA"/><path d="M293.039 336.722c-11.408 26.214-59.633 45.895-117.369 45.895S69.718 362.936 58.31 336.722c11.408-26.214 59.624-45.895 117.36-45.895s105.961 19.681 117.369 45.895z" fill="#EBF7FC"/><path d="M258.741 393.62l46.115 32.941 13.946-14.078-41.838-38.312s-16.735 3.41-18.223 19.449z" fill="#E2F2FA"/><path d="M320.085 405.626s62.505 44.724 47.537 60.466c-14.969 15.741-69.284-37.551-69.284-37.551s2.566-19.607 21.747-22.915z" fill="#E1F0F8"/><path opacity=".3" d="M309.811 414.593l57.02 49.873s4.026-8.67-7.28-21.066c-11.314-12.387-39.671-35.618-39.671-35.618s-9.604 4.646-10.069 6.811zm-42.609-31.976l34.892 29.188s2.297-4.005 6.945-6.189l-31.61-27.961s-9.298 1.794-10.227 4.962z" fill="#fff"/><path opacity=".1" d="M90.089 377.655s10.227 5.808 14.876 6.737l1.236 19.514s-10.227-3.41-14.876-6.811l-1.236-19.44zm20.454 8.364l1.162 19.597s28.124 9.441 44.395 8.977v-21.605s-25.28-1.385-45.557-6.969z" fill="#fff"/><path d="M87.86 206.331c-1.692.176-3.515 1.756-4.686 2.546a30.371 30.371 0 0 1-6.675 3.354c.623 1.227 2.324 2.063 3.644 2.453 1.32.391 2.733.372 4.1.205.67-.084 1.348-.195 1.971-.474 2.027-.901 5.876-5.25 3.663-7.406a2.452 2.452 0 0 0-2.017-.678zM293.636 53.108c-1.655.371-3.282 2.156-4.36 3.075a30.305 30.305 0 0 1-6.239 4.108c.762 1.143 2.548 1.784 3.905 2.016 1.357.232 2.752.056 4.091-.27.66-.157 1.32-.352 1.896-.696 1.906-1.134 5.235-5.901 2.78-7.778-.66-.52-1.366-.613-2.073-.455zm-.586 23.119c-1.654 1.134-2.659 3.792-3.44 5.27a35.671 35.671 0 0 1-5.048 7.229c1.339.92 3.57.836 5.16.51 1.59-.334 3.04-1.142 4.37-2.08.651-.456 1.292-.958 1.776-1.59 1.599-2.072 3.151-8.753-.354-9.748-.948-.278-1.766-.074-2.464.41zM103.981 213.811a6041.051 6041.051 0 0 0-6.424 3.661c-1.255.716-2.53 1.44-3.487 2.518-.976 1.097-2.045 3.151-.344 4.219 1.72 1.078 4.695-.595 6.127-1.533 1.432-.939 2.826-1.979 3.747-3.429 1.776-2.788.084-5.269.381-5.436zM192.086 71.46a25.944 25.944 0 0 1-12.83-8.595c-.856-1.06-1.646-2.276-1.693-3.633a16.482 16.482 0 0 0 5.012-3.54c3.226 3.642 8.432 6.105 13.239 5.315-.474 3.763-1.478 7.415-3.728 10.454zm-18.437 3.885c-1.45-1.31-1.99-3.633-2.65-5.473a6.272 6.272 0 0 1-3.793 1.84c.651 2.76 2.278 5.417 4.816 6.681.028-1.04.818-2.397 1.627-3.048zm113.064 60.745c1.311-1.45 1.618-3.81 2.083-5.715a6.27 6.27 0 0 0 3.951 1.45c-.372 2.806-1.72 5.621-4.119 7.127-.121-1.022-1.041-2.295-1.915-2.862zm-164.459 12.201l-3.608-6.728s-4.453 12.387-17.079 13.641l3.701 4.814c0-.009 10.645-1.013 16.986-11.727zm41.679-131.99l-3.384-3.503s-.576 8.382-8.098 11.355l3.115 2.314c-.01-.01 6.35-2.48 8.367-10.166zm-28.737 165.712l2.445-5.371s-9.707 3.076-16.382-4.098l-1.227 4.535s5.597 6.068 15.164 4.934zm142.88-63.226l-4.769-3.475s9.966-2.072 12.272-11.597l3.291 3.345c.009 0-1.896 8.029-10.794 11.727z" fill="#D6EBF3"/><path d="M184.457 256.528c-.154-2.741-1.191-3.487-3.464-4.898l-7.592-4.731c-3.895-2.422-7.79-5.077-11.931-7.139.823-1.909 1.375-3.97.439-5.973-1.112-2.377-3.929-3.734-6.411-2.574-2.064.961-3.088 3.263-3.056 5.455.004.096.005.283.015.515-1.742.547-3.175 1.859-3.578 3.976-.422 2.225.815 4.294 3.223 4.443 1.743.108 3.508-.115 4.928-.951 3.904 3.136 8.379 5.64 12.607 8.27l7.007 4.365c2.419 1.505 3.718 2.491 6.514 1.312.738-.302 1.343-1.275 1.299-2.07z" fill="#fff"/><path d="M235.661 267.939c11.707 4.236 25.231 9.337 29.056 21.179 2.899 8.972-1.218 18.962-7.644 25.869-3.46 3.712-7.648 6.842-12.452 8.483-23.765 8.129-41.986-19.555-51.333-36.704-5.5-10.089-11.325-20.36-20.221-27.631-1.653-1.347-3.573-2.937-3.475-5.068.115-2.497 2.826-2.17 4.023-1.183-4.565-17.374 14.363-6.406 20.613-3.138a337.799 337.799 0 0 0 41.433 18.193z" fill="#D6EBF3"/><path opacity=".3" d="M216.611 270.46c-2.595-.748-5.315-1.438-7.984-1.009-2.673.435-5.293 2.293-5.778 4.959-.291 1.599.215 3.225.716 4.77 2.077 6.461 4.178 12.965 7.504 18.882 3.329 5.91 8.013 11.254 14.117 14.226 1.722.838 3.553 1.484 5.439 1.792 4.106.679 8.313-.235 12.302-1.443 2.716-.825 5.431-1.806 7.743-3.454 8.357-5.934 8.315-18.611.886-25.228-8.537-7.595-24.26-10.426-34.945-13.495z" fill="#fff"/><path d="M232.459 297.712c3.852 1.082 7.023 4.35 4.669 8.751-1.01 1.88-3.403 2.698-5.514 2.402-2.664-.372-4.939-2.189-6.489-4.386-1.04-1.473-1.777-3.541-.732-5.005.511-.71 1.335-1.114 2.127-1.489 1.69-.801 3.909-.837 5.939-.273zm15.305 1.234c.367-.615.555-1.466.361-2.17l-.256-.69a2.875 2.875 0 0 0-.846-.972 4.051 4.051 0 0 0-2.608-.973c-.875-.231-1.818.016-2.533.524a3.029 3.029 0 0 0-1.296 2.079c-.161 1.006.127 1.869.772 2.648.621.751 1.546 1.196 2.488 1.346.561.088.948.122 1.546-.004.697-.152 1.528-.599 1.96-1.219.155-.19.302-.378.412-.569zm-1.789 6.197c.008.074.012.139.02.213a1.334 1.334 0 0 0-.158-.583l.006.003a1.68 1.68 0 0 0-.409-.592c-.006-.003-.003-.009-.009-.012l.012.006c-.006-.003-.015-.016-.021-.019-.685-.808-1.859-1.019-2.772-.374-.973.684-1.221 2.189-.342 3.07.354.36.661.515 1.109.699 1.393.561 2.993-1.021 2.564-2.411z" fill="#D7ECF4"/><path d="M159.046 234.224c.299-.387.236-.912-.182-1.196-.133-.086-.231-.224-.368-.305-.218-.131-.487-.197-.73-.24-.499-.086-.977.034-1.435.251-.16.079-.289.19-.391.322-.535.433-.855 1.121-.506 1.798.391.745 1.263.952 2.027.719.354-.108.767-.255 1.051-.51.265-.233.405-.525.534-.839zm2.116 2.63c.099-.259.116-.57.024-.837-.341-.969-1.686-.686-1.58.33-.121.404-.018.825.418 1.018.48.224.956-.038 1.138-.511z" fill="#F5F5F5"/><path d="M264.739 64.352c-1.813 3.512-4.919 6.532-9.651 8.725-33.145 15.389-40.871-39.214-29.361-53.822a10.578 10.578 0 0 1 2.037-1.997c14.141-10.39 47.462 26.697 36.975 47.094z" fill="#E2F1F7"/><path d="M264.739 64.352c-1.86 2.443-4.5 4.562-8.061 6.216-31.471 14.608-40.025-33.88-30.95-51.313a10.545 10.545 0 0 1 2.036-1.998c14.141-10.389 47.462 26.698 36.975 47.094z" fill="#fff"/><path d="M258.9 56.899c-1.088 6.82-9.632 11.439-16.084 9.831-4.082-1.013-7.68-4.014-9.325-7.824a11.387 11.387 0 0 1-.902-3.642c-.567-7.379 6.471-11.755 13.155-11.746 3.794.01 7.875 1.97 10.497 4.98 2.017 2.314 3.161 5.242 2.659 8.401z" fill="#D6EBF3"/><path d="M256.845 53.61c-1.088 6.82-9.632 11.438-16.093 9.83-2.808-.696-5.383-2.34-7.261-4.534a11.386 11.386 0 0 1-.902-3.642c-.567-7.379 6.471-11.755 13.155-11.746 3.794.01 7.875 1.97 10.497 4.98.641 1.58.892 3.309.604 5.111z" fill="#E1F2FA"/><path opacity=".4" d="M243.076 48.778c-.521-2.435-3.505-2.751-5.141-1.357-2.501 2.128-4.816 8.252-1.125 10.407 2.082 1.218 4.946-.446 5.922-2.332 1.023-2.007.8-4.59.344-6.718z" fill="#fff"/><path d="M67.72 274.369c6.45 14.566 18.541 25.733 30.31 36.467 4.665 4.251 9.783 9.64 15.675 12.126 1.132-2.192-7.761-10.05-9.481-11.925a690.155 690.155 0 0 0-11.771-12.466 659.053 659.053 0 0 0-24.733-24.202z" fill="#CAE4EE"/><path d="M95.512 302.053c-4.544-8.6-8.046-17.82-13.843-25.628 14.458 12.737 26.345 27.699 34.849 45.865-3.349-.849-5.772-1.342-8.45-3.586-5.375-4.494-9.317-10.505-12.556-16.651z" fill="#CAE4EE"/><path d="M77.911 301.867c4.924 5.413 10.447 10.352 16.781 14.016 4.139 2.388 17.246 9.286 21.816 6.41-4.791-4.434-13.618-8.385-19.402-11.409a238.197 238.197 0 0 0-19.195-9.017z" fill="#CAE4EE"/><path d="M136.186 323.609c2.753 11.166-11.692 21.071-21.263 20.074-4.15-.425-7.384-2.899-7.919-8.188-.527-5.252.716-10.763 3.943-14.931 3.224-4.178 8.508-6.841 13.771-6.377.02.005.047-.001.067.005 5.231.49 10.146 4.316 11.401 9.417z" fill="#fff"/><path d="M136.186 323.608c2.753 11.167-11.692 21.071-21.262 20.074.256-.218.567-.449.943-.684 3.915-2.437 8.008-3.77 11.282-7.254 3.837-4.075 5.808-10.47 3.161-15.406-1.304-2.444-3.522-4.2-5.524-6.147 5.231.491 10.144 4.316 11.4 9.417zm-25.392 13.315c.314.34.67.661 1.099.833.638.259 1.371.173 2.022-.066 1.761-.646 3.021-2.391 3.265-4.253.244-1.863-.458-3.783-1.697-5.203-1.674-1.924-4.911-2.398-6.074.257-1.126 2.562-.484 6.399 1.385 8.432zm6.956-15.005c-.57-.551-1.365-.66-2.102-.459-.529.145-1.178.441-1.539.873-.461.54-.644 1.39-.218 2.019.002.009.013.017.013.017.274.805.993 1.342 1.907 1.387.836.034 1.688-.287 2.183-.978.627-.862.53-2.116-.244-2.859zm.059 4.174c-.045.01-.149.014-.213.028 0 0-.061.023-.13.057a2.051 2.051 0 0 0-.315.127c-.016.013-.023.024-.041.028l-.009.002c-.016.013-.023.025-.041.029-.049.039-.099.069-.139.106a1.301 1.301 0 0 0-.251 1.656c.004.018.015.025.019.043a.57.57 0 0 0 .069.099c.181.255.444.454.749.539.163.05.343.048.52.028.02.005.04.01.049.008.841.014 1.449-.768 1.328-1.569-.082-.754-.837-1.282-1.595-1.181z" fill="#E2F1F7"/><path d="M128.372 337.012c.529 1.054 2.474.462 3.477.564 1.421.143 2.681 1.273 2.989 2.661.264 1.189-.052 2.639.83 3.482.82.78 2.158.503 3.207.081-1.034.19-2.16-.379-2.608-1.327-.463-.974-.232-2.119-.271-3.196-.063-1.614-.811-3.228-2.138-4.144-1.328-.925-5.826-1.244-5.61 1.402.013.188.058.349.124.477z" fill="#E2F1F7"/><path d="M133.528 326.174c-.236.652-.108 1.357-.174 2.047a11.16 11.16 0 0 1-.689 2.903c-.653 1.734-1.737 3.069-2.971 4.417-.267.297.109.833.461.574 1.544-1.151 2.653-2.89 3.343-4.67.55-1.426 1.322-3.91.563-5.36-.129-.238-.457-.128-.533.089zm-.943-5.12c-.091-.113-.265-.123-.394-.104l-.1.022c-.081.018-.133.087-.155.158-.156.501.372.861.613 1.264.35.59.581 1.243.712 1.919.101.501.833.282.752-.214-.188-1.149-.687-2.152-1.428-3.045z" fill="#fff"/><path d="M200.011 356.222c-4.641 1.814-10.037 1.209-14.482-1.031-4.273-2.152-7.145-5.693-9.664-9.732-.105-.165-.216-.334-.316-.504.175-.106.362-.212.532-.312a35.604 35.604 0 0 1 17.994-4.719c6.035.064 11.946 1.657 17.769 3.245-2.286 5.649-6.556 10.986-11.833 13.053z" fill="#D6EBF3"/><path d="M200.011 356.222c-4.641 1.814-10.037 1.209-14.482-1.031-4.273-2.152-7.145-5.693-9.664-9.732-.105-.165-.216-.334-.316-.504 21.054 10.769 36.295-1.786 36.295-1.786-2.286 5.649-6.556 10.986-11.833 13.053z" fill="#C2DEE9"/><path d="M199.152 348.975c-4.666 1.469-10.23 1.176-14.939.162-4.138-.891-8.424-2.524-11.922-5.05-.09-.173-.185-.351-.27-.53.185-.089.38-.179.559-.263 3.735 2.321 7.569 4.16 11.965 5.073a33.59 33.59 0 0 0 7.493.705c2.37-.041 4.616-.483 6.943-.84.427-.051.572.609.171.743z" fill="#A3D1E2"/><path d="M196.368 141.15c4.34 2.583 7.21 7.275 8.18 12.222.932 4.756-.119 9.255-1.789 13.783-.067.186-.133.38-.207.566-.194-.074-.396-.157-.582-.231a36.06 36.06 0 0 1-14.971-11.454c-3.701-4.866-6.101-10.584-8.45-16.228 5.948-1.687 12.881-1.592 17.819 1.342z" fill="#D6EBF3"/><path d="M196.368 141.15c4.34 2.583 7.21 7.275 8.18 12.222.932 4.756-.119 9.255-1.789 13.783-.067.186-.133.38-.207.566-4.463-23.536-24.003-27.913-24.003-27.913 5.948-1.687 12.881-1.592 17.819 1.342z" fill="#C2DEE9"/><path d="M191.095 146.344c4.079 2.817 7.305 7.45 9.421 11.846 1.859 3.863 3.216 8.306 3.367 12.675-.082.18-.166.367-.257.545-.186-.091-.379-.192-.558-.282-.462-4.431-1.374-8.641-3.376-12.725a33.99 33.99 0 0 0-4.095-6.431c-1.507-1.869-3.258-3.391-4.991-5.03-.306-.309.132-.835.489-.598z" fill="#A3D1E2"/><path d="M302.809 27.34c-3.338.578-6.851-.557-9.509-2.652-2.555-2.013-3.988-4.762-5.119-7.795-.047-.123-.098-.251-.142-.378.131-.047.27-.093.397-.136a24.216 24.216 0 0 1 12.629-.703c4.012.861 7.734 2.724 11.398 4.571-2.289 3.454-5.858 6.43-9.654 7.092z" fill="#D6EBF3"/><path d="M302.809 27.34c-3.338.578-6.851-.557-9.509-2.652-2.555-2.013-3.988-4.762-5.119-7.795-.047-.123-.098-.251-.142-.378 12.567 10.03 24.424 3.732 24.424 3.732-2.289 3.454-5.858 6.43-9.654 7.092z" fill="#C2DEE9"/><path d="M303.219 22.397c-3.307.346-6.975-.604-9.975-1.918-2.635-1.155-5.269-2.824-7.257-4.981-.037-.128-.076-.26-.108-.39.135-.035.277-.068.408-.1 2.173 2.053 4.478 3.798 7.283 5.003a22.834 22.834 0 0 0 4.897 1.486c1.584.294 3.141.304 4.739.382.291.024.299.483.013.518z" fill="#A3D1E2"/><path d="M143.436 89.065c-3.805-2.383-7.197-5.655-10.527-8.888-5.683-5.514-11.372-11.016-17.055-16.53-13.351-12.932-26.8-25.988-38.005-40.991-3.368-4.511-7.436-7.845-10-12.796 28.84 21.564 54.246 49.113 75.587 79.205z" fill="#CAE4EE"/><path d="M148.416 94.165a414.803 414.803 0 0 0-28.033-22.134c-4.433-3.195-8.964-6.329-13.99-8.47-5.331-2.265-11.077-3.348-16.586-5.144-9.737-3.171-18.603-8.515-27.369-13.823 8.465-2.643 17.236-1.875 25.58 1.135 8.345 3.01 15.881 7.88 23.124 12.992 4.009 2.826 7.962 5.748 11.482 9.173 2.002 1.956 23.449 20.387 25.792 26.271z" fill="#CAE4EE"/><path d="M131.127 80.044s3.345-.478 4.011-2.29c0 0 19.902 18.347 20.212 24.358.311 6.011-3.932 4.26-4.965.873-1.043-3.385-13.361-18.474-19.258-22.94z" fill="#fff"/><path d="M271.922 152.475c.419-2.296 2.259-7.787 4.426-8.652-.595 6.208-2.464 15.231-3.357 21.401a242.21 242.21 0 0 1 4.984-15.426c1.348-3.744 2.882-7.582 5.764-10.324a92.072 92.072 0 0 1-7.494 26.558 111.753 111.753 0 0 1 10.218-12.591c.669.204-10.441 20.22-14.429 19.505-5.616-.994-.725-17.117-.112-20.471z" fill="#CAE4EE"/><path d="M277.733 182.628c-1.041 4.739-5.811 7.797-9.874 10.454-11.798 7.704-30.95 8.28-42.126 16.857.837-4.535 4.082-8.289 7.736-11.105 3.654-2.825 7.8-4.953 11.482-7.74 5.058-3.829 9.502-8.503 12.477-14.069 4.081-7.648 13.118-9.646 17.804-5.603 2.427 2.09 3.691 5.798 2.501 11.206z" fill="#fff"/><path d="M277.733 182.628c-1.041 4.739-5.811 7.797-9.874 10.454-11.798 7.704-30.95 8.28-42.126 16.857 0 0 6.908-8.986 22.044-14.032 13.928-4.637 30.532-16.299 27.455-24.495 2.427 2.1 3.691 5.808 2.501 11.216z" fill="#E6F4FA"/><path d="M247.517 189.4c-.539-.242-1.013.567-.465.808 1.339.595 1.943 1.323 2.166 2.763.093.585.995.344.902-.242-.27-1.654-1.078-2.651-2.603-3.329zm3.136-3.132c-.539-.232-1.013.567-.465.809 1.581.688 1.811 1.238 2.536 2.8.251.539 1.05.065.799-.474-.79-1.682-1.169-2.391-2.87-3.135zm6.552-1.371a5.55 5.55 0 0 0-3.44-2.445c-.586-.139-.828.762-.242.902 1.2.279 2.213.976 2.882 2.017.316.502 1.116.037.8-.474zm2.845-4.461a3.871 3.871 0 0 0-3.18-1.98c-.595-.037-.604.893-.009.93 1.013.056 1.896.641 2.389 1.525.288.52 1.088.046.8-.475zm-16.689 12.278c-.353-.474-1.162-.009-.799.474.511.67.771 1.187.799 2.033.019.595.948.604.93.009-.037-1.004-.325-1.716-.93-2.516z" fill="#E2F1F7"/></svg>