<svg width="322" height="516" fill="none" xmlns="http://www.w3.org/2000/svg"><path d="M363.534-31.116c-11.993 12.269-32.825 1.3-36.428 26.86-.126.907-.21 1.85-.027 2.745 1.802 8.75 12.483 12.295 17.351 17.511 17.485 18.719 12.886 56.86-6.704 68.251-24.115 14.03-54.103-1.08-80.824 4.709-5.366 1.16-10.826 3.355-14.395 8.013-3.569 4.658-4.564 12.296-1.002 17.113 1.785 2.422 4.415 3.823 7.019 4.924 12.597 5.332 26.304 5.373 39.465 8.265 14.315 3.133 33.097 11.929 40.206 30.82 10.298 27.379-7.96 49.902-25.104 60.185-15.464 9.272-33.192 12.495-50.622 15.149-32.6 4.946-68.735 10.39-101.527 2.186-21.607-5.41-43.515-10.781-53.331-39.95-6.713-19.947-5.485-44.146 2.401-62.713 7.459-17.583 19.953-30.393 33.881-38.194 13.498-7.565 28.018-14.753 42.417-18.809 20.99-5.907 44.922-3.487 62.949-20.784 29.067-27.883-18.588-38.96-34.251-41.079-22.532-3.054-45.41-.04-67.826-3.582-6.598-1.048-15.284-3.566-23.172-8.006-12.194-6.872-22.486-18.367-20.205-36.192.608-4.768 2.24-8.978 4.5-12.659l268.973-11.541a21.06 21.06 0 0 1 2.552 6.802c1.374 7.31-1.478 15.037-6.296 19.976z" fill="#E6F2F8"/><path opacity=".2" d="M226.998 233c68.704 0 124.399-22.153 124.399-49.48 0-27.327-55.695-49.479-124.399-49.479-68.704 0-124.399 22.152-124.399 49.479 0 27.327 55.695 49.48 124.399 49.48z" fill="#BFE3F2"/><path d="M198.134 226.662c40.054 0 72.523-11.994 72.523-26.79s-32.469-26.79-72.523-26.79c-40.053 0-72.522 11.994-72.522 26.79s32.469 26.79 72.522 26.79z" fill="#D3E9F3"/><path d="M212.845 141.564H79.602s3.4 48.819 56.578 70.254c5.039 2.847 16.317 4.61 30.216 5.491 23.132-19.707 40.294-45.735 46.449-75.745z" fill="#F6FBFC"/><path d="M212.845 141.564c-6.138 30.027-23.317 56.038-46.432 75.745 9.706.61 20.697.796 31.738.61 26.886.44 53.399-1.254 61.955-6.1 53.195-21.453 56.577-70.255 56.577-70.255H212.845z" fill="#E1F2FA"/><path d="M198.135 200.144c79.051 0 143.134-23.898 143.134-53.378 0-29.479-64.083-53.377-143.134-53.377C119.084 93.39 55 117.287 55 146.766c0 29.48 64.084 53.378 143.135 53.378z" fill="#CAE4EE"/><path d="M198.135 196.754c79.051 0 143.134-23.897 143.134-53.377 0-29.479-64.083-53.377-143.134-53.377C119.084 90 55 113.898 55 143.377c0 29.48 64.084 53.377 143.135 53.377z" fill="#E0EFF5"/><path d="M187.025 189.637c71.674 0 129.777-21.25 129.777-47.463s-58.103-47.463-129.777-47.463c-71.673 0-129.776 21.25-129.776 47.463s58.103 47.463 129.776 47.463z" fill="#fff"/><path d="M198.134 184.486c65.539 0 118.668-18.61 118.668-41.566 0-22.957-53.129-41.567-118.668-41.567-65.538 0-118.667 18.61-118.667 41.567 0 22.956 53.129 41.566 118.667 41.566z" fill="#DAEEF5"/><path d="M198.135 183.52c60.215 0 109.029-17.1 109.029-38.194s-48.814-38.194-109.029-38.194c-60.216 0-109.03 17.1-109.03 38.194s48.814 38.194 109.03 38.194z" fill="#E2F1F7"/><path d="M233.237 170.862c-66.604.017-73.706-.017-73.706-5.931 0-2.592 6.51-8.371-20.798-8.371-27.19 0-18.211-8.404-17.636-11.98-3.297-2.643-10.788-3.219-10.788-9.065 0-15.844 91.934-20.419 103.754-20.419 5.664 0 11.261.864 14.778 4.236-.22 2.762-1.437 1.305-5.512 6.236 1.048 7.896 45.333-.61 51.995 7.218-.406 3.051-12.834 1.034-18.904 4.338 2.282 5.965 32.499-1.66 32.499 12.828 0 11.556-31.806 20.893-55.682 20.91z" fill="#D7EAF1"/><path d="M244.702 153.409c2.536-1.847 1.166-2.339 5.106-2.339s5.698 2.491 5.698 2.491l-3.906 3.745s-9.435-2.033-6.898-3.897z" fill="#F8FDFF"/><path d="M152.091 160.594c3.145-.305 6.003-1.813 9.3-1.813 3.01 1.813 3.906 4.507 3.906 4.507s-7.204 1.813-10.213 1.813c-2.993-1.796-2.993-4.507-2.993-4.507z" fill="#ABCEDB"/><path d="M225.002 148.867c3.146-.305 6.003-1.813 9.3-1.813 3.01 1.813 3.906 4.508 3.906 4.508s-7.203 1.813-10.213 1.813c-2.993-1.796-2.993-4.508-2.993-4.508zm-77.003 19.03c-2.503-.237-4.752-1.424-7.372-1.424-2.385 1.424-3.095 3.576-3.095 3.576s5.715 1.423 8.083 1.423c2.384-1.423 2.384-3.575 2.384-3.575z" fill="#BDDBE7"/><path d="M217.207 142.293c-2.502-.237-4.751-1.424-7.372-1.424-2.384 1.424-3.094 3.576-3.094 3.576s5.715 1.423 8.082 1.423c2.384-1.423 2.384-3.575 2.384-3.575zm24.873-20.453c-2.502-.237-4.751-1.423-7.372-1.423-2.384 1.423-3.094 3.575-3.094 3.575s5.715 1.423 8.082 1.423c2.384-1.44 2.384-3.575 2.384-3.575zm-102.857 26.35c-2.503-.238-4.751-1.424-7.372-1.424-2.384 1.424-3.095 3.576-3.095 3.576s5.716 1.423 8.083 1.423c2.384-1.423 2.384-3.575 2.384-3.575z" fill="#ABCEDB"/><path d="M225.002 170.117c3.146-.305 6.003-1.814 9.3-1.814 3.01 1.814 3.906 4.508 3.906 4.508s-7.203 1.813-10.213 1.813c-2.993-1.796-2.993-4.507-2.993-4.507z" fill="#BDDBE7"/><path d="M195.175 165.101c0-1.051 6.002-2.898 9.604-2.898 3.602 0 5.107 3.152 5.107 3.152l-10.805 3.609-3.906-3.863z" fill="#ABCEDB"/><path d="M193.687 157.509c0 1.271-6.595 2.441-9.503 2.796-2.908.356-4.447-2.033-4.447-2.033s6.053-2.898 8.37-2.813c1.606.085 5.58 2.05 5.58 2.05z" fill="#BDDBE7"/><path d="M248.506 134.311c0 1.271-6.595 2.441-9.503 2.796-2.909.373-4.447-2.033-4.447-2.033s6.053-2.898 8.37-2.813c1.606.068 5.58 2.05 5.58 2.05zm-79.185 13.065c0 1.271-6.594 2.44-9.503 2.796-2.908.373-4.447-2.033-4.447-2.033s6.054-2.898 8.37-2.813c1.606.068 5.58 2.05 5.58 2.05z" fill="#F8FDFF"/><path d="M218.053 135.108c-.626-6.202-7.423-5.575-13.493-5.575-14.948 0-4.853-6.134-4.853-8.439 0-3.016-7.271-5.642-14.796-5.642-42.018 0-43.337 7.862-62.478 7.862-24.924 0-41.022 6.744-37.792 13.912 1.116 2.474 4.802 1.44 6.409 3.508-.102 2.592-5.26 2.779-5.26 6.676 0 9.218 33.87 15.522 29.625 7.032-1.217-2.423-8.556-1.169-7.49-4.778 2.587-1.169 14.322-.695 14.017-3.897-.456-4.745-13.983-1.458-13.983-9.168 0-7.354 22.066-3.389 27.409-3.389 14.542 0-1.048-8.388 29.371-8.388 12.242 0 5.411 3.864 5.106 5.965 3.281 3.948 9.3 2.44 14.39 2.44 4.43-.017 25.245 8.71 33.818 1.881z" fill="#fff" fill-opacity=".7"/><path d="M124.597 165.508c-20.579-1.746 7.27-14.793 9.401-3.898-2.739 3.406-5.157 4.27-9.401 3.898zm5.546-26.621c1.776-4.898 12.868.186 16.96-5.694 1.488-.796 10.771-2.288 7.609 1.864-3.416 4.524-17.197 12.234-24.569 3.83zm47.7-1.729c15.911-1.338-1.894 9.795-6.967 1.475 1.759-1.441 4.752-1.288 6.967-1.475z" fill="#F8FDFF"/><path d="M362.98 343.99c-4.324-6.138-9.04-11.571-14.147-16.409a52.348 52.348 0 0 0-2.465-4.134c-11.189-16.857-29.223-25.919-48.108-27.05-5.377-2.924-11.582-4.189-17.731-5.063-12.153-1.703-24.351-3.114-36.516-4.66-14.763-1.881-30.578-5.32-45.935-5.186-13.273-2.61-27.028.527-38.632 7.292-23.478 13.688-35.06 37.501-50.315 58.604-2.039 2.419-4.178 4.738-6.497 6.889a48.757 48.757 0 0 1-2.957 1.747c-7.012 2.162-14.27 3.147-21.54 4.391-10.64 1.826-21.035 5.141-30.478 10.506-19.288 10.955-31.822 28.933-40.055 48.994-15.692 38.229-4.267 79.807 8.816 116.916 3.091 8.759 8.008 16.286 16.219 21.092 7.56 4.424 18.705 6.306 27.184 3.562 3.708-1.199 7.281-3.047 10.518-5.377a83.35 83.35 0 0 0 4.044.594c46.283 5.757 91.994 8.546 138.299 1.456 40.805-6.239 79.281-22.861 111.383-48.769.605-.202 1.221-.393 1.826-.594 8.311-2.744 16.857-8.199 21.091-16.219 1.849-3.495 3.428-7.55 4.324-11.728 16.51-22.592 26.759-49.721 27.846-77.836.784-20.094-4.492-42.429-16.174-59.018z" fill="#E4F2F8"/><path d="M80.68 584.207c-10.91-20.643-19.31-42.507-24.822-65.212-5.018-20.688-8.602-42.777-7.37-64.126 1.12-19.568 7.751-40.436 27.151-48.848 18.18-7.885 38.991-4.301 57.585-10.786 30.646-10.686 44.647-45.756 75.002-56.397 19.479-6.833 37.815 2.621 53.171 14.169 15.895 11.951 30.479 24.362 48.445 33.278 21.932 10.876 45.891 18.684 65.38 33.906 17.664 13.788 32.315 33.86 30.848 57.226-.101 1.568 2.106.795 2.184-.403 2.801-44.76-43.045-68.394-77.578-83.807-10.697-4.771-21.428-9.554-31.565-15.468-9.722-5.679-18.414-12.669-27.185-19.68-14.774-11.818-31.519-24.923-51.547-23.758-34.622 2.005-51.401 40.526-79.493 55.434-18.919 10.036-40.963 6.071-60.844 12.512-16.959 5.488-27.309 19.422-31.375 36.347-5.544 23.13-1.87 48.646 2.823 71.575 5.388 26.322 14.606 51.737 27.163 75.483.627 1.176 2.587-.38 2.027-1.445z" fill="#fff"/><path d="M15.602 507.212c-9.409-32.752-9.129-68.64 2.733-100.754 5.97-16.14 14.976-31.183 27.062-43.493 13.586-13.834 30.68-21.988 47.526-31.072 8.109-4.368 16.107-9.05 23.219-14.942 7.158-5.926 12.926-13.061 18.549-20.42 6.015-7.863 12.053-15.972 20.05-21.965 7.83-5.869 17.048-9.51 26.636-11.268 42.049-7.695 79.012 17.854 112.772 38.968 40.626 25.404 84.994 43.18 132.217 51.659 2.05.37 3.965-3.517 1.411-3.965-44.77-8.042-87.491-24.508-126.246-48.299-34.757-21.326-70.712-47.772-113.814-43.124-18.079 1.949-33.928 10.07-45.891 23.758-6.732 7.695-12.332 16.32-19.198 23.892-7.483 8.244-16.6 14.483-26.255 19.915-16.399 9.207-33.648 16.701-47.84 29.324-12.31 10.944-22.033 24.531-29.056 39.394C2.81 430.048 1.052 471.693 11.75 508.903c.705 2.475 4.435.314 3.853-1.691z" fill="#DBEFF6"/><g clip-path="url(#clip0)"><path opacity=".2" d="M167.88 483C223.175 483 268 465.164 268 443.162c0-22.002-44.825-39.838-100.12-39.838S67.76 421.16 67.76 443.162c0 22.002 44.825 39.838 100.12 39.838z" fill="#ADCFDC"/><path d="M208.57 350.78H26c-.289 50.926 31.21 94.545 75.808 112.037 7.135-.392 14.237-1.311 21.169-2.231 52.515-5.604 87.445-57.909 85.593-109.806z" fill="#EBF7FC"/><path d="M208.57 350.78c1.852 51.897-33.079 104.202-85.61 109.806-6.915.919-14.017 1.839-21.169 2.231 13.455 5.28 28.1 8.175 43.425 8.175 66.124 0 119.607-53.94 119.233-120.229H208.57v.017z" fill="#E1F2FA"/><path d="M261.612 377.52a88.992 88.992 0 0 1-1.359 5.484c-5.929 4.139-13.354 7.954-22.121 11.378-24.838 9.657-57.832 14.971-92.916 14.971-35.066 0-68.06-5.314-92.899-14.971-8.767-3.407-16.174-7.239-22.12-11.378a103.24 103.24 0 0 1-1.36-5.484c6.117 4.905 14.442 9.453 24.771 13.472 24.448 9.504 56.966 14.716 91.608 14.716s67.16-5.229 91.608-14.716c10.347-4.019 18.672-8.567 24.788-13.472z" fill="#CAE4EE"/><path d="M145.233 392.56c65.851 0 119.233-18.706 119.233-41.78 0-23.075-53.382-41.78-119.233-41.78C79.383 309 26 327.705 26 350.78c0 23.074 53.382 41.78 119.233 41.78z" fill="#fff"/><path d="M145.287 389.099c62.566 0 113.286-17.035 113.286-38.049 0-21.015-50.72-38.05-113.286-38.05C82.72 313 32 330.035 32 351.05c0 21.014 50.72 38.049 113.287 38.049z" fill="#E0EFF5"/><mask id="mask0" maskUnits="userSpaceOnUse" x="31" y="311" width="228" height="77"><path d="M145.233 387.194c62.567 0 113.287-17.035 113.287-38.049 0-21.015-50.72-38.05-113.287-38.05-62.567 0-113.287 17.035-113.287 38.05 0 21.014 50.72 38.049 113.287 38.049z" fill="#E2EAEC"/></mask><g mask="url(#mask0)"><path d="M194.775 391.299c-2.005 1.09-23.82 20.251-42.236 9.266-14.594-8.721 16.904-73.204 16.955-73.307 2.396-4.019 6.966-8.635 8.971-7.443 1.818 1.09 1.155 6.353 3.092 7.512 2.327 1.396 7.713-3.475 10.839-1.601 1.886 1.124 2.175 4.632 3.976 5.722 1.478.886 7.186-.562 10.499 1.414 7.153 4.275-2.106 16.879-1.936 21.341.322 8.108 10.21 7.477 5.164 15.959-3.652 6.149-7.968 4.054-10.703 8.636-2.022 3.406-.391 7.306-2.158 10.27-.475.8-1.24 1.567-2.463 2.231z" fill="#C9E1EB"/><path d="M154.985 396.596c-9.157-6.183 8.24-48.15 11.757-54.077 1.189-1.993 2.701-3.645 4.689-2.452 1.41.851 1.241 2.725 2.566 4.036 3.601-1.396 6.626-9.964 11.196-8.618.289 4.428.9 6.387 1.903 6.983 2.106 1.26 5.895-3.406 12.028-3.917 5.284 6.285-.56 13.353 2.294 20.149 1.631 3.883 8.699 5.535 5.029 11.701-2.328 3.9-7.747 3.917-9.922 7.579-1.308 2.197-.289 5.007-1.784 7.545-5.573 9.385-26.113 19.281-38.94 11.633-.272-.204-.544-.375-.816-.562z" fill="#E2F1F7"/><path d="M174.116 395.336c8.019-2.334 11.519-5.059 13.133-7.767 2.089-3.508 1.036-7 2.582-9.606 2.481-4.173 10.619-3.168 13.184-7.477 3.908-6.591-4.264.562-4.638-25.344a8.22 8.22 0 0 0-.782-.562c-.458-.272-.781-.255-1.631.034-1.257 3.611-2.055 7.086-3.669 9.811-1.207 2.044-2.872 3.662-5.522 4.598-2.294-3.542-.985-5.058-1.019-8.771-3.313-1.874-5.352-.256-6.966 2.452-1.512 2.538-2.634 6.013-4.061 8.431-1.546 2.606-11.672 12.536-17.363 22.125-3.432 5.774-4.944 11.037-1.104 13.336 1.817 1.09 4.825 1.516 9.395 1.022 2.82-.306 5.759-1.499 8.461-2.282z" fill="#fff"/><path d="M220.905 400.377c-2.243.358-29.188 11.139-42.899-5.365-10.873-13.098 40.249-63.393 40.351-63.461 3.584-2.998 9.429-5.825 10.924-4.02 1.359 1.635-1.019 6.37.425 8.107 1.733 2.095 8.426-.698 10.754 2.112 1.393 1.686.51 5.093 1.852 6.728 1.104 1.328 6.966 1.873 9.429 4.837 5.335 6.421-7.594 15.21-8.902 19.485-2.396 7.749 7.135 10.457-.425 16.759-5.488 4.582-8.869 1.159-12.963 4.582-3.041 2.538-2.787 6.762-5.437 8.959-.747.596-1.733 1.073-3.109 1.277z" fill="#CAE4EE"/><path d="M181.625 392.1c-6.575-8.891 23.769-42.649 29.052-47.06 1.784-1.482 3.755-2.538 5.25-.749 1.053 1.277.272 2.98 1.087 4.666 3.874-.102 9.566-7.187 13.422-4.394-1.189 4.258-1.274 6.319-.526 7.222 1.563 1.89 6.693-1.244 12.64.306 2.888 7.682-4.961 12.417-4.519 19.775.254 4.206 6.371 8.124.849 12.723-3.483 2.912-8.597 1.107-11.859 3.832-1.971 1.635-1.937 4.632-4.196 6.506-8.376 6.983-31.023 9.47-40.588-2.044-.204-.255-.408-.528-.612-.783z" fill="#E2F1F7"/><path d="M200.093 397.294c8.342.477 12.538-.919 14.951-2.946 3.126-2.606 3.296-6.251 5.623-8.193 3.721-3.099 11.06.563 14.917-2.64 5.878-4.905-4.213-.902 4.044-25.445a9.353 9.353 0 0 0-.544-.784c-.34-.409-.646-.511-1.546-.528-2.379 2.998-4.299 5.995-6.728 8.022-1.818 1.516-3.925 2.487-6.745 2.504-.985-4.105.765-5.11 1.954-8.601-2.498-2.879-4.961-2.027-7.374 0-2.259 1.89-4.485 4.803-6.643 6.591-2.327 1.942-15.171 7.92-23.717 15.056-5.148 4.293-8.325 8.755-5.471 12.213 1.359 1.635 4.044 3.031 8.529 4.087 2.769.647 5.929.511 8.75.664z" fill="#fff"/><path d="M166.391 371.287c-.034-.017-.051-.034-.085-.034-2.701-10.56 7.339-45.918-6.116-45.953-3.313 0-4.452 2.572-5.845 2.419-3.33-.375-4.383-5.11-9.412-5.689-4.791-.545-6.66 6.455-11.961 5.842-3.33-.374-7.118-4.854-10.397-3.679-4.333 1.55-2.056 5.723-2.889 7.086-2.055 3.321-7.22-.29-10.635 1.175-2.769 1.192-2.854 3.968-3.024 5.365-.51 4.479 6.422 5.518 5.997 9.3-.204 1.754-2.005 3.304-2.242 5.348-.969 8.533 16.989 12.144 22.783 16.674 6.66 5.212 15.392 16.692 24.533 17.73 4.451.511 9.938-1.601 10.652-7.136 0-.034.017-.068.017-.102.357-2.981-1.359-5.348-1.376-8.346z" fill="#CAE4EE"/><path d="M160.564 362.294c.407-3.611 1.631-8.618 2.191-13.438.731-6.421.612-15.431-4.927-14.631-1.325.188-1.868 3.815-2.701 4.871-2.26.426-6.558-10.798-12.929-9.112-2.667.699-2.973 4.923-6.83 4.48-2.922-.341-6.167-2.606-8.631-2.879-1.699-.187-3.007.562-3.584 3.543-3.211 1.209-5.777.324-8.988 1.567-1.461.375-2.294 2.248-1.665 3.968 1.852 2.521 6.813 2.249 6.439 5.587-.255 2.265-3.687 4.684-3.924 6.796-.493 4.326 11.332 7.034 14.831 9.248 10.5 6.66 21.815 25.787 29.325 22.414 2.48-1.124 2.956-3.849 3.228-6.182.696-5.979-2.991-6.098-1.835-16.232z" fill="#E2F1F7"/><path d="M152.816 383.329c1.495 1.022 2.26 1.771 4.078 1.993 1.019-.937 1.512-1.959 1.631-3.049.017-.119-5.913-44.199-11.332-44.829a3.864 3.864 0 0 0-.986.017 6.924 6.924 0 0 0-.119.631c-.067.664-.051 1.413-.135 2.111-.187 1.619-.969 2.419-2.583 2.232-2.854-.324-14.815-7.069-15.936-7.188a5.916 5.916 0 0 0-1.104-.017c-.136.153-.255.324-.408.46v.017c-.119 1.09.306 2.163.187 3.151-.051.375-.17.749-.425 1.107a10.6 10.6 0 0 1-1.07-.068c-2.277-.256-3.5-1.124-5.709-1.397h-.034c-1.07-.119-3.381.12-3.534 1.397-.306 2.623 6.422 4.122 6.032 7.477-.204 1.839-3.296 2.436-3.466 3.968-.629 5.485 14.594 2.504 30.666 24.833 2.209 3.083 2.956 7.835 7.051 8.993" fill="#fff"/><path d="M157.709 360.455c0-.051.017-.102.017-.171.085-.681.221-1.72.357-2.946.612-5.297 1.223-14.239-2.99-14.716-.136-.017-.272-.017-.408-.017-.187.681-.306 1.38-.391 2.078-.407 3.628 3.092 23.164 3.143 23.3.136-.477.221-.937.289-1.397.238-2.061-.255-4.002-.017-6.131zm-22.704 19.705c-.034-.017-.051-.034-.085-.034-2.701-10.56 7.34-45.918-6.116-45.953-3.313 0-4.451 2.572-5.844 2.419-3.33-.375-4.384-5.11-9.413-5.689-4.791-.545-6.66 6.456-11.96 5.842-3.33-.374-7.12-4.854-10.398-3.679-4.332 1.55-2.056 5.723-2.888 7.086-2.056 3.321-7.22-.29-10.636 1.175-2.77 1.192-2.854 3.968-3.024 5.365-.51 4.48 6.422 5.518 5.997 9.3-.204 1.754-2.004 3.304-2.242 5.348-.969 8.533 16.99 12.144 22.783 16.674 6.66 5.212 15.392 16.692 24.533 17.731 4.451.511 9.939-1.601 10.652-7.137 0-.034.017-.068.017-.102.357-2.981-1.359-5.348-1.376-8.346z" fill="#CAE4EE"/><path d="M129.178 371.167c.408-3.611 1.631-8.618 2.192-13.438.73-6.421.611-15.431-4.927-14.631-1.326.188-1.869 3.815-2.702 4.871-2.259.426-6.558-10.798-12.929-9.112-2.667.699-2.973 4.923-6.83 4.48-2.922-.341-6.167-2.606-8.63-2.879-1.7-.187-3.008.562-3.585 3.543-3.211 1.209-5.777.324-8.988 1.567-1.46.375-2.293 2.248-1.665 3.968 1.852 2.521 6.813 2.249 6.44 5.587-.255 2.265-3.687 4.684-3.925 6.796-.493 4.326 11.332 7.034 14.832 9.248 10.499 6.66 21.814 25.787 29.324 22.414 2.48-1.124 2.956-3.849 3.228-6.182.696-5.978-2.99-6.098-1.835-16.232z" fill="#E2F1F7"/><path d="M121.431 392.202c1.495 1.022 2.259 1.771 4.077 1.993 1.019-.937 1.512-1.959 1.631-3.049.017-.119-5.912-44.198-11.332-44.829a3.855 3.855 0 0 0-.985.017 6.924 6.924 0 0 0-.119.631c-.068.664-.051 1.413-.136 2.112-.187 1.618-.969 2.418-2.583 2.231-2.854-.324-14.815-7.069-15.936-7.188a5.918 5.918 0 0 0-1.104-.017c-.136.153-.255.324-.408.46v.017c-.119 1.09.306 2.163.187 3.151a2.42 2.42 0 0 1-.425 1.107c-.374 0-.73-.034-1.07-.068-2.277-.256-3.5-1.124-5.709-1.397h-.034c-1.07-.119-3.38.12-3.534 1.397-.305 2.623 6.423 4.122 6.032 7.477-.204 1.84-3.296 2.436-3.466 3.969-.629 5.484 14.594 2.503 30.666 24.832 2.209 3.083 2.956 7.835 7.051 8.993" fill="#fff"/><path d="M126.323 369.328c0-.051.017-.102.017-.171.085-.681.221-1.72.357-2.946.612-5.297 1.223-14.239-2.99-14.716-.136-.017-.272-.017-.408-.017-.187.681-.306 1.38-.39 2.078-.408 3.628 3.092 23.164 3.143 23.3.136-.477.22-.937.288-1.397.238-2.061-.254-4.002-.017-6.131zm-21.932 14.959c-.034-.017-.051-.034-.085-.034-2.701-10.56 7.339-45.918-6.116-45.953-3.313 0-4.452 2.572-5.845 2.419-3.33-.375-4.383-5.11-9.412-5.689-4.791-.545-6.66 6.455-11.96 5.842-3.33-.374-7.12-4.854-10.398-3.679-4.333 1.55-2.056 5.723-2.889 7.086-2.055 3.321-7.22-.29-10.635 1.175-2.77 1.192-2.854 3.968-3.024 5.365-.51 4.479 6.422 5.518 5.997 9.3-.204 1.754-2.005 3.304-2.242 5.348-.969 8.533 16.99 12.144 22.783 16.674 6.66 5.212 15.392 16.692 24.533 17.73 4.45.511 9.938-1.601 10.652-7.136 0-.034.017-.068.017-.102.357-2.981-1.359-5.348-1.376-8.346z" fill="#CAE4EE"/><path d="M98.564 375.294c.407-3.611 1.631-8.618 2.191-13.438.731-6.421.612-15.431-4.927-14.631-1.325.188-1.868 3.815-2.701 4.871-2.26.426-6.558-10.798-12.93-9.112-2.666.699-2.972 4.923-6.829 4.48-2.922-.341-6.167-2.606-8.63-2.879-1.7-.187-3.008.562-3.585 3.543-3.212 1.209-5.777.324-8.988 1.567-1.461.375-2.294 2.248-1.665 3.968 1.852 2.521 6.813 2.249 6.44 5.587-.256 2.265-3.688 4.684-3.925 6.796-.493 4.326 11.332 7.034 14.832 9.248 10.5 6.66 21.814 25.787 29.324 22.414 2.48-1.124 2.956-3.849 3.228-6.182.696-5.979-2.99-6.098-1.835-16.232z" fill="#E2F1F7"/><path d="M90.816 396.329c1.495 1.022 2.26 1.771 4.078 1.993 1.02-.937 1.512-1.959 1.63-3.049.018-.119-5.912-44.199-11.331-44.829a3.86 3.86 0 0 0-.986.017 6.89 6.89 0 0 0-.118.631c-.069.664-.052 1.413-.136 2.111-.187 1.619-.969 2.419-2.583 2.232-2.854-.324-14.815-7.069-15.936-7.188a5.919 5.919 0 0 0-1.105-.017c-.135.153-.254.324-.407.46v.017c-.12 1.09.306 2.163.187 3.151a2.42 2.42 0 0 1-.425 1.107c-.374 0-.73-.034-1.07-.068-2.277-.256-3.5-1.124-5.709-1.397h-.034c-1.07-.119-3.38.12-3.534 1.397-.306 2.623 6.422 4.122 6.032 7.477-.204 1.839-3.296 2.436-3.466 3.968-.629 5.485 14.594 2.504 30.666 24.833 2.209 3.083 2.956 7.835 7.05 8.993" fill="#fff"/><path d="M95.71 373.455c0-.051.016-.102.016-.171.085-.681.221-1.72.357-2.946.612-5.297 1.223-14.239-2.99-14.716-.136-.017-.272-.017-.408-.017-.187.681-.306 1.38-.39 2.078-.409 3.628 3.091 23.164 3.142 23.3.136-.477.221-.937.29-1.397.237-2.061-.256-4.002-.018-6.131z" fill="#CAE4EE"/><path d="M79.755 379.819c-11.638 4.412-23.497-.442-28.797-10.44 1.614-.92 3.652-1.959 5.946-3.083-.272 1.158-.442 2.384-.323 3.338.119.988.544 1.703 1.478 1.772 1.291-1.38 2.345-2.964 3.602-4.378 2.209 3.083 2.905 6.268 4.247 6.098.799-.102 1.835-1.397 3.568-4.667l.663-.051c.696.988 5.403 6.762 7.526 6.506 1.037-.119 1.172-1.788 1.053-2.827-.288-2.504-2.021-5.604-2.293-7.716.34-.136.663-.204.968-.255 2.107-.256 3.67 1.584 5.98 1.362a2.9 2.9 0 0 0-.033-.647c-.085-.664-.29-1.465-.357-2.146-.119-1.039.153-1.737 1.274-1.873.56-.068 1.206.017 1.75-.051.917-.103 1.41-.767 1.308-1.55-.068-.631-.475-1.312-.543-1.908-.238-1.959 3.177-1.363 2.99-3.27v-.136c-.085-.767-.34-1.295-.697-1.635 1.325-.528 2.362-.954 3.007-1.21 3.211 11.139-1.512 23.675-12.317 28.767z" fill="#E2F1F7"/><path d="M92.871 350.797c-.017 0-.289.102-.764.306 3.194 11.071-1.53 23.624-12.335 28.716-11.638 4.412-23.497-.442-28.797-10.44-2.583 1.465-4.129 2.606-4.06 3.236.254 2.163 1.902 4.82 5.453 8.107 5.555 5.144 14.084 7.017 22.341 6.047 13.184-1.55 25.621-10.339 23.956-24.476-.697-5.842-1.903-11.956-5.794-11.496z" fill="#BDDBE7"/><path d="M89.779 353.948c0 .051.017.102 0 .136.17 1.907-3.228 1.311-2.99 3.27.068.596.475 1.277.543 1.908.085.766-.39 1.43-1.308 1.55-.543.068-1.19-.017-1.75.051-1.121.136-1.393.834-1.274 1.873.085.681.289 1.482.357 2.146.034.239.034.46.034.647-2.31.222-3.874-1.618-5.98-1.362a3.725 3.725 0 0 0-.969.255c.272 2.112 1.988 5.195 2.294 7.716.119 1.039-.017 2.708-1.054 2.827-2.123.256-6.83-5.518-7.526-6.506l-.663.051c-1.733 3.27-2.752 4.582-3.567 4.667-1.343.153-2.04-3.032-4.248-6.098-1.274 1.414-2.31 2.981-3.602 4.378-.951-.068-1.376-.784-1.478-1.772-.119-.953.068-2.18.323-3.338 10.109-4.922 25.213-11.156 32.195-13.983.323.289.578.817.663 1.584z" fill="#F4FCFF"/><path d="M152.148 388.438c-11.638 4.411-23.497-.443-28.797-10.441 1.614-.92 3.652-1.958 5.946-3.083-.272 1.159-.442 2.385-.323 3.339.119.988.544 1.703 1.478 1.771 1.291-1.38 2.345-2.964 3.602-4.377 2.209 3.083 2.905 6.268 4.247 6.097.799-.102 1.835-1.396 3.568-4.667l.663-.051c.696.988 5.403 6.762 7.526 6.507 1.037-.12 1.173-1.789 1.054-2.828-.289-2.503-2.022-5.603-2.294-7.715a4.57 4.57 0 0 1 .968-.256c2.107-.255 3.67 1.584 5.981 1.363.017-.188 0-.409-.034-.647-.085-.665-.289-1.465-.357-2.146-.119-1.039.153-1.738 1.274-1.874.561-.068 1.206.017 1.75-.051.918-.102 1.41-.766 1.308-1.55-.068-.63-.475-1.311-.543-1.908-.221-1.958 3.177-1.362 2.99-3.27v-.136c-.085-.766-.34-1.294-.697-1.635 1.325-.528 2.362-.954 3.007-1.209 3.211 11.139-1.512 23.691-12.317 28.767z" fill="#E2F1F7"/><path d="M165.247 359.432c-.017 0-.289.102-.764.307 3.194 11.071-1.529 23.64-12.335 28.716-11.638 4.411-23.496-.443-28.797-10.441-2.583 1.465-4.129 2.606-4.061 3.236.255 2.163 1.903 4.82 5.454 8.108 5.556 5.143 14.084 7.017 22.341 6.046 13.184-1.55 25.621-10.339 23.956-24.475-.697-5.842-1.886-11.957-5.794-11.497z" fill="#BDDBE7"/><path d="M162.155 362.566c0 .051.017.102 0 .136.17 1.908-3.228 1.312-2.99 3.27.068.596.475 1.278.543 1.908.085.766-.39 1.431-1.308 1.55-.543.068-1.189-.017-1.75.051-1.121.136-1.393.835-1.274 1.873.085.682.289 1.482.357 2.147.034.238.034.459.034.647-2.311.221-3.874-1.618-5.981-1.363a3.697 3.697 0 0 0-.968.256c.272 2.112 1.988 5.194 2.294 7.715.119 1.039-.017 2.708-1.054 2.828-2.123.255-6.83-5.519-7.526-6.507l-.663.051c-1.733 3.271-2.752 4.582-3.568 4.667-1.342.153-2.038-3.032-4.247-6.097-1.274 1.413-2.311 2.98-3.602 4.377-.951-.068-1.376-.784-1.478-1.771-.119-.954.068-2.181.323-3.339 10.109-4.922 25.213-11.156 32.195-13.983.34.307.578.817.663 1.584z" fill="#F4FCFF"/><path d="M113.14 401.28c-3.942-12.57 3.041-25.974 15.579-29.925 12.539-3.952 25.909 3.048 29.851 15.618.408 1.312.68 2.623.85 3.935.186-2.743-.085-5.536-.952-8.278-3.941-12.57-17.992-19.349-31.38-15.142-13.387 4.207-21.05 17.833-17.108 30.403 1.24 3.985 3.5 7.375 6.439 10.032a23.74 23.74 0 0 1-3.279-6.643z" fill="#BDDBE7"/><path d="M114.992 404.516c-3.942-12.569 2.684-25.871 14.815-29.687 12.113-3.815 25.144 3.288 29.086 15.857.408 1.312.68 2.623.866 3.935.153-2.725-.135-5.519-1.002-8.261-3.942-12.57-17.618-19.468-30.547-15.397-12.929 4.071-20.218 17.577-16.276 30.147a23.015 23.015 0 0 0 6.337 10.049 23.736 23.736 0 0 1-3.279-6.643z" fill="#fff"/><path d="M127.122 391.078c-3.941-12.57 3.041-25.974 15.58-29.926 12.538-3.951 25.909 3.049 29.851 15.619.407 1.311.679 2.623.849 3.934.187-2.742-.085-5.535-.951-8.277-3.942-12.57-17.992-19.349-31.38-15.142-13.388 4.207-21.05 17.833-17.109 30.402 1.24 3.986 3.5 7.375 6.439 10.032a23.761 23.761 0 0 1-3.279-6.642z" fill="#BDDBE7"/><path d="M128.974 394.314c-3.941-12.57 2.685-25.872 14.815-29.687 12.114-3.815 25.145 3.287 29.086 15.857.408 1.311.68 2.623.867 3.934.153-2.725-.136-5.518-1.003-8.26-3.958-12.57-17.635-19.468-30.564-15.397-12.929 4.07-20.218 17.577-16.276 30.147 1.24 3.985 3.466 7.374 6.337 10.048a23.94 23.94 0 0 1-3.262-6.642z" fill="#fff"/><path d="M194.605 383.09c-3.942-12.57 3.041-25.974 15.579-29.926 12.539-3.951 25.909 3.049 29.851 15.619.408 1.311.68 2.623.849 3.934.187-2.742-.085-5.535-.951-8.278-3.942-12.569-17.992-19.348-31.38-15.141-13.388 4.207-21.05 17.832-17.108 30.402 1.24 3.986 3.5 7.375 6.439 10.032a24.214 24.214 0 0 1-3.279-6.642z" fill="#BDDBE7"/><path d="M196.457 386.309c-3.942-12.57 2.684-25.872 14.815-29.687 12.113-3.815 25.144 3.287 29.086 15.857.408 1.311.679 2.623.866 3.934.153-2.725-.136-5.518-1.002-8.261-3.942-12.569-17.618-19.467-30.547-15.397-12.929 4.071-20.218 17.578-16.276 30.147a23 23 0 0 0 6.337 10.049 23.518 23.518 0 0 1-3.279-6.642z" fill="#fff"/><path d="M182.543 383.158c-9.498-8.056-11.01-20.814-4.876-30.317 1.597.97 3.482 2.248 5.572 3.713-1.138.34-2.293.766-3.075 1.328-.798.579-1.223 1.295-.832 2.163 1.834.46 3.72.613 5.555 1.039-1.614 3.424-4.043 5.587-3.262 6.694.476.664 2.107.919 5.794.851.119.188.237.375.373.562-.526 1.09-3.262 8.023-2.021 9.76.611.851 2.123.17 2.973-.443 2.039-1.482 3.907-4.479 5.606-5.74.289.222.51.477.68.733 1.24 1.72.391 3.985 1.716 5.91.17-.068.357-.188.544-.341.543-.392 1.138-.954 1.699-1.363.849-.613 1.58-.715 2.242.205.323.46.578 1.056.901 1.516.543.749 1.359.851 1.987.408.527-.374.901-1.056 1.394-1.413 1.597-1.158 2.718 2.112 4.298 1.039a.975.975 0 0 0 .119-.068c.628-.46.968-.92 1.087-1.397 1.105.903 1.971 1.601 2.515 2.044-8.07 8.175-21.305 10.117-30.989 3.117z" fill="#E2F1F7"/><path d="M214.211 380.569s-.238-.187-.646-.528c-8.104 8.175-21.356 10.134-31.023 3.134-9.497-8.056-11.009-20.813-4.876-30.317-2.531-1.55-4.281-2.351-4.791-1.976-1.767 1.277-3.279 4.002-4.417 8.703-1.801 7.375.731 15.755 5.573 22.517 7.747 10.798 21.457 17.441 32.976 9.129 4.758-3.458 9.498-7.477 7.204-10.662z" fill="#BDDBE7"/><path d="M209.98 379.394c-.034.034-.085.051-.118.068-1.581 1.073-2.702-2.197-4.299-1.039-.493.358-.883 1.039-1.393 1.414-.629.459-1.444.357-1.988-.409-.323-.46-.56-1.056-.9-1.516-.663-.92-1.41-.818-2.243-.204-.561.408-1.155.97-1.699 1.362-.204.136-.374.256-.544.341-1.308-1.908-.475-4.173-1.715-5.91a4.52 4.52 0 0 0-.68-.733c-1.716 1.261-3.568 4.275-5.607 5.74-.849.613-2.361 1.312-2.973.443-1.24-1.737 1.495-8.669 2.022-9.759a16.186 16.186 0 0 1-.374-.563c-3.687.069-5.335-.187-5.793-.851-.782-1.107 1.648-3.253 3.262-6.694-1.852-.426-3.721-.579-5.556-1.039-.391-.868.017-1.584.833-2.163.781-.562 1.919-1.005 3.075-1.328 9.208 6.472 21.967 16.691 27.829 21.426-.187.494-.527.954-1.139 1.414z" fill="#F4FCFF"/><path d="M112.239 370.452c5.369 5.689 7.526 14.051 3.789 17.611-3.738 3.56-11.961.954-17.33-4.735-5.368-5.688-5.861-12.297-2.123-15.857 3.737-3.542 10.295-2.708 15.664 2.981z" fill="#AED0DD"/><path d="M108.128 369.464c1.818 1.925 2.548 4.769 1.274 5.962-1.274 1.209-4.061.323-5.879-1.602-1.817-1.924-1.987-4.172-.713-5.365 1.274-1.209 3.5-.919 5.318 1.005z" fill="#fff"/><path d="M213.26 365.393c-3.602 6.949-3.381 15.585 1.189 17.969 4.57 2.385 11.757-2.384 15.359-9.333 3.601-6.95 2.259-13.439-2.311-15.823-4.57-2.385-10.635.238-14.237 7.187z" fill="#AED0DD"/><path d="M216.93 363.298c-1.223 2.351-1.139 5.28.408 6.098 1.546.8 3.992-.818 5.198-3.168 1.224-2.351.765-4.548-.781-5.365-1.546-.801-3.602.085-4.825 2.435z" fill="#fff"/></g></g><defs><clipPath id="clip0"><path fill="#fff" d="M26 309h242v174H26z"/></clipPath></defs></svg>