<svg width="18" height="18" fill="none" xmlns="http://www.w3.org/2000/svg"><path d="M14.723.922H2.562C1.189.922.142 1.967.142 3.338v12.149c0 1.371 1.047 2.416 2.42 2.416h12.161c1.373 0 2.42-1.045 2.42-2.416V3.338c0-1.371-1.047-2.416-2.42-2.416zm-6.08 13.585c2.811 0 5.1-2.22 5.1-4.899 0-.457-.066-.98-.197-1.371h1.439v6.923a.655.655 0 0 1-.654.653H2.954a.655.655 0 0 1-.654-.653V8.172h1.504c-.13.457-.196.914-.196 1.371-.065 2.743 2.223 4.964 5.035 4.964zm0-1.96c-1.831 0-3.27-1.436-3.27-3.2 0-1.763 1.439-3.2 3.27-3.2 1.83 0 3.269 1.437 3.269 3.2 0 1.829-1.439 3.2-3.27 3.2zm6.276-6.988a.725.725 0 0 1-.719.719h-1.83a.725.725 0 0 1-.72-.719V3.796c0-.392.327-.719.72-.719h1.83c.393 0 .72.327.72.719v1.763z" fill="#1ABBF4"/></svg>