<svg width="377" height="277" fill="none" xmlns="http://www.w3.org/2000/svg"><path d="M-4.408 34.287s27.886-6.371 29.477 47.786c1.592 54.157-4.447 84.586 43.024 108.308 50.99 25.484 15.538 79.242 108.753 85.213 82.694 5.301 75.763-39.104 104.77-77.251 15.138-19.913 80.51-58.981 59.412-130.16C329.379 28.872 377-13 377-13L-6-4.738l1.592 39.025z" fill="#E8F7FD"/><path d="M198.193 25.162c8.729 3.175 11.634-14.397 18.493-5.786 6.859 8.611-6.423 19.363.736 22.844 7.165 3.482 6.937 13.27-2.127 15.931-9.058 2.661-6.096 6.592-3.234 13.506 2.862 6.913-13.489 12.899-21.512 13.327-8.022.428-13.454 5.25-13.454 5.25s-1.292-5.7-10.256-20.553c-14.439-23.936 4.468-17.88 10.27-23.166 5.81-5.294.322-28.901 21.084-21.353z" fill="#D6EBF3"/><path d="M203.468 34.794s-12.954 17.935-18.507 29.565c-5.553 11.629-22.14 27.403-12.184 33.132 9.957 5.736 12.969-21.753 19.742-33.939 6.767-12.185 10.949-28.758 10.949-28.758z" fill="#fff"/><path d="M190.55 36.606c-.386 4.53-.842 9.025-1.256 13.52-.229 2.247-.479 4.501-.436 6.756.029 1.127.122 2.254.35 3.353.228 1.07.592 2.218 1.335 2.896.378.314.842.393 1.306.257.449-.128.935-.464 1.42-.713.493-.25.935-.6 1.399-.9.464-.299.907-.648 1.349-.984 1.77-1.37 3.426-2.896 5.068-4.43 3.276-3.097 6.416-6.35 9.564-9.632l.085.065c-2.626 3.717-5.61 7.177-8.857 10.387-1.649 1.584-3.39 3.075-5.253 4.416a21.771 21.771 0 0 1-2.941 1.827c-.528.242-1.006.556-1.67.685-.321.05-.664.071-.999-.029a2.003 2.003 0 0 1-.857-.506c-.892-.95-1.078-2.148-1.299-3.26-.185-1.135-.278-2.27-.335-3.411-.129-2.276-.186-4.559-.107-6.835.1-2.276.364-4.537.699-6.785.357-2.247.764-4.487 1.335-6.692l.1.015zm-14.182 22.302c.492 3.624.878 7.234 1.299 10.83.178 1.805.357 3.617.778 5.386.214.878.499 1.748.856 2.569.357.82.828 1.612 1.442 2.197.293.314.664.492 1.021.606a3.86 3.86 0 0 0 1.22.058c.835-.086 1.678-.364 2.498-.685 1.635-.678 3.191-1.584 4.725-2.526 3.084-1.876 6.053-3.974 9.05-6.064l.072.078a50.61 50.61 0 0 1-8.515 6.956c-1.556.985-3.205 1.855-4.975 2.497-.885.321-1.813.564-2.805.593a4.002 4.002 0 0 1-1.492-.207c-.485-.207-.927-.514-1.22-.9-.642-.741-1.006-1.612-1.349-2.468a30.962 30.962 0 0 1-.856-2.618c-.507-1.762-.985-3.539-1.328-5.344-.328-1.805-.485-3.638-.578-5.465-.086-1.826-.093-3.66.05-5.493h.107z" fill="#fff"/><path d="M202.69 180.956c5.254 26.733 19.671 28.424 20.199 48.164.507 18.964-34.737 31.463-42.917 14.719-8.179-16.745-8.344-34.438-9.985-50.919-2.698-27.26 27.45-38.697 32.703-11.964z" fill="#CAE3EC"/><path d="M199.586 178.322c5.054 25.204 18.901 26.79 19.409 45.41.493 17.881-33.379 29.662-41.238 13.871-7.859-15.784-8.019-32.463-9.592-48.005-2.603-25.701 26.368-36.48 31.421-11.276z" fill="#D6EBF3"/><mask id="mask0" maskUnits="userSpaceOnUse" x="168" y="163" width="51" height="82"><path d="M199.264 177.817c4.975 25.291 18.608 26.882 19.107 45.567.486 17.943-32.86 29.765-40.597 13.919-7.737-15.838-7.894-32.575-9.443-48.171-2.562-25.791 25.959-36.607 30.933-11.315z" fill="#FDA484"/></mask><g mask="url(#mask0)"><path d="M201.549 166.003l-9.429 5.35c-1.57.878-3.148 1.763-4.561 2.89-.692.571-1.349 1.191-1.898 1.89-.55.693-.978 1.506-1.085 2.319l-.05.357-.364-.143c-1.692-.67-3.419-1.277-5.139-1.869a64.794 64.794 0 0 0-5.225-1.505c-1.748-.428-3.518-.799-5.303-.871-.885-.028-1.784 0-2.641.2-.856.2-1.684.564-2.348 1.199l-.078-.072c.535-.77 1.377-1.327 2.269-1.648a9.388 9.388 0 0 1 2.791-.521c1.892-.064 3.762.186 5.574.593 1.813.42 3.576 1.02 5.296 1.676a44.48 44.48 0 0 1 5.047 2.29l-.407.214c.214-.977.792-1.755 1.377-2.461.6-.699 1.264-1.327 1.949-1.934 1.363-1.212 2.798-2.361 4.311-3.381 1.527-1.006 3.14-1.869 4.782-2.647a41.534 41.534 0 0 1 5.067-2.041l.065.115z" fill="#fff"/><path d="M182.049 160.994c.864 7.263 1.713 14.519 2.484 21.781.164 1.82.342 3.639.528 5.458.178 1.82.364 3.639.614 5.444.471 3.624 1.106 7.22 1.784 10.816 1.435 7.163 2.891 14.318 4.575 21.417 1.677 7.099 3.533 14.148 5.717 21.132l-.1.036c-2.819-6.763-4.939-13.798-6.723-20.904l-1.206-5.358c-.4-1.783-.7-3.596-1.057-5.386l-.514-2.697-.442-2.711a274.356 274.356 0 0 1-.828-5.429c-.257-1.813-.478-3.625-.764-5.437l-.785-5.429c-.557-3.61-1.185-7.22-1.684-10.844-.243-1.813-.478-3.625-.65-5.451a199.068 199.068 0 0 1-.499-5.465c-.279-3.646-.507-7.299-.557-10.966l.107-.007z" fill="#fff"/><path d="M209.628 172.902c-2.498.77-4.968 1.576-7.423 2.425a165.278 165.278 0 0 0-7.273 2.74c-2.391.992-4.711 2.254-6.602 4.024-1.87 1.74-3.348 4.052-3.362 6.513l-.007.607-.614-.164a84.57 84.57 0 0 0-5.025-1.17c-1.684-.357-3.368-.699-5.06-.971a39.857 39.857 0 0 0-5.096-.585c-.849-.035-1.706-.028-2.541.086-.835.1-1.67.321-2.37.82l-.071-.078c.621-.649 1.499-.977 2.348-1.206.864-.207 1.749-.299 2.627-.349 1.763-.086 3.519.064 5.253.256 1.734.222 3.454.536 5.153.921a90.06 90.06 0 0 1 5.053 1.355l-.613.443a7.783 7.783 0 0 1 1.349-3.853c.756-1.127 1.705-2.076 2.719-2.911 2.027-1.683 4.282-3.032 6.581-4.316 1.163-.614 2.341-1.206 3.561-1.698 1.221-.492 2.47-.906 3.719-1.298 2.512-.764 5.074-1.356 7.68-1.677l.014.086zm1.335 11.407c-2.455.4-4.889.835-7.309 1.327a138.26 138.26 0 0 0-7.194 1.684c-1.185.343-2.363.714-3.491 1.213a15.094 15.094 0 0 0-3.169 1.876c-.963.75-1.812 1.656-2.419 2.683a6.797 6.797 0 0 0-.949 3.339l-.008.464-.492-.022c-1.72-.071-3.454-.121-5.175-.114-1.727 0-3.447 0-5.174.05-1.72.036-3.44.136-5.139.35-.849.107-1.699.249-2.52.47-.828.207-1.634.5-2.334 1.006l-.071-.078c.614-.649 1.442-1.049 2.255-1.384.828-.314 1.685-.55 2.541-.742 1.72-.364 3.469-.557 5.218-.692a55.88 55.88 0 0 1 5.239-.093c1.748.064 3.483.15 5.231.314l-.499.442a7.09 7.09 0 0 1 1.32-3.66c.75-1.056 1.72-1.897 2.748-2.625 2.063-1.434 4.34-2.497 6.666-3.439 2.334-.934 4.782-1.52 7.252-1.912 2.47-.392 4.96-.606 7.459-.556l.014.099zm.835 8.99c-2.455.399-4.889.834-7.309 1.327-2.419.492-4.81 1.063-7.194 1.683-1.185.343-2.363.714-3.491 1.213-1.127.5-2.198 1.12-3.169 1.877-.963.749-1.812 1.655-2.419 2.682a6.8 6.8 0 0 0-.949 3.339l-.008.464-.492-.022c-1.72-.071-3.455-.121-5.175-.114-1.727 0-3.447 0-5.174.05-1.72.036-3.44.136-5.139.35-.85.107-1.699.25-2.52.471-.828.207-1.634.499-2.334 1.006l-.071-.079c.614-.649 1.442-1.049 2.255-1.384a18.86 18.86 0 0 1 2.541-.742c1.72-.364 3.469-.556 5.218-.692a55.88 55.88 0 0 1 5.239-.093c1.748.065 3.483.15 5.231.314l-.499.443a7.088 7.088 0 0 1 1.32-3.66c.75-1.056 1.72-1.898 2.748-2.626 2.063-1.434 4.34-2.497 6.666-3.439 2.334-.934 4.782-1.519 7.252-1.912 2.47-.392 4.96-.606 7.459-.556l.014.1zm2.034 9.046c-2.455.4-4.889.835-7.309 1.327-2.419.492-4.81 1.063-7.194 1.684-1.185.342-2.363.713-3.49 1.213a15.043 15.043 0 0 0-3.169 1.876c-.964.749-1.813 1.655-2.42 2.683a6.796 6.796 0 0 0-.949 3.338l-.007.464-.493-.021c-1.72-.072-3.454-.121-5.174-.114-1.728 0-3.448 0-5.175.05-1.72.035-3.44.135-5.139.349-.849.107-1.699.25-2.52.471-.827.207-1.634.499-2.333 1.006l-.072-.078c.614-.65 1.442-1.049 2.256-1.385a18.964 18.964 0 0 1 2.541-.742c1.72-.363 3.468-.556 5.217-.692a55.885 55.885 0 0 1 5.239-.092c1.748.064 3.483.15 5.232.314l-.5.442a7.1 7.1 0 0 1 1.32-3.66c.75-1.056 1.72-1.898 2.748-2.625 2.063-1.434 4.34-2.498 6.667-3.439 2.333-.935 4.782-1.52 7.251-1.912 2.47-.393 4.961-.607 7.459-.557l.014.1zm1.456 8.419c-2.455.399-4.889.834-7.309 1.327-2.419.492-4.81 1.063-7.194 1.683-1.185.343-2.363.714-3.49 1.213-1.128.5-2.199 1.12-3.169 1.877-.964.749-1.813 1.655-2.42 2.682a6.81 6.81 0 0 0-.949 3.339l-.007.464-.493-.022a114.5 114.5 0 0 0-5.174-.114c-1.728 0-3.448 0-5.175.05-1.72.036-3.44.136-5.139.35a18.67 18.67 0 0 0-2.519.471c-.828.207-1.635.499-2.334 1.006l-.072-.079c.614-.649 1.442-1.049 2.256-1.384a18.818 18.818 0 0 1 2.541-.742c1.72-.364 3.468-.556 5.217-.692a55.886 55.886 0 0 1 5.239-.093c1.749.065 3.483.15 5.232.314l-.5.443a7.096 7.096 0 0 1 1.32-3.66c.75-1.056 1.72-1.898 2.748-2.626 2.063-1.434 4.34-2.497 6.667-3.439 2.334-.934 4.782-1.519 7.251-1.912 2.47-.392 4.961-.606 7.459-.556l.014.1zm6.295 7.42a107.798 107.798 0 0 1-6.181 2.168c-2.077.664-4.161 1.299-6.273 1.848-2.113.535-4.254.992-6.36 1.555-2.105.571-4.182 1.242-6.245 1.934a379.146 379.146 0 0 1-12.462 3.981c-4.19 1.198-8.401 2.326-12.676 3.253l-.029-.1c4.083-1.576 8.223-2.939 12.384-4.245 2.084-.635 4.182-1.22 6.288-1.805 2.098-.599 4.211-1.127 6.338-1.641 2.12-.513 4.232-1.055 6.316-1.705 2.085-.642 4.133-1.398 6.203-2.083 2.077-.663 4.182-1.241 6.288-1.791a107.632 107.632 0 0 1 6.381-1.469l.028.1zm.835 8.989c-2.355.92-4.739 1.726-7.144 2.476-1.207.371-2.406.742-3.619 1.077-1.213.342-2.441.621-3.669.913-1.227.293-2.455.571-3.675.899a80.878 80.878 0 0 0-3.626 1.07c-2.398.771-4.775 1.62-7.18 2.376l.128-.057-4.247 2.889c-1.42.956-2.862 1.884-4.311 2.79-1.463.892-2.912 1.798-4.389 2.675-1.478.871-2.955 1.741-4.468 2.554l-.057-.092a123.797 123.797 0 0 1 4.125-3.082c1.392-1.006 2.798-1.977 4.204-2.954a174.352 174.352 0 0 1 4.282-2.84l4.347-2.739.071-.043.058-.014c2.433-.649 4.896-1.206 7.337-1.834 1.22-.314 2.427-.67 3.633-1.034 1.199-.378 2.391-.799 3.583-1.206 1.192-.407 2.384-.828 3.59-1.184 1.206-.364 2.419-.692 3.633-1.021a111.552 111.552 0 0 1 7.366-1.726l.028.107z" fill="#fff"/><path d="M195.867 248.177s-12.547-45.304-9.057-42.778c3.483 2.525 11.52 41.08 11.52 41.08l-2.463 1.698z" fill="#BBDDEA"/></g><path d="M185.975 196.402s-4.154-.763-4.918 3.389c-.763 4.152 5.753 5.608 5.753 5.608s4.846-1.598 3.84-6.421c-1.006-4.816-4.675-2.576-4.675-2.576z" fill="#fff"/><path d="M185.917 199.014s-1.556-.286-1.841 1.27c-.286 1.555 2.155 2.104 2.155 2.104s1.82-.599 1.442-2.404c-.378-1.812-1.756-.97-1.756-.97z" fill="#CAE4EE"/><path d="M127.905 42.27c-10.821 6.735-8.144 28.38-.272 21.603 3.605-3.103 6.867-4.858 9.629-6.656 2.883 3.239 6.545 7.976 7.109 11.736.949 6.342 8.308 2.04 6.48-3.182-1.113-3.182-5.752-8.405-10.12-11.18 1.655-1.548 3.019-3.446 4.025-6.25 3.041-8.418-1.256-15.774-16.851-6.071z" fill="#EBC4BD"/><path d="M127.905 42.27c-10.82 6.735-8.144 28.38-.271 21.603 3.604-3.103 6.866-4.858 9.628-6.656 2.884 3.239 6.545 7.976 7.109 11.736.949 6.342 8.308 2.04 6.481-3.182-1.114-3.182-5.753-8.404-10.121-11.18 1.656-1.548 3.019-3.446 4.026-6.25 3.04-8.418-1.257-15.774-16.852-6.07z" fill="#fff"/><path d="M116.606 59.336s2.941 6.107 9.7-1.549c6.759-7.655 9.843-3.78 11.613-9.232 1.777-5.45 11.998-11.094 2.94-12.649-9.05-1.555-21.826 13.263-24.253 23.43z" fill="#CAE4EE"/><path d="M181.307 125.985c-9.614 8.376-13.968 21.447-15.845 29.637-.771 3.36 2.534 6.214 5.76 4.987 8.622-3.289 23.31-9.717 33.538-18.628 15.31-13.334 21.027-34.945 28.957-39.475 7.929-4.53 28.499-8.197 28.499-8.197s-12.454-9.739-20.384-5.208c0 0 3.119-14.597-4.332-23.144 0 0-3.426 25.148-10.571 30.585-7.144 5.436-30.769 16.502-45.622 29.443z" fill="#D6EBF3"/><path d="M186.896 133.655c2.298-6.506 6.744-14.697 13.896-10.979 8.18 4.252-2.255 11.094-9.657 14.989-3.419 1.791-5.574-.243-4.239-4.01zm-7.759 8.476a3.579 3.579 0 0 1-.35 5.051 3.582 3.582 0 0 1-5.053-.35 3.579 3.579 0 0 1 .35-5.051 3.583 3.583 0 0 1 5.053.35z" fill="#fff"/><path d="M177.945 143.165a2.003 2.003 0 1 1-3.018 2.634 2.003 2.003 0 0 1 3.018-2.634z" fill="#CAE4EE"/><path d="M182.063 131.857c1.1.721 2.085 1.577 3.012 2.497.928.92 1.778 1.919 2.549 2.989.749 1.078 1.434 2.226 1.884 3.489.442 1.234.714 2.675.242 3.931.015-1.313-.463-2.483-1.013-3.603a17.422 17.422 0 0 0-.935-1.626 20.702 20.702 0 0 0-1.056-1.57c-.721-1.042-1.514-2.04-2.291-3.054-.793-1.005-1.599-2.011-2.392-3.053zm48.97-36.514c.885-2.882 1.963-5.65 3.034-8.425.556-1.377 1.084-2.768 1.655-4.138.564-1.377 1.121-2.761 1.749-4.131-.421 2.99-1.335 5.864-2.412 8.661a56.993 56.993 0 0 1-1.813 4.11c-.664 1.348-1.378 2.668-2.213 3.923zm9.35-12.892c.121 1.114-.164 2.234-.486 3.297a22.946 22.946 0 0 1-1.241 3.11 45.697 45.697 0 0 1-3.326 5.786l-.671-.756c1.341-.7 2.712-1.227 4.125-1.67 1.413-.449 2.869-.741 4.34-.934 1.477-.15 2.976-.15 4.439.057 1.463.243 2.884.714 4.168 1.413-1.391-.464-2.79-.77-4.225-.842a21.817 21.817 0 0 0-4.261.264c-1.406.235-2.791.599-4.147 1.034-1.349.45-2.698.978-3.954 1.598l-1.813.9 1.142-1.656a75.18 75.18 0 0 0 3.504-5.543 37.271 37.271 0 0 0 1.492-2.918c.45-1 .828-2.034.914-3.14zm-7.195 15.368c.786-.62 1.671-1.085 2.591-1.463a14.71 14.71 0 0 1 2.855-.841 13.444 13.444 0 0 1 2.977-.222 9.487 9.487 0 0 1 2.926.55c-.999.114-1.949.15-2.898.285-.942.121-1.884.25-2.812.435-1.87.343-3.704.814-5.639 1.256zm-102.472 2.554c-18.792 5.436-19.67 35.115 5.511 28.93 25.18-6.178 33.131-24.079 21.533-35.444-11.598-11.365-27.044 6.514-27.044 6.514z" fill="#fff"/><path d="M134.328 96.599l.129-8.105c-2.091 3.403-3.705 6.778-3.833 10.024-2.32-.264-6.852-.556-9.407.835l-3.54 1.919 9.828.271s-2.412 5.893-1.52 8.461l.885 2.576 4.211-11.187c1.356 3.41 4.032 5.643 7.266 7.399l-4.418-8.355 9.135-6.428c-3.611-.071-8.736 2.59-8.736 2.59z" fill="#CAE4EE"/><path d="M112.467 136.073c-10.185 6.236-7.366 15.218-.129 21.953 7.238 6.735 8.265 14.041 14.168 20.668 5.903 6.628 27.493 24.942 27.914 19.613.421-5.322-10.163-17.137-14.417-27.653-4.261-10.516-6.51-19.263-13.311-28.102-6.81-8.84-11.128-8.376-14.225-6.479z" fill="#fff"/><path d="M109.512 139.519s-6.081-1.883-21.241-8.311c-15.16-6.429-12.783-13.663-18.536-17.13-5.753-3.468.378-9.81 6.145-1.52 5.775 8.29 2.284 9.218 14.532 14.405 12.248 5.186 19.1 12.556 19.1 12.556z" fill="#CAE4EE"/><path d="M106.528 137.728s-12.39 3.575-18.007.486c-5.617-3.09-6.638 1.562-13.511-1.72-6.874-3.275-5.51-5.95-.136-5.465 5.375.492 10.913 1.969 16.188 3.082 5.274 1.12 15.466 3.617 15.466 3.617zm2.984 1.791s-5.282-9.453-13.376-16.323c-8.093-6.871-10.52-9.268-9.956-13.841.563-4.573 7.001 2.961 11.098 9.517 4.104 6.55 7.602 8.034 9.115 11.765 1.52 3.738 3.119 8.882 3.119 8.882zm13.29 9.76c.606-.364 1.006-.863 1.37-1.377.35-.521.657-1.07.921-1.662.15-.285.25-.592.392-.885.122-.306.243-.606.372-.913.107-.314.256-.621.378-.935a8.13 8.13 0 0 1 .442-.948c.057.349.065.706.079 1.055-.007.35-.043.7-.093 1.049-.043.35-.15.685-.221 1.035-.114.335-.221.678-.386.999a5.403 5.403 0 0 1-1.27 1.762c-.528.478-1.249.884-1.984.82zm-4.354 11.9c1.491.086 2.819-.085 3.911-.749a6.5 6.5 0 0 0 1.485-1.263c.128-.114.214-.264.328-.392l.335-.407c.207-.285.407-.585.664-.877a7.453 7.453 0 0 1-.193 1.113c-.135.349-.249.72-.449 1.049a4.584 4.584 0 0 1-1.627 1.698c-.693.428-1.521.599-2.306.563-.785-.028-1.549-.271-2.148-.735zm8.194 10.695c1.299-.007 2.262-.45 3.019-1.199.399-.364.721-.827 1.07-1.291.15-.25.336-.485.507-.742.164-.257.328-.521.543-.778.014.321-.022.642-.058.963a9.05 9.05 0 0 1-.242.942c-.243.599-.564 1.206-1.078 1.677-.492.478-1.149.842-1.849.92-.692.086-1.406-.071-1.912-.492zm6.58 3.132c.742-.671 1.185-1.284 1.556-1.99.179-.357.336-.728.493-1.135.078-.2.149-.414.235-.628.079-.214.15-.435.278-.67.115.228.179.463.25.706.029.243.072.492.065.742a3.485 3.485 0 0 1-.364 1.47c-.243.463-.6.87-1.043 1.148-.442.279-.956.45-1.47.357zm3.79 10.544c.571.079 1.057.022 1.463-.135.407-.157.75-.414 1.071-.749a1.66 1.66 0 0 0 .236-.257c.078-.093.164-.171.235-.271.143-.2.314-.378.457-.592.314-.407.607-.842 1.013-1.263.015.285-.021.563-.057.849a4.567 4.567 0 0 1-.221.813c-.086.271-.236.521-.371.778-.164.242-.328.485-.55.699-.414.435-1.013.771-1.663.813-.635.036-1.27-.214-1.613-.685z" fill="#CAE4EE"/><path d="M252.795 163.477c-17.543-17.915-26.636-6.785-31.012-.371-4.375 6.414 8.473 13.006 8.201 22.937 0 0 7.316-2.24 16.573-.984 7.723 1.048 19.022-8.533 6.238-21.582z" fill="#fff"/><path d="M271.916 141.553c-7.951-6.564-19.456 4.951-19.456 4.951a37.627 37.627 0 0 0-2.284 2.733c3.019-4.873 7.223-11.565 10.149-15.86 5.046-7.399 4.226-11.751.764-13.028-5.717-2.111-8.615 3.881-8.986 15.553a41.28 41.28 0 0 1-2.541 12.956c1.056-4.765 1.213-10.851-1.006-18.085-5.882-19.185-16.695-6.528-8.729 3.26 10.913 13.406 3.811 26.99 3.811 26.99s.328-.336.828-.985a1.38 1.38 0 0 1-.014.064s4.496-6.699 13.018-9.81c8.515-3.11 22.397-2.175 14.446-8.739zm-28.171 32.012c.814.464 1.592.942 2.37 1.398a31.66 31.66 0 0 0 2.341 1.285c.792.385 1.584.756 2.419.977.835.228 1.692.357 2.641.293-.806.499-1.834.627-2.79.528-.971-.093-1.892-.421-2.748-.842a11.136 11.136 0 0 1-2.349-1.57c-.713-.606-1.37-1.277-1.884-2.069zm-5.617 2.669c.635.228 1.213.513 1.77.82.557.307 1.099.635 1.627.97.528.343 1.042.692 1.556 1.042.514.357 1.014.72 1.585 1.084-.685.072-1.349-.114-1.97-.335a8.942 8.942 0 0 1-1.749-.892 10.828 10.828 0 0 1-1.541-1.191c-.472-.45-.921-.921-1.278-1.498zm-11.149-14.648c.529.093.993.272 1.442.471a9.297 9.297 0 0 1 2.406 1.641c.349.343.692.707.963 1.17-.528-.085-.992-.271-1.442-.471a8.597 8.597 0 0 1-1.263-.727 9.137 9.137 0 0 1-1.135-.914c-.357-.349-.699-.713-.971-1.17zm-76.634 70.974l-.585-.371c-.321-1.805-1.535-7.613-3.933-8.155-2.848-.642-.557 4.587-.557 4.587s-4.618-8.397-6.609-6.628c-1.991 1.77.243 4.574.243 4.574s-5.753-6.036-7.302-2.319c-1.02 2.454 4.104 4.587 6.231 5.358-1.399-.414-3.89-.828-3.155 1.734 1.014 3.51 7.901 2.168 7.901 2.168s-2.355 1.82-.999 3.489c1.092 1.356 5.846-2.297 7.609-3.731.235.085.464.171.699.257 1.049.342 2.084.692 3.162.956l.079-.2c-.943-.571-1.878-1.127-2.784-1.719zm-56.914-42.515l.664-.207c1.577.935 6.773 3.796 8.75 2.333 2.341-1.74-3.119-3.41-3.119-3.41s9.386 1.969 9.336-.692c-.05-2.661-3.626-2.797-3.626-2.797s8.33-.428 6.517-4.023c-1.199-2.376-6.16.121-8.123 1.234 1.228-.792 3.162-2.412.736-3.517-3.319-1.52-6.802 4.573-6.802 4.573s.157-2.968-1.999-3.032c-1.741-.05-2.063 5.928-2.127 8.197-.214.121-.435.243-.65.364-.942.571-1.884 1.127-2.783 1.776l.1.193c1.05-.342 2.084-.685 3.126-.992zM267.327 62.41l.371-.584c1.805-.307 7.622-1.484 8.179-3.882.664-2.839-4.589-.585-4.589-.585s8.429-4.566 6.673-6.563c-1.756-1.998-4.575.214-4.575.214s6.074-5.715 2.37-7.284c-2.448-1.035-4.618 4.073-5.396 6.192.421-1.398.849-3.88-1.713-3.16-3.519.991-2.22 7.883-2.22 7.883s-1.806-2.361-3.483-1.02c-1.363 1.084 2.263 5.857 3.69 7.627-.085.235-.178.463-.257.699-.349 1.049-.706 2.083-.978 3.153l.2.079a92.24 92.24 0 0 1 1.728-2.768zM103.738 87.153l-.193-.663c.971-1.556 3.954-6.685 2.527-8.69-1.685-2.383-3.483 3.04-3.483 3.04s2.184-9.333-.479-9.347c-2.662-.014-2.883 3.56-2.883 3.56s-.236-8.34-3.876-6.606c-2.405 1.141-.021 6.157 1.05 8.147-.771-1.241-2.342-3.218-3.505-.82-1.592 3.281 4.425 6.899 4.425 6.899s-2.969-.222-3.083 1.926c-.093 1.74 5.888 2.197 8.151 2.311.114.222.228.443.349.657.55.956 1.085 1.912 1.713 2.825l.193-.093c-.3-1.056-.628-2.09-.906-3.146z" fill="#CAE4EE"/><path d="M79.784 79.084a2.39 2.39 0 1 1-4.781-.001 2.39 2.39 0 0 1 4.781 0zM238.135 51.01a2.39 2.39 0 1 0 0-4.782 2.39 2.39 0 0 0 0 4.782zm14.939 60.928a2.39 2.39 0 1 0 0-4.782 2.39 2.39 0 0 0 0 4.782zm-21.513 84.814a2.39 2.39 0 1 1-4.78 0 2.39 2.39 0 0 1 4.78 0zM94.723 160.316a2.39 2.39 0 1 1-4.781-.001 2.39 2.39 0 0 1 4.781.001zm69.911 83.023a2.39 2.39 0 1 1-4.782-.002 2.39 2.39 0 0 1 4.782.002zm-17.329-88.994a2.392 2.392 0 0 1-4.783 0 2.39 2.39 0 0 1 4.783 0zM126.649 85.52c0 .734-.593 1.326-1.328 1.326a1.324 1.324 0 0 1-1.327-1.327c0-.735.592-1.327 1.327-1.327.735.008 1.328.6 1.328 1.327zm148.193-2.256c0 .735-.592 1.328-1.327 1.328a1.325 1.325 0 0 1-1.328-1.328c0-.734.592-1.326 1.328-1.326.735 0 1.327.592 1.327 1.326zm-81.523 20.904c0 .735-.592 1.327-1.327 1.327a1.325 1.325 0 0 1-1.328-1.327c0-.735.592-1.327 1.328-1.327.728 0 1.327.592 1.327 1.327zm74.821 4.181c0 .735-.592 1.327-1.327 1.327a1.325 1.325 0 0 1-1.328-1.327c0-.735.593-1.327 1.328-1.327.735 0 1.327.599 1.327 1.327zm6.574 52.431c0 .734-.593 1.327-1.328 1.327a1.325 1.325 0 0 1-1.327-1.327c0-.735.592-1.327 1.327-1.327a1.33 1.33 0 0 1 1.328 1.327zm-23.304 74.198c0 .735-.592 1.327-1.328 1.327a1.324 1.324 0 0 1-1.327-1.327c0-.735.592-1.327 1.327-1.327.736 0 1.328.592 1.328 1.327zm-87.84-14.932c0 .735-.592 1.327-1.327 1.327a1.325 1.325 0 0 1-1.328-1.327c0-.735.592-1.327 1.328-1.327.735 0 1.327.592 1.327 1.327zm-47.806-16.132c0 .735-.592 1.327-1.328 1.327a1.324 1.324 0 0 1-1.327-1.327c0-.734.592-1.327 1.327-1.327.736.008 1.328.6 1.328 1.327zm139.829.136c0 .735-.593 1.327-1.328 1.327a1.324 1.324 0 0 1-1.327-1.327c0-.735.592-1.327 1.327-1.327s1.328.592 1.328 1.327zM69.157 155.665c0 .735-.592 1.327-1.328 1.327a1.325 1.325 0 0 1-1.327-1.327c0-.735.592-1.327 1.328-1.327a1.33 1.33 0 0 1 1.327 1.327zM93.06 53.864c0 .735-.593 1.327-1.328 1.327a1.325 1.325 0 0 1-1.328-1.327c0-.735.593-1.327 1.328-1.327.735 0 1.327.599 1.327 1.327zm133.248 16.858c0 .735-.592 1.327-1.328 1.327a1.324 1.324 0 0 1-1.327-1.327c0-.735.592-1.327 1.327-1.327.736 0 1.328.592 1.328 1.327zm-74.821 71.073c0 .735-.593 1.327-1.328 1.327a1.324 1.324 0 0 1-1.327-1.327c0-.735.592-1.327 1.327-1.327.735.007 1.328.6 1.328 1.327z" fill="#D6EBF3"/><path d="M276.884 108.007c.078-4.167 1.299-8.405 3.768-11.915 2.384-3.56 6.281-6.107 10.3-7.327l1.406-.535c.471-.178.892-.457 1.341-.678.921-.42 1.706-1.049 2.549-1.598a23.122 23.122 0 0 0 4.268-4.28 29.398 29.398 0 0 0 3.126-5.266 30.81 30.81 0 0 0 2.07-5.85 26.227 26.227 0 0 1-4.297 11.765c-1.178 1.783-2.698 3.324-4.347 4.701-.878.621-1.734 1.292-2.705 1.755-.478.243-.935.543-1.434.742l-1.506.585-2.862 1.078-1.335.699-.664.35-.621.42c-1.713 1.05-3.14 2.512-4.396 4.088a22.19 22.19 0 0 0-3.027 5.294 26.588 26.588 0 0 0-1.634 5.972zm3.055 19.669c-.15-1.848-.029-3.71.235-5.543a29.12 29.12 0 0 1 1.314-5.422c.642-1.756 1.441-3.482 2.569-5.002 1.092-1.526 2.562-2.868 4.29-3.567-1.407 1.213-2.484 2.626-3.355 4.181-.421.778-.842 1.562-1.185 2.383a30.117 30.117 0 0 0-.978 2.49c-.613 1.683-1.099 3.417-1.57 5.165-.464 1.748-.885 3.517-1.32 5.315zM61.855 81.474c.743 1.933 2.106 3.524 3.633 4.83 1.52 1.334 3.262 2.39 5.06 3.303.929.406 1.835.856 2.791 1.184.479.171.943.371 1.42.528l1.457.442c.964.322 1.956.528 2.94.785l3.027.764c.506.12 1.006.278 1.506.456l1.492.507c.984.35 1.94.785 2.912 1.191 1.87.95 3.74 1.912 5.424 3.168 3.404 2.411 6.416 5.479 8.379 9.132a27.74 27.74 0 0 0-4.14-4.53c-1.505-1.377-3.154-2.576-4.86-3.675a40.048 40.048 0 0 0-11.084-4.872l-2.962-.778c-1.007-.278-2.034-.485-3.02-.85l-1.484-.506c-.493-.178-.97-.4-1.456-.592-.985-.37-1.906-.884-2.84-1.362-1.828-1.035-3.562-2.27-5.025-3.782-.743-.749-1.37-1.598-1.942-2.468-.564-.9-1.028-1.862-1.227-2.875zm151.777 179.787a55.343 55.343 0 0 0 6.488-5.957c1.97-2.148 3.79-4.431 5.31-6.899a36.969 36.969 0 0 0 3.726-7.827c.942-2.754 1.485-5.629 1.806-8.582a25.752 25.752 0 0 1-.742 8.903c-.343 1.47-.9 2.875-1.471 4.267-.599 1.384-1.327 2.711-2.112 3.995a34.928 34.928 0 0 1-5.732 6.927c-2.191 2.034-4.603 3.846-7.273 5.173zm-56.764-81.832c-1.663-3.717-2.448-7.798-2.734-11.865-.292-4.088.008-8.197.679-12.235.456-1.998.806-4.017 1.448-5.964.314-.971.564-1.969.928-2.918.364-.956.735-1.905 1.114-2.854.192-.471.364-.956.578-1.413l.664-1.377 1.349-2.739c.471-.899 1.034-1.755 1.548-2.633.521-.87 1.05-1.734 1.599-2.59-.799 1.87-1.727 3.667-2.512 5.522l-1.121 2.804-.571 1.399c-.185.463-.328.948-.492 1.426-.314.956-.635 1.905-.964 2.854-.328.949-.535 1.934-.813 2.89-.593 1.912-.921 3.895-1.349 5.843-.678 3.938-1.035 7.933-.971 11.936l.028 1.505.1 1.498c.043 1.006.172 1.998.293 2.997.243 1.99.628 3.966 1.199 5.914zm-37.05 15.532c2.72-.136 5.46.214 8.123.834a32.33 32.33 0 0 1 7.715 2.876c2.434 1.305 4.704 2.946 6.602 4.958a21.08 21.08 0 0 1 4.447 6.863c-1.535-2.24-3.233-4.309-5.225-6.064a29.7 29.7 0 0 0-3.119-2.447 30.723 30.723 0 0 0-3.383-2.055c-2.327-1.263-4.803-2.24-7.337-3.068a58.101 58.101 0 0 0-7.823-1.897zM67.23 70.123c-.235-.707-.471-1.413-.685-2.126l-.328-1.078-.229-1.098c-.142-.735-.292-1.47-.42-2.212l-.23-2.24c-.1-.75-.106-1.498-.106-2.255.007-.749-.05-1.505 0-2.254l.142-2.255c.065-.749.172-1.49.257-2.24a48.878 48.878 0 0 1 2.07-8.747c.964-2.832 2.149-5.6 3.719-8.14a93.433 93.433 0 0 0-2.648 8.461c-.728 2.847-1.328 5.73-1.72 8.626-.45 2.897-.593 5.822-.593 8.754l.05 2.197.186 2.198.078 1.106.172 1.091c.092.735.192 1.47.285 2.212z" fill="#fff"/></svg>