<svg width="366" height="512" fill="none" xmlns="http://www.w3.org/2000/svg"><path d="M130.013 369.627s20.082 10.323 12.968 38.372c0 0-23.506-18.367-12.968-38.372z" fill="#C2DEE9"/><path d="M142.999 407.937c7.078-28.005-12.978-38.31-12.978-38.31a1.63 1.63 0 0 0-.088.178l13.066 38.132z" fill="#E1F2FA"/><path d="M154.832 369.235s10.289 20.148-11.824 38.738c0 .008-8.374-28.682 11.824-38.738z" fill="#C2DEE9"/><path d="M143.052 407.937c22.06-18.581 11.78-38.702 11.78-38.702-.063.027-.116.063-.169.089l-11.611 38.613z" fill="#E1F2FA"/><path d="M109.779 384.782s4.231 22.238 33.069 23.253c0 0-10.973-27.792-33.069-23.253z" fill="#C2DEE9"/><path d="M142.786 408.035c-28.784-1.05-33.007-23.253-33.007-23.253a1.34 1.34 0 0 1 .187-.036l32.82 23.289z" fill="#E1F2FA"/><path d="M168.489 422.393c6.573 19.168 10.6 66.217 3.788 68.566-6.813 2.349-32.812-37.358-39.376-56.526-6.564-19.169-2.306-34.012 6.706-37.127 11.851-4.084 22.309 5.918 28.882 25.087z" fill="#fff"/><path d="M139.599 397.306a11.112 11.112 0 0 0-2.892 1.522c5.73-.383 10.902 2.225 14.964 6.354 2.582 2.625 16.792 20.904 20.003 64.562.337 4.601-3.318 9.655-8.791 8.748-2.67-.445-4.834-1.949-6.848-3.685-.603-.525-1.215-1.032-1.818-1.548 7.575 10.795 14.893 18.795 18.06 17.7 6.812-2.349 2.785-49.398-3.788-68.566-6.573-19.169-17.031-29.171-28.89-25.087z" fill="#E1F2FA"/><path d="M129.753 418.94c.798-.739 1.659-1.282 2.546-1.753.887-.481 1.809-.846 2.741-1.193.94-.302 1.898-.587 2.891-.747.985-.178 2.005-.285 3.078-.196l.045.116-5.606 2.002-5.651 1.886-.044-.115zm9.678 6.22c.825-.748 1.712-1.299 2.625-1.78.905-.489 1.854-.863 2.812-1.219.967-.311 1.952-.605 2.963-.774 1.011-.187 2.049-.303 3.158-.214l.044.116-5.757 2.047-5.801 1.931-.044-.107zm12.95-12.378c.718-.712 1.499-1.228 2.306-1.673.807-.454 1.65-.792 2.502-1.113.869-.276 1.738-.534 2.652-.667.913-.151 1.845-.231 2.847-.107l.045.116-5.136 1.833-5.172 1.718-.044-.107zm2.27 12.067c.949-.792 1.97-1.389 3.016-1.914 1.038-.533 2.12-.952 3.202-1.352 1.1-.356 2.209-.694 3.362-.908 1.145-.231 2.315-.391 3.548-.356l.045.116-6.547 2.322-6.581 2.207-.045-.115zm-21.918 9.103c.781-.738 1.641-1.272 2.52-1.744.869-.48 1.783-.845 2.705-1.183.931-.303 1.881-.579 2.856-.739.976-.169 1.978-.276 3.052-.178l.044.116-5.544 1.975-5.588 1.86-.045-.107z" fill="#C2DEE9"/><path d="M139.439 448.983c.896-.775 1.863-1.353 2.857-1.86.984-.516 2.013-.917 3.042-1.3 1.047-.338 2.102-.658 3.202-.854 1.091-.213 2.209-.356 3.389-.294l.044.116-6.227 2.207-6.262 2.091-.045-.106zm15.292.391c.799-.738 1.659-1.281 2.546-1.753.887-.48 1.81-.845 2.741-1.192.949-.303 1.898-.588 2.892-.748.993-.178 2.005-.285 3.078-.196l.044.116-5.615 2.002-5.65 1.887-.036-.116zm5.677 5.464c.994-.81 2.058-1.415 3.14-1.957 1.082-.552 2.2-.988 3.336-1.398 1.144-.373 2.297-.72 3.486-.952 1.188-.24 2.395-.418 3.672-.4l.044.115-6.794 2.412-6.839 2.296-.045-.116zm.932 6.319c-.878.765-1.819 1.334-2.785 1.833-.967.507-1.97.907-2.981 1.272-1.029.33-2.058.641-3.131.828-1.073.205-2.164.338-3.326.276l-.045-.116 6.094-2.162 6.13-2.047.044.116zm-1.658 7.768c.745-.721 1.561-1.246 2.403-1.699.834-.463 1.712-.819 2.591-1.14.896-.284 1.8-.551 2.741-.694.94-.16 1.907-.249 2.936-.142l.044.116-5.313 1.895-5.358 1.78-.044-.116zm7.93 4.877c-.71.712-1.482 1.219-2.289 1.664-.798.454-1.632.792-2.475 1.104-.86.275-1.721.525-2.625.658-.905.142-1.828.223-2.821.098l-.045-.116 5.083-1.815 5.127-1.7.045.107zm.443 8.934c.47-.631 1.011-1.058 1.57-1.414.559-.374 1.153-.623 1.765-.855.621-.187 1.242-.356 1.916-.409.665-.062 1.348-.062 2.102.142l.045.116-3.655 1.326-3.699 1.21-.044-.116z" fill="#F26322"/><path d="M145.772 443.875c1.304-5.509-1.809-10.457-3.575-15.476-1.596-4.538-4.408-9.735-3.61-14.71.488-3.043 1.916-6.558 4.728-8.062-1.463-.152-2.98.018-4.533.56-6.102 2.101-8.985 12.156-4.541 25.14 1.525 4.458 4.612 10.563 8.187 16.597 1.552-1.042 2.936-2.359 3.344-4.049z" fill="#fff"/><path d="M226.793 434.718c-4.116-8.357-7.735-11.338-9.633-23.271-2.022-12.726-5.899-20.833-20.038-20.833-13.51 0-17.936 6.452-21.12 20.254-2.378 10.323-2.981 14.025-6.99 21.038-4.586 8.026-8.232 16.196-8.232 32.935 0 20.254 15.062 29.713 35.721 29.713s36.972-8.516 36.972-28.779c0-13.242-.612-18.75-6.68-31.057z" fill="#C2DEE9"/><path d="M222.012 435.599c-3.45-7.422-6.484-10.065-8.081-20.664-1.694-11.302-4.949-18.492-16.809-18.492-11.336 0-15.044 5.731-17.714 17.985-1.996 9.166-2.501 12.45-5.863 18.679-3.85 7.128-6.91 14.381-6.91 29.242 0 17.985 12.64 26.385 29.973 26.385 17.323 0 31.01-7.564 31.01-25.549 0-11.764-.514-16.658-5.606-27.586z" fill="#D6EBF3"/><path d="M226.793 434.718c-4.116-8.357-7.735-11.338-9.633-23.271-2.022-12.726-5.899-20.833-20.038-20.833-2.918 0-5.411.303-7.566.917.266.089.532.169.78.258 3.247 1.103 6.6 2.945 8.933 5.526 5.907 6.532 5.233 15.039 7.211 23.084 2.395 9.745 16.215 22.194 16.703 44.166.124 5.535-2.076 9.824-5.704 13.829-7.291 8.062-17.102 9.459-27.861 7.172-7.274-1.539-12.339-4.52-17.501-9.352-5.802-5.429-11.337-11.373-11.337-11.373 0 20.254 15.062 29.713 35.721 29.713s36.972-8.516 36.972-28.779c0-13.242-.612-18.75-6.68-31.057z" fill="#E1F2FA"/><path d="M298.44 455.621c0 26.048-16.668 41.14-41.54 41.14-24.864 0-41.735-14.968-41.735-41.015 0-17.513 5.5-29.465 19.071-36.771 16.215-8.73 31.605-7.324 43.802-.783 11.957 6.425 20.402 17.282 20.402 37.429z" fill="#fff"/><path d="M229.455 457.908c5.047-1.388 7.327-4.939 7.3-10.153-.026-5.58-1.162-10.83 1.375-16.063 1.322-2.714 3.406-5.233 4.373-8.08.027-.063.036-.125.053-.187-2.643.738-5.331 1.815-8.054 3.284-10.112 5.446-14.21 14.354-14.21 27.408 0 1.54.089 3.017.239 4.441 2.999.151 6.05.142 8.924-.65z" fill="#fff"/><path d="M278.038 418.201c-5.66-3.034-12.002-4.957-18.788-5.286.39.178.781.365 1.18.552 6.511 3.186 13.678 7.137 18.459 12.743 4.036 4.726 6.529 10.412 7.513 16.552 1.056 6.577 1.526 13.767-.328 20.245-1.845 6.452-5.367 12.174-10.573 16.446-5.456 4.476-16.162 6.478-23.037 6.674-21.705.614-28.447-9.584-35.02-15.075 5.393 16.526 19.967 25.727 39.456 25.727 24.863 0 41.539-15.101 41.539-41.14 0-20.165-8.444-31.022-20.401-37.438z" fill="#D6EBF3"/><path d="M259.942 413.832s-.683-11.987 4.063-19.542c0 0-5.118-2.617-11.531 1.868 0 0 4.186 13.607 3.441 17.585l4.027.089z" fill="#C2DEE9"/><path d="M263.996 394.29s-1.499-.766-3.885-.757c0 0-.781 8.169-1.224 11.044-.257 1.7-1.863 7.938-2.981 9.05-.008.036-.008.071-.017.107l4.036.098c.017 0-.666-11.987 4.071-19.542z" fill="#E1F2FA"/><path d="M270.462 414.971c7.301 2.456 9.545 12.423 9.545 12.423-1.659-2.287-9.944-6.959-9.944-6.959.905 4.859-2.04 10.029-2.04 10.029-4.816-7.431-9.704-10.474-9.704-10.474-5.987 2.18-12.738 9.896-12.738 9.896.178-5.34 1.242-9.665 1.242-9.665-9.243.855-13.199 5.064-13.199 5.064 2.093-6.39 7.398-9.407 7.398-9.407s13.332-6.327 29.44-.907z" fill="#C2DEE9"/><path d="M280.007 427.394s-2.235-9.976-9.544-12.423c-.178-.063-.346-.107-.524-.16 1.216 1.477 2.59 3.132 2.848 5.019.035.267-3.797-1.682-4.826-1.62-.656.044-.151 7.146-.825 6.986-1.49-.347-3.184-2.198-4.151-3.248-1.49-1.62-4.551-4.592-5.952-4.05-2.156.837-7.522 5.117-7.637 4.628-.213-.908-.745-4.334-.745-4.334s-8.232 1.655-8.161 1.415c.363-1.192.736-2.581.736-3.8l-.222.098s-5.304 3.017-7.398 9.406c0 0 3.957-4.209 13.199-5.063 0 0-1.064 4.316-1.241 9.664 0 0 6.759-7.715 12.737-9.896 0 0 4.897 3.044 9.705 10.475 0 0 2.944-5.171 2.04-10.03.017-.026 8.302 4.646 9.961 6.933z" fill="#E1F2FA"/><path d="M285.719 476.721s1.419-5.669-.461-11.142c-2.608-7.591 6.156-14.389 12.196-13.624 5.056.649 7.026-4.565 10.742-6.639 3.717-2.073 8.729-4.823 13.439-.899 4.71 3.925 5.659 1.433 10.529 1.567 6.777.195 10.609 9.335 8.382 14.238-2.217 4.903-6.741 4.797-4.896 10.243 1.845 5.446-3.557 7.341-6.75 8.756-3.185 1.415-6.068 5.242-8.01 8.801-2.493 4.583-8.746 6.63-16.597 3.693-7.034-2.634-10.263-7.021-13.527-6.781l-5.047-8.213z" fill="#C2DEE9"/><path d="M335.659 470.474c-1.845-5.446 2.67-5.34 4.896-10.243.976-2.136.79-5.081-.284-7.742a10.513 10.513 0 0 1-1.614 2.785c-1.473 1.798-3.273 3.284-4.879 4.957-1.135 1.184-2.43 2.394-3.06 3.942-1.304 3.204-.293 7.048-2.014 10.127-1.126 2.02-3.22 2.759-5.127 3.827-2.421 1.361-3.716 3.889-5.801 5.66-3.22 2.74-7.522 3.906-11.629 2.66-2.324-.703-4.302-2.029-6.307-3.363-2.466-1.638-4.887-3.364-7.087-5.358-1.827-1.664-3.433-3.346-4.32-5.686-.745-1.985-1.224-4.102-2.262-5.962-.053.089-.168.142-.266.053-.204-.16-.408-.329-.612-.489 1.854 5.455.443 11.088.443 11.088l5.048 8.222c3.264-.24 6.493 4.156 13.527 6.781 7.859 2.937 14.104.89 16.596-3.693 1.943-3.559 4.826-7.386 8.01-8.801 3.185-1.424 8.587-3.319 6.742-8.765z" fill="#E1F2FA"/><path d="M291.528 480.992s4.967-3.07 10.733-2.919c8.001.205 11.824-10.225 9.278-15.769-2.137-4.636 2.227-8.098 3.078-12.271.852-4.183 1.952-9.807-3.193-13.126-5.145-3.32-3.06-4.975-4.666-9.602-2.226-6.425-12.072-7.342-16.064-3.738-3.991 3.604-2.528 7.894-8.258 7.769-5.73-.116-5.908 5.615-6.289 9.095-.39 3.479-3.158 7.386-5.952 10.314-3.602 3.764-3.672 10.358 1.49 16.997 4.621 5.935 9.997 7.875 10.751 11.061l9.092 2.189z" fill="#C2DEE9"/><path d="M286.154 471.257c-2.422-2.474-5.482-4.2-8.347-6.078-1.366-.89-2.732-1.816-3.957-2.901-1.055-.943-2.128-1.994-2.483-3.417-.754-3.062 1.18-6.132 2.945-8.463 1.428-1.878 3.211-3.507 4.532-5.464.879-1.3 1.304-2.617 1.491-4.174.124-.997.177-2.1.603-3.026 1.738-3.728 6.52-3.034 9.668-4.52 2.067-.97 3.158-3.088 4.915-4.476a17.23 17.23 0 0 1 5.765-2.991c1.349-.4 2.715-.667 4.107-.836-3.53-4.2-11.274-4.441-14.707-1.344-3.991 3.604-2.528 7.894-8.258 7.769-5.73-.116-5.908 5.615-6.289 9.095-.39 3.479-3.158 7.386-5.952 10.314-3.601 3.764-3.672 10.358 1.49 16.997 4.622 5.935 9.997 7.875 10.751 11.061l6.484 1.557c.683-3.417-.292-6.576-2.758-9.103z" fill="#E1F2FA"/><path d="M318.69 476.187c.533-4.023 1.837-8.632 4.311-11.106 2.466-2.474 6.831-6.194 3.149-10.608-3.672-4.414.577-5.944.887-11.319.311-5.375-6.546-12.521-12.941-10.252-4.595 1.629-4.586 4.298-10.388 2.341-5.801-1.958-9.491 2.42-12.214 5.695-2.723 3.275-2.688 8.854-7.637 10.073-5.917 1.46-11.638 10.973-6.485 17.113 3.247 3.862 5.092 9.077 4.968 10.385-.71 7.564-9.589 14.203-9.589 14.203l7.744 5.695s4.293-10.02 11.425-13.606c2.129-1.068 5.987.916 12.596.845 8.4-.106 13.491-4.28 14.174-9.459z" fill="#fff"/><path d="M318.69 476.187c.533-4.023 1.837-8.632 4.311-11.106 2.466-2.474 6.831-6.194 3.149-10.608-3.672-4.414.577-5.944.887-11.319.258-4.396-4.275-9.958-9.429-10.617.293.169.568.356.834.561.745.578 1.393 1.264 1.668 2.189.257.881.213 1.887.177 2.794-.044 1.211-.053 2.421-.213 3.622-.177 1.291-.426 2.59-.417 3.898.018 2.305.878 4.485 1.411 6.701.434 1.815.922 4.191.106 5.98-.479 1.041-1.348 1.513-2.129 2.296-1.233 1.228-.931 2.687-1.1 4.254-.257 2.367-1.064 4.627-2.217 6.701-1.26 2.278-2.83 4.378-4.613 6.273-1.526 1.638-3.131 3.133-5.287 3.889-2.173.765-4.39.863-6.67.739-1.464-.08-2.98-.178-4.417.178-1.162.293-2.262.774-3.353 1.272-1.81.828-8.427 4.192-8.693.054-.098-1.469.612-2.866.86-4.281.444-2.491-.177-5.063-1.047-7.395-1.614-4.325-3.22-9.183-6.839-12.147-.656 2.732-.301 5.633 1.703 8.018 3.247 3.862 5.092 9.077 4.968 10.385-.71 7.564-9.589 14.203-9.589 14.203l7.744 5.695s4.293-10.02 11.425-13.606c2.129-1.068 5.987.916 12.596.845 8.4-.115 13.491-4.289 14.174-9.468z" fill="#E1F2FA"/><path d="M288.992 477.504c-.577-1.771-.976-3.471-1.375-5.162a417.407 417.407 0 0 1-1.1-5.01c-.364-1.655-.719-3.301-1.1-4.974-.373-1.673-.798-3.337-1.162-5.179 1.463 1.174 2.546 2.705 3.415 4.324.852 1.629 1.455 3.382 1.836 5.171.39 1.788.559 3.613.497 5.428a20.099 20.099 0 0 1-.266 2.723c-.16.908-.373 1.807-.745 2.679z" fill="#C2DEE9"/><path d="M288.992 477.504c.719-.614 1.517-1.077 2.324-1.504a20.72 20.72 0 0 1 2.511-1.068 22.7 22.7 0 0 1 5.331-1.148 20.15 20.15 0 0 1 5.473.214c1.809.338 3.592.907 5.153 1.966-1.863.205-3.575.303-5.287.445-1.703.134-3.379.285-5.073.436-1.686.152-3.38.312-5.11.445-1.712.116-3.45.232-5.322.214zm7.158-8.668c-.577-1.646-.958-3.212-1.34-4.778-.363-1.558-.7-3.097-1.02-4.619l-.975-4.592c-.329-1.548-.683-3.097-.976-4.814 1.401 1.059 2.421 2.474 3.229 3.978a18.334 18.334 0 0 1 1.712 4.796 20.58 20.58 0 0 1 .417 5.046 18.766 18.766 0 0 1-.293 2.518c-.178.828-.39 1.656-.754 2.465zm0 0c.648-.596 1.375-1.05 2.12-1.459a17.267 17.267 0 0 1 2.307-1.041 20.216 20.216 0 0 1 4.914-1.122 18.347 18.347 0 0 1 5.074.187c1.676.321 3.326.872 4.754 1.896-1.73.24-3.308.356-4.87.516l-4.657.454c-1.552.151-3.113.293-4.701.418-1.596.098-3.211.205-4.941.151zm6.484-8.881c-.47-1.584-.763-3.07-1.047-4.547a362.527 362.527 0 0 1-.754-4.352c-.239-1.433-.47-2.865-.727-4.307-.249-1.459-.541-2.91-.781-4.547 1.348.97 2.315 2.331 3.052 3.764a15.687 15.687 0 0 1 1.472 4.592 17.6 17.6 0 0 1 .124 4.779 14.26 14.26 0 0 1-.452 2.358c-.204.765-.47 1.53-.887 2.26zm0 0c.63-.578 1.339-1.023 2.058-1.433.727-.4 1.472-.738 2.244-1.032a19.964 19.964 0 0 1 4.772-1.13c1.632-.178 3.3-.151 4.941.142 1.632.303 3.255.837 4.648 1.842-1.685.25-3.211.392-4.737.57l-4.524.498c-1.508.16-3.024.312-4.577.427-1.561.107-3.131.196-4.825.116z" fill="#C2DEE9"/><path d="M93.828 414.811c3.521-5.847 8.16-8.454 12.587-9.549 5.925-1.459 11.575.214 14.742 4.352 4.515 5.9 9.483 21.927 17.617 33.94 6.803 10.056 17.244 14.185 18.734 25.167 1.756 12.965-5.216 19.31-17.359 21.98-15.204 3.346-24.465-5.633-31.189-16.855-7.743-12.912-24.215-43.943-15.132-59.035z" fill="#D6EBF3"/><path d="M93.828 414.81c.053-.089.106-.169.16-.249.789 3.186 1.756 6.336 2.723 9.478 3.237 10.509 7.105 21.259 13.846 30.078 3.726 4.868 7.212 9.976 11.478 14.399 3.983 4.138 9.146 8.445 14.894 9.7 5.49 1.192 11.363-.383 15.771-3.818 1.81-1.415 3.921-3.159 4.834-5.384 1.615 12.779-5.34 19.044-17.394 21.696-15.204 3.346-24.465-5.633-31.188-16.855-7.735-12.921-24.207-43.952-15.124-59.045zm11.567-8.729s.195-7.475-3.522-11.213c0 0 2.617-2.171 6.901-.427 0 0-.213 8.303.728 10.501l-4.107 1.139z" fill="#C2DEE9"/><path d="M101.873 394.868s.763-.632 2.147-.943c0 0 1.614 4.574 2.129 6.211.647 2.038 2.545 4.254 3.326 4.743.009.018.018.045.027.063l-4.107 1.139s.186-7.475-3.522-11.213z" fill="#E1F2FA"/><path d="M117.565 406.401s4.914 6.692 3.894 10.946c0 0-4.373-5.117-8.196-6.096 0 0 1.73 4.636.053 7.751 0 0-3.787-5.366-7.531-5.864 0 0-2.776 2.607-2.297 6.353 0 0-4.959-2.384-2.191-7.724 0 0-5.642 4.503-4.151 10.937 0 0-3.903-4.316-2.289-9.46-.009.009 8.613-13.579 22.708-6.843z" fill="#C2DEE9"/><path d="M94.848 413.253s2.067-3.257 5.837-5.793c-.7 1.246-1.206 2.696-1.073 4.031.017.178 1.747-.587 2.554-.649.009 1.112.018 2.304.852 3.132.115.107.94-1.415 1.215-2.109.186-.472.532-1.709 1.348-1.477.462.124.914.293 1.331.534 1.295.747 3.734 2.732 3.779 2.607.372-.917.292-1.878.168-2.839-.062-.516-.168-1.023-.257-1.53-.062-.356-.39-.988.417-.766.222.054.443.125.656.205 1.508.445 2.963.845 4.311 1.691.657.409 2.715 1.388 2.697 1.263-.275-2.224-1.437-4.031-2.67-5.811.505.196 1.02.419 1.552.668 0 0 4.914 6.692 3.894 10.946 0 0-4.373-5.117-8.196-6.096 0 0 1.73 4.636.053 7.751 0 0-3.787-5.366-7.531-5.865 0 0-2.776 2.608-2.297 6.354 0 0-4.959-2.385-2.191-7.724 0 0-5.641 4.503-4.151 10.937-.01 0-3.912-4.316-2.298-9.46z" fill="#E1F2FA"/><path d="M172.889 434.86s10.387-2.946 17.04 9.442c4.195 7.804 6.368 60.771-16.881 46.515 0 0 2.803-5.304 2.803-27.97 0-24.908-2.962-27.987-2.962-27.987zm-11.265 1.13s-14.078-3.898-18.433 7.929c-3.051 8.267-5.154 61.056 18.095 46.916 0 0-2.803-5.26-2.803-27.756.009-24.722 3.141-27.089 3.141-27.089z" fill="#C2DEE9"/><path d="M154.368 441.071c.851 26.929-1.827 51.792 13.137 51.792 10.396 0 11.052-17.682 10.76-51.24-.116-12.886-24.243-11.462-23.897-.552z" fill="#C2DEE9"/><path d="M151.582 439.879s1.721-3.48 14.166-1.646c3.513.516 8.143-3.524 15.221 1.628 0 0-10.644 3.337-15.026 3.275-3.681-.044-10.006-.285-14.361-3.257z" fill="#A5C9D7"/><path d="M171.168 441.748s12.915-7.137 19.391 1.806c7.22 9.976 8.063 67.721-17.404 53.261 0 0 3.069-5.384 3.069-28.388 0-25.291-5.056-26.679-5.056-26.679z" fill="#fff"/><path d="M162.271 442.184s-14.219-6.808-19.852 2.02c-7.096 11.124-7.601 66.973 17.865 52.611 0 0-3.069-5.34-3.069-28.175 0-25.077 5.056-26.456 5.056-26.456z" fill="#E1F2FA"/><path d="M165.944 441.134c-4.826-.098-11.576-3.266-11.576 8.845 0 27.347-3.663 48.9 12.729 48.9 11.381 0 11.496-14.025 11.052-48.081-.195-14.123-7.309-9.558-12.205-9.664z" fill="#D4E8F1"/><path d="M190.558 443.554c-2.288-3.159-5.375-4.307-8.418-4.476 1.65 4.592 2.644 9.389 3.522 14.185.505 2.75.993 5.491 1.135 8.294a53.53 53.53 0 0 1-.292 8.676c-.16 1.451-.364 2.893-.506 4.343-.115 1.175-.231 2.376-.603 3.506-.657 1.985-1.774 3.898-3.016 5.571-2.333 3.159-5.846 6.256-10.015 6.212-2.617-.018-5.136-.588-7.619-1.406-2.919-.97-5.828-.116-8.534 1.094-3.69 1.655-8.382 3.586-11.895.516-1.348-1.174-2.581-3.132-4.036-4.618 2.865 10.643 8.968 17.486 19.834 11.462 1.783 1.281 4.063 1.966 6.981 1.966 2.599 0 4.604-.729 6.156-2.26a2.049 2.049 0 0 1-.088.187c25.448 14.47 24.615-43.276 17.394-53.252z" fill="#E1F2FA"/><path d="M167.31 439.683s-.674-11.702 3.965-19.079c0 0-4.994-2.554-11.256 1.824 0 0 4.089 13.286 3.361 17.166l3.93.089z" fill="#C2DEE9"/><path d="M171.276 420.604s-1.464-.748-3.788-.739c0 0-.754 7.974-1.189 10.777-.257 1.664-1.818 7.751-2.909 8.837-.009.035-.009.071-.018.106l3.938.098s-.665-11.702 3.966-19.079z" fill="#E1F2FA"/><path d="M109.324 479.417s-5.207-2.625-10.937-1.975c-7.957.898-12.667-9.157-10.6-14.906 1.73-4.806-2.91-7.876-4.116-11.96-1.206-4.094-2.785-9.602 2.058-13.358 4.843-3.755 2.626-5.224 3.823-9.967 1.668-6.594 11.398-8.356 15.683-5.108 4.293 3.248 3.193 7.645 8.897 7.022 5.703-.614 6.369 5.09 7.052 8.516.683 3.426 3.778 7.084 6.821 9.762 3.912 3.444 4.55 10.003-.027 17.059-4.089 6.319-9.074 8.517-9.544 11.765l-9.11 3.15z" fill="#C2DEE9"/><path d="M114.123 429.165c-5.704.614-4.613-3.783-8.897-7.022-1.863-1.415-4.772-1.877-7.593-1.406a10.422 10.422 0 0 1 2.36 2.189c1.427 1.834 2.474 3.925 3.76 5.856.896 1.361 1.801 2.901 3.167 3.862 2.83 1.976 6.795 1.815 9.411 4.174 1.721 1.548 1.979 3.746 2.608 5.855.79 2.67 2.972 4.494 4.249 6.915 1.969 3.746 2.165 8.222.053 11.96-1.197 2.118-2.918 3.773-4.648 5.446-2.128 2.056-4.337 4.058-6.759 5.767-2.022 1.424-4 2.634-6.475 2.99-2.102.302-4.258.302-6.298.916.08.071.106.196 0 .276-.204.16-.408.329-.612.49 5.704-.623 10.875 1.984 10.875 1.984l9.11-3.15c.47-3.248 5.455-5.455 9.544-11.765 4.568-7.056 3.939-13.615.027-17.059-3.043-2.679-6.138-6.327-6.821-9.762-.692-3.435-1.358-9.139-7.061-8.516z" fill="#E1F2FA"/><path d="M114.743 474.665s-1.907-5.526-.505-11.141c1.951-7.787-7.363-13.812-13.315-12.512-4.976 1.076-7.389-3.943-11.274-5.687-3.876-1.744-9.11-4.049-13.465.267-4.355 4.316-5.508 1.913-10.352 2.474-6.741.783-9.775 10.225-7.131 14.915 2.634 4.69 7.122 4.191 5.756 9.78-1.366 5.588 4.178 7.012 7.478 8.142 3.3 1.139 6.493 4.699 8.737 8.081 2.883 4.351 9.279 5.846 16.854 2.242 6.786-3.23 9.837-8.071 13.11-8.116l4.107-8.445z" fill="#C2DEE9"/><path d="M104.099 477.806c-2.927 1.834-5.278 4.45-7.726 6.853-1.17 1.148-2.36 2.287-3.69 3.239-1.144.827-2.404 1.655-3.867 1.691-3.14.071-5.713-2.492-7.593-4.726-1.517-1.806-2.715-3.906-4.329-5.633-1.073-1.148-2.262-1.851-3.734-2.367-.95-.338-2.005-.632-2.821-1.255-3.247-2.509-1.535-7.048-2.289-10.447-.488-2.234-2.315-3.764-3.282-5.793a17.28 17.28 0 0 1-1.659-6.301 24.593 24.593 0 0 1 .09-4.2c-4.853 2.536-6.778 10.065-4.516 14.105 2.635 4.69 7.123 4.191 5.757 9.78-1.366 5.588 4.178 7.012 7.478 8.142 3.3 1.139 6.493 4.699 8.737 8.081 2.883 4.351 9.278 5.846 16.854 2.242 6.785-3.23 9.837-8.071 13.11-8.116l2.927-6.007c-3.167-1.414-6.449-1.156-9.447.712z" fill="#E1F2FA"/><path d="M115.985 447.025c-3.805-1.397-7.992-3.684-9.864-6.639-1.871-2.954-4.533-8.035-9.633-5.393-5.1 2.635-5.66-1.859-10.822-3.337-5.162-1.477-13.607 3.676-12.79 10.439.585 4.859 3.184 5.419.017 10.679-3.167 5.259.284 9.824 2.883 13.206 2.59 3.381 8.019 4.565 8.143 9.673.133 6.105 8.134 13.784 15.23 10.074 4.462-2.332 9.944-3.008 11.186-2.599 7.202 2.34 11.726 12.476 11.726 12.476l7.221-6.336s-8.809-6.389-10.742-14.158c-.577-2.314 2.199-5.66 3.566-12.147 1.72-8.249-1.233-14.14-6.121-15.938z" fill="#fff"/><path d="M115.986 447.025c-3.805-1.397-7.992-3.684-9.864-6.639-1.872-2.954-4.533-8.036-9.633-5.393-5.1 2.635-5.66-1.859-10.822-3.337-4.213-1.21-10.627 2.012-12.383 6.915.23-.249.47-.481.727-.694.728-.605 1.526-1.095 2.493-1.148.914-.063 1.88.204 2.759.436 1.17.311 2.341.578 3.477.997 1.215.453 2.43.978 3.699 1.254 2.253.481 4.55.116 6.821.071 1.863-.035 4.276.018 5.846 1.202.913.694 1.179 1.646 1.765 2.581.931 1.477 2.413 1.495 3.894 2.002 2.244.765 4.275 2.055 6.041 3.631 1.942 1.726 3.645 3.728 5.1 5.882 1.26 1.851 2.368 3.755 2.635 6.024.275 2.296-.116 4.494-.737 6.692-.39 1.415-.825 2.884-.789 4.361.026 1.201.257 2.385.505 3.56.417 1.957 2.245 9.165-1.845 8.525-1.445-.232-2.652-1.219-3.973-1.78-2.333-.979-4.968-.934-7.425-.587-4.56.64-9.633 1.148-13.305 4.058 2.519 1.237 5.41 1.521 8.17.08 4.461-2.332 9.943-3.008 11.185-2.599 7.202 2.341 11.726 12.477 11.726 12.477l7.221-6.337s-8.809-6.389-10.742-14.158c-.577-2.314 2.2-5.66 3.566-12.147 1.729-8.24-1.225-14.131-6.112-15.929z" fill="#E1F2FA"/><path d="M110.796 476.383c-1.854.178-3.593.204-5.322.222-1.73.009-3.424 0-5.11-.009-1.685-.009-3.37-.018-5.073 0-1.712 0-3.424.054-5.287.009 1.455-1.183 3.184-1.904 4.958-2.403a20.749 20.749 0 0 1 5.429-.676c1.818.009 3.637.249 5.393.694.878.232 1.748.507 2.581.854.834.356 1.659.757 2.431 1.309zm0-.001c-.434-.836-.718-1.717-.957-2.607a19.878 19.878 0 0 1-.488-2.696 22.961 22.961 0 0 1 .044-5.464 20.556 20.556 0 0 1 1.401-5.313c.719-1.691 1.668-3.319 3.034-4.619-.213 1.86-.488 3.56-.718 5.269-.24 1.699-.462 3.372-.683 5.063-.222 1.682-.435 3.382-.683 5.099-.258 1.718-.524 3.444-.95 5.268zm-6.875-8.89c-1.729.205-3.335.241-4.94.276-1.597.018-3.158.009-4.72-.009l-4.674-.044c-1.579-.027-3.158-.009-4.905-.089 1.33-1.139 2.936-1.833 4.577-2.296 1.65-.454 3.353-.65 5.038-.623 1.694.018 3.37.249 4.994.685.816.223 1.614.499 2.386.837.781.338 1.544.73 2.244 1.263zm0 0c-.434-.765-.718-1.575-.958-2.393a17.057 17.057 0 0 1-.514-2.492 20.073 20.073 0 0 1-.018-5.055 18.152 18.152 0 0 1 1.295-4.93c.674-1.566 1.579-3.07 2.874-4.245-.142 1.745-.372 3.311-.559 4.886l-.576 4.663c-.195 1.557-.39 3.106-.621 4.69-.24 1.593-.497 3.186-.923 4.876zm-7.229-8.284c-1.64.115-3.149.08-4.648.035-1.49-.053-2.954-.133-4.4-.213-1.445-.08-2.891-.16-4.355-.223-1.472-.071-2.945-.107-4.595-.222 1.242-1.104 2.768-1.762 4.33-2.172 1.57-.4 3.183-.534 4.78-.445a17.36 17.36 0 0 1 4.675.917c.754.258 1.49.57 2.19.952.72.374 1.411.801 2.023 1.371z" fill="#C2DEE9"/><path d="M96.692 459.208c-.425-.748-.71-1.54-.949-2.332-.23-.792-.4-1.602-.514-2.42a19.868 19.868 0 0 1-.054-4.922c.187-1.637.577-3.266 1.216-4.805.647-1.531 1.516-3.008 2.803-4.147-.124 1.7-.32 3.23-.48 4.761l-.505 4.538a121.91 121.91 0 0 1-.585 4.575c-.231 1.548-.48 3.105-.932 4.752zm63.689 16.294c0 11.595-9.367 20.992-20.925 20.992s-20.925-9.397-20.925-20.992c0-11.596 9.367-20.993 20.925-20.993s20.925 9.397 20.925 20.993z" fill="#C2DEE9"/><path d="M156.151 475.502c0 9.246-7.469 16.747-16.694 16.747-9.217 0-16.694-7.493-16.694-16.747 0-9.246 7.477-16.748 16.694-16.748 9.216 0 16.694 7.502 16.694 16.748z" fill="#D6EBF3"/><path d="M139.518 466.878c.86.009 2.599 5.464-.071 5.438-2.555-.018-1.091-5.446.071-5.438zm-.159 17.522c.86.009 2.696-5.419.026-5.437-2.554-.035-1.188 5.42-.026 5.437zm-6.068-15.048c.612-.605 5.686 2.02 3.779 3.898-1.809 1.798-4.604-3.079-3.779-3.898zm12.241 12.503c.612-.605-1.916-5.74-3.814-3.862-1.828 1.789 2.98 4.681 3.814 3.862zm-14.893-6.336c.009-.863 5.446-2.607 5.428.072-.026 2.562-5.437 1.094-5.428-.072zm17.465.161c.009-.864-5.402-2.706-5.419-.027-.027 2.563 5.402 1.192 5.419.027zm-14.999 6.086c-.603-.614 2.022-5.704 3.885-3.8 1.792 1.825-3.069 4.628-3.885 3.8zm12.462-12.28c-.603-.614-5.73 1.913-3.858 3.826 1.791 1.834 4.674-2.99 3.858-3.826zm-1.542-5.339c.807.293.638 6.024-1.872 5.108-2.404-.873.781-5.509 1.872-5.108z" fill="#fff"/><path d="M134.808 486.866c.807.293 4.338-4.21 1.827-5.126-2.395-.872-2.918 4.725-1.827 5.126zm.009-22.052c.781-.365 4.692 3.809 2.28 4.939-2.316 1.086-3.327-4.45-2.28-4.939zm9.278 21.669c.781-.365.107-6.051-2.315-4.921-2.315 1.085 1.26 5.41 2.315 4.921zm-15.984-16.267c.408-.757 6.032.24 4.763 2.598-1.206 2.252-5.313-1.575-4.763-2.598zm22.735 9.913c.292-.81-4.196-4.351-5.11-1.833-.869 2.403 4.71 2.928 5.11 1.833zm-22.762.071c-.364-.783 3.796-4.707 4.923-2.287 1.082 2.323-4.435 3.337-4.923 2.287zm22.557-9.192c-.364-.784-6.032-.098-4.905 2.322 1.082 2.323 5.393-1.263 4.905-2.322z" fill="#fff"/><path d="M147.511 456.12c2.892 4.102 4.843 8.765 4.878 13.855.027 5.162-.7 10.644-4.169 14.71-3.016 3.542-7.335 5.696-11.948 6.123-4.408.409-9.482-.329-12.818-3.489-1.534-1.45-2.465-3.168-3.406-5.019-.266-.525-.559-1.13-.896-1.735 2.262 9.139 10.494 15.92 20.305 15.92 11.558 0 20.925-9.397 20.925-20.992 0-8.721-5.314-16.205-12.871-19.373z" fill="#E1F2FA"/><path d="M244.614 479.791c0 11.595-9.367 20.993-20.916 20.993-11.558 0-20.926-9.398-20.926-20.993 0-11.595 9.368-20.993 20.926-20.993 11.549 0 20.916 9.398 20.916 20.993z" fill="#C2DEE9"/><path d="M240.383 479.791c0 9.246-7.469 16.739-16.685 16.739-9.216 0-16.694-7.493-16.694-16.739s7.469-16.748 16.694-16.748c9.216 0 16.685 7.502 16.685 16.748z" fill="#D6EBF3"/><path d="M223.75 471.168c.861.009 2.599 5.464-.071 5.437-2.554-.018-1.091-5.446.071-5.437zm-.16 17.522c.861.009 2.697-5.42.027-5.437-2.546-.027-1.189 5.419-.027 5.437zm-6.058-15.048c.613-.605 5.686 2.02 3.779 3.897-1.818 1.798-4.612-3.079-3.779-3.897zm12.233 12.503c.612-.605-1.907-5.74-3.814-3.862-1.819 1.789 2.989 4.681 3.814 3.862zm-14.885-6.336c.009-.863 5.446-2.608 5.42.071-.027 2.563-5.438 1.095-5.42-.071zm17.457.16c.009-.863-5.402-2.705-5.429-.027-.017 2.563 5.42 1.193 5.429.027zm-14.991 6.087c-.603-.614 2.014-5.704 3.885-3.8 1.783 1.824-3.078 4.627-3.885 3.8zm12.462-12.272c-.603-.614-5.73 1.913-3.858 3.827 1.792 1.824 4.666-2.999 3.858-3.827zm-1.552-5.348c.807.294.639 6.025-1.871 5.108-2.404-.872.78-5.508 1.871-5.108z" fill="#fff"/><path d="M219.04 491.155c.807.294 4.337-4.209 1.827-5.126-2.395-.872-2.918 4.726-1.827 5.126zm.009-22.051c.781-.365 4.702 3.808 2.28 4.938-2.315 1.086-3.326-4.449-2.28-4.938zm9.279 21.668c.78-.365.106-6.051-2.316-4.921-2.315 1.086 1.269 5.411 2.316 4.921zm-15.976-16.267c.408-.756 6.032.24 4.764 2.599-1.207 2.251-5.314-1.576-4.764-2.599zm22.726 9.913c.293-.809-4.196-4.351-5.109-1.833-.87 2.403 4.719 2.928 5.109 1.833zm-22.762.072c-.363-.783 3.797-4.708 4.923-2.287 1.083 2.322-4.426 3.337-4.923 2.287zm22.557-9.193c-.363-.783-6.031-.107-4.905 2.323 1.091 2.322 5.402-1.264 4.905-2.323z" fill="#fff"/><path d="M231.743 460.409c2.892 4.102 4.843 8.766 4.879 13.856.026 5.161-.701 10.652-4.169 14.71-3.016 3.533-7.336 5.695-11.949 6.122-4.408.41-9.473-.329-12.817-3.488-1.535-1.451-2.466-3.168-3.406-5.019-.275-.525-.559-1.13-.896-1.735 2.262 9.139 10.493 15.92 20.304 15.92 11.558 0 20.916-9.398 20.916-20.993.009-8.721-5.304-16.205-12.862-19.373z" fill="#E1F2FA"/><path d="M352.841 502.038c0 5.162-4.107 9.344-9.181 9.344H51.817c-5.073 0-9.18-4.182-9.18-9.344v-5.188c0-5.161 4.107-9.344 9.18-9.344H343.66c5.074 0 9.181 4.183 9.181 9.344v5.188z" fill="#E1F2FA"/><path d="M323.888 347.365c-11.496-57.46-64.949-100.878-129.09-100.781-64.15.098-117.47 43.677-128.788 101.164l257.878-.383z" fill="#FAFDFF"/><path d="M245.723 256.186a125.467 125.467 0 0 1 2.199 10.572c.994 6.078 1.624 12.236 2.12 18.377.533 6.585.914 13.375-.266 19.916-.869 4.841-2.439 9.53-5.739 13.277-3.158 3.586-7.194 6.292-11.531 8.249-9.057 4.094-18.752 5.518-28.518 6.719-15.834 1.958-31.818 1.993-47.749 1.664-16.162-.329-32.288-.65-48.45-.632-8.072.009-16.233.356-24.296-.098-4.541-.258-9.118-.765-13.687-.889a117.174 117.174 0 0 0-3.805 14.398l257.878-.383c-8.249-41.273-38.169-75.312-78.156-91.17z" fill="#F1FBFF"/><path d="M205.585 239.821c.008 5.98-4.817 10.839-10.778 10.848-5.961.009-10.804-4.832-10.813-10.821-.018-5.98 4.817-10.839 10.778-10.848 5.961-.009 10.804 4.832 10.813 10.821z" fill="#D6EBF3"/><path d="M82.27 401.053c2.918-7.057 11.806-30.186 11.229-30.47-.514-.258-15.62 28.485-15.62 28.485l-.94-.427s10.972-28.566 10.617-28.726c-.382-.169-14.734 26.875-14.734 26.875l-1.224-.552s11.017-28.547 10.618-28.725c-.417-.187-14.734 26.874-14.734 26.874l-.842-.382s11.638-30.372 11.274-30.515c-.426-.169-12.365 21.74-15.718 28.655-1.774 3.657-4.852 10.456.142 17.745l-35.082 78.702s-1.278 3.15 1.88 4.574c2.918 1.317 4.453-1.717 4.453-1.717l35.082-78.676c8.338-.837 11.984-7.805 13.598-11.72z" fill="#E1F2FA"/><path d="M82.97 399.415c2.918-7.056 11.114-28.547 10.538-28.832-.515-.258-15.62 28.485-15.62 28.485l-.941-.427s10.972-28.565 10.618-28.726c-.382-.169-14.734 26.875-14.734 26.875l-1.224-.551s-42.498 96.9-42.471 96.918c2.918 1.317 4.453-1.717 4.453-1.717l35.082-78.676c9.039-.712 12.675-9.433 14.299-13.349zm230.149-35.106c-3.388-5.259-5.898.338-5.898.338-3.3 42.315 22.947 56.233 22.947 56.233h.009l28.864 70.942s1.357 2.973 4.267 1.762c2.687-1.121 1.57-4.191 1.57-4.191l-51.759-125.084z" fill="#E1F2FA"/><path d="M308.826 362.565l54.331 131.073c.044-.018.089-.027.142-.054 2.688-1.121 1.57-4.191 1.57-4.191l-51.75-125.084c-1.738-2.688-3.237-2.536-4.293-1.744z" fill="#F5FCFF"/><path fill="#DDF3FB" d="M68 356h256v3H68z"/><path d="M342.442-6.641c-12.895-35.35-46.492-53.025-81.121-61.718-18.751-4.704-38.602-9.078-57.985-6.973-19.356 2.09-37.557 7.909-53.998 18.624-25.143 16.381-45.31 38.884-67.745 58.663a42.89 42.89 0 0 0-4-6.176c-5.142-6.657-13.789-14.346-22.49-15.529-16.332-2.214-28.43-2.475-44.747.22-7.437 1.238-14.682 3.274-21.762 5.833-6.488-.4-12.977-.867-19.48-1.046-23.204-.633-45.062 3.576-65.861 13.906a98.634 98.634 0 0 0-9.334 5.323c-12.029 4.787-23.136 11.898-32.429 21.169-8.565 8.527-12.428 19.05-12.483 29.462-5.787 12.05-9.196 25.089-10.97 38.39-8.66 4.057-15.795 8.885-24.016 15.625-20.73 16.973-14.75 56.614 8.771 68.044 12.523 6.093 26.023 10.316 39.742 11.953 5.018 18.555 21.13 34.263 41.723 33.259 49.461-2.421 98.675-7.552 147.683-14.649 21.198-3.067 44.142-4.814 64.103-12.985 13.692-5.611 25.665-12.337 36.223-23.011 7.204-7.29 13.445-15.859 18.861-24.566 8.303-13.356 14.421-27.977 23.191-41.03a74.95 74.95 0 0 1 4.11-4.25 65.282 65.282 0 0 1 2.118-1.238 73.064 73.064 0 0 1 6.419-1.665c12.551-.894 25.13-.013 37.708-.192 19.329-.275 36.664-4.32 54.109-12.38 34.216-15.803 57.256-55.774 43.66-93.063z" fill="#E4F2F8"/><path d="M-199.671 100.59c55.332 49.668 125.304 107.383 204.596 78.938 14.875-5.337 28.8-13.782 39.592-25.419 11.204-12.09 16.785-26.601 22.05-41.951 2.997-8.721 6.063-17.73 11.41-25.337 6.832-9.71 16.565-13.59 28.03-15.102 16.043-2.132 30.601-4.856 38.286-20.687 8.179-16.863 6.227-36.78 10.09-54.744 5.224-24.263 23.865-44.138 47.496-51.401 1.374-.426 2.117-3.26.302-2.71-15.946 4.897-29.721 14.897-39.261 28.624-9.829 14.14-12.331 30.081-14.077 46.82-1.76 16.933-3.286 39.036-21.102 47.055-10.186 4.594-21.844 3.192-32.374 6.493-6.832 2.145-12.702 6.148-17.239 11.664-10.145 12.31-13.43 28.747-19.094 43.286-6.475 16.643-17.596 30.342-32.553 40.122-30.161 19.71-69.904 22.489-103.831 12.09-46.864-14.36-84.462-47.921-120.218-80.01-1.141-1.019-3.244 1.251-2.103 2.269z" fill="#fff"/><path d="M-167.228 185.153c31.673 27.152 71.127 42.2 111.873 49.242 20.923 3.618 42.176 5.227 63.401 5.502 22.628.289 46.383.371 68.392-5.488 36.017-9.573 65.312-39.256 74.632-75.389 5.774-22.338.426-46.629 10.31-67.99 8.688-18.761 25.144-32.502 39.166-47.165C232.7 10.25 247.217-36.132 234.061-81.632c-.88-3.054-5.458-.385-4.743 2.077 11.85 41.003 1.1 84.756-27.549 116.144-12.07 13.218-25.844 24.951-36.361 39.545-12.138 16.836-14.805 34.785-15.589 55.129-.797 20.769-5.018 39.874-16.634 57.425-10.75 16.231-26.243 29.394-44.251 36.863-21.363 8.872-45.42 9.271-68.213 9.463-19.768.165-39.564-.756-59.18-3.26-45.283-5.763-89.934-20.59-125.03-50.672-2.048-1.733-5.787 2.311-3.739 4.071z" fill="#DBEFF7"/></svg>