<svg width="276" height="260" fill="none" xmlns="http://www.w3.org/2000/svg"><path opacity=".5" fill-rule="evenodd" clip-rule="evenodd" d="M211.441 65.249c-1.082-.433-2.11-1.001-3.057.73-.378-1.217-.649-1.812-.784-2.462-.947-5.004-3.3-9.846-5.301-15.419a42.75 42.75 0 0 1-1.758-6.465c-.243-1.136-.352-2.326-.46-3.517L200 35.845c0-.838.054-1.704.162-2.543.298-2.786.866-5.437 1.65-8.223.054-.244.162-.406.271-.622l5.49.54 2.786.38 2.677.432c2.651.487 5.193.785 7.763.568 1.433-.108 2.866.136 4.246.325 1.866.243 3.651.46 5.409.784l.568.109a.693.693 0 0 1 .135.054c.054.027.19.054.217.08.054.028.108 0 .054-.134-.108-.244-.217-.27-.054-.163.162.108.541.217.757.163.054 0 .108-.027.162-.082.135-.108.217-.351.271-.676-.352-1.298-.812-3.002-.974-4.517-.487-4.14-1.785-7.926-1.947-12.173-.081-2.11.162-4.274.73-6.412l.216-.811.298-1.028c.216-.676.487-1.353.757-2.002l.866-1.92c.595-.352 1.244-.623 1.839-.947l1.46-.65.839-.351c.027 0 .243-.108.108-.027l-.298.135c-.135.054.054-.027.054-.027l.595-.243 1.163-.487c.217-.136.352-.081.487 0l.433.162.866.325 1.676.622c1.623.622 3.057 1.136 4.706 1.38 1.001.135 1.921.676 2.894 1.027L253.687.38c1.082.379 2.191.73 3.191 1.245a22.85 22.85 0 0 0 3.868 1.596c.676.189 1.325.378 2.028.486.325.055.704.109 1.028.136.271.027.514.027.757 0 1.055-.081 2.11.162 3.03.08l.324-.026c.244-.947.135-2.164.108-3.057l-.135-1.325-.108-2.273c-.108-1.785-.162-3.543.162-5.383.352-2.029.271-4.166.271-6.303-.027-3.273.703-6.492 2.028-9.495.568-1.244.676-1.217 2.326-.811.676 2.19 1.271 4.355 1.515 6.735.405 4.14 1.325 8.251 1.785 12.633C276-3.84 276-2.27 276-.675c0 .406 0 .595-.027 1.19l-.108 1.759a51.289 51.289 0 0 1-.433 3.49 170.695 170.695 0 0 1-1.379 6.843l-2.975-.27c-1.353-.136-2.732-.19-4.139-.433l-2.948-.568a22.51 22.51 0 0 1-1.433-.298l-.92-.243a116.59 116.59 0 0 1-3.272-.92c-2.164-.622-4.273-1.325-6.383-2.002l-9.142-2.894-2.272-.785-.568-.189-.27-.081-.081-.027-.325-.135c-.054-.055-.27-.055-.189-.109l.27-.108.136-.054.054-.027s.162-.081-.325.135l-.568.27-.054.028-.135.081-.054.027.838-.379-.027.027-.108.082c-.243.054-.162.378-.27.54l-.109.271c-.054.135-.054.108-.135.487a18.03 18.03 0 0 0-.324 1.812c-.163 1.245-.19 2.543-.136 3.869.109 2.056.541 4.138 1.163 6.167.163.541.514 1.028.893 1.488a56.526 56.526 0 0 1 2.542 3.463l2.245 3.787c1.001 1.46 2.001 2.921 3.029 4.382-.433 1.596-.811 2.76-1.136 3.625l-.919 2.029c-.163.324-.298.757-.46.974a2.932 2.932 0 0 1-.568.595c-.811.811-2.272 1.38-4.057 1.46-1.217.109-2.515.136-3.597.38a19.308 19.308 0 0 1-3.381.378c-1.163.027-2.245-.027-3.381-.081-1.487-.162-2.785-.487-4.138-.893-.73-.216-1.487-.325-2.164-.568-.757-.27-1.649-.46-2.163-.974-1.001-.947-2.029-1.136-3.165-1.217-1.704-.108-3.38-.325-5.03-.298-.758 0-1.515-.027-2.245-.108l-.676-.081a7.155 7.155 0 0 0-.352-.081c-.46-.135-1.001-.46-1.893-.974l-.216-.135c-.055 0-.082.027-.136.027-.946.297-1.19 1.893-1.19 3.138-.054 4.652 1.65 9.522 3.219 14.607.324 1.055.27 2.191.514 3.3.432 2.138.838 4.302 1.082 6.493.135 1.217.324 2.461-.568 3.652zm-37.28 157.037c.082-.682.249-1.354-.882-1.629.636-.401.933-.646 1.282-.822 2.706-1.303 5.104-3.382 7.972-5.372a25.31 25.31 0 0 1 3.414-1.988c.61-.311 1.271-.555 1.932-.798l1.282-.393c.477-.128.978-.229 1.473-.295 1.632-.256 3.228-.337 4.934-.316.147-.006.256.031.396.059l.53 3.209.209 1.645.162 1.591c.127 1.583.346 3.076.861 4.507.28.799.36 1.653.463 2.467.146 1.1.295 2.15.379 3.2l.025.34c-.003.051-.003.051-.01.086-.008.034-.002.116-.014.135-.007.035.017.062.086.01.122-.098.121-.164.084-.055-.037.109-.041.341.023.456.008.031.032.057.071.08.082.06.233.069.426.051.686-.399 1.586-.921 2.424-1.244 2.283-.909 4.242-2.226 6.635-2.967a12.84 12.84 0 0 1 3.763-.562l.495-.001.631.013c.418.02.844.071 1.255.126l1.226.2c.291.285.544.613.82.902l.592.733.329.424c.004.015.098.122.031.057l-.122-.148c-.051-.069.024.026.024.026l.229.302.455.588c.11.102.1.188.074.277l-.026.271-.053.543-.098 1.05c-.107 1.019-.181 1.913-.068 2.89.076.591-.092 1.197-.144 1.805l-.183 2.707c-.05.674-.081 1.359-.221 2.007a13.47 13.47 0 0 0-.319 2.446c-.005.414-.013.812.032 1.229.019.194.046.417.08.606.026.158.063.297.116.432.207.588.229 1.226.416 1.737l.065.181c.576-.006 1.253-.253 1.757-.405l.734-.279 1.277-.409c1.001-.334 1.994-.633 3.091-.729 1.209-.109 2.413-.481 3.63-.807 1.86-.515 3.805-.591 5.717-.294.795.133.796.199.817 1.201-1.145.719-2.286 1.388-3.605 1.89-2.295.862-4.496 2.014-6.921 2.944-.858.312-1.751.552-2.66.795-.231.062-.339.091-.682.167l-1.018.206c-.679.116-1.362.217-2.053.286a99.346 99.346 0 0 1-4.108.259l-.3-1.735c-.129-.791-.309-1.585-.385-2.423l-.126-1.765c-.028-.29-.041-.584-.049-.862l-.002-.561c0-.677.004-1.338.024-2.004.024-1.327.103-2.636.166-3.94l.254-5.648.1-1.413.021-.353.005-.166.003-.05.027-.206c.023-.039-.01-.162.033-.124l.103.137.051.069.024.027s.071.08-.126-.164l-.241-.283-.024-.026-.067-.065-.023-.027.343.42-.019-.011-.063-.049c-.068-.131-.24-.035-.349-.072l-.171-.02c-.085-.01-.07-.014-.298-.003-.344.01-.715.043-1.081.092a13.42 13.42 0 0 0-2.224.513c-1.154.375-2.274.94-3.335 1.604-.283.174-.507.449-.711.735a33.127 33.127 0 0 1-1.584 1.976l-1.814 1.856c-.679.793-1.358 1.586-2.033 2.394a24.07 24.07 0 0 1-2.238-.094l-1.295-.214c-.21-.043-.477-.054-.625-.113a1.741 1.741 0 0 1-.426-.233c-.586-.338-1.132-1.083-1.451-2.087-.247-.677-.461-1.412-.764-1.991a11.42 11.42 0 0 1-.732-1.867c-.193-.659-.327-1.283-.469-1.938-.135-.872-.148-1.661-.123-2.493.011-.449-.043-.896-.007-1.319.038-.472.01-1.009.224-1.38.387-.715.338-1.329.211-1.988-.199-.987-.331-1.975-.599-2.91a12.192 12.192 0 0 1-.28-1.295l-.057-.398c-.002-.065-.003-.131-.008-.212.007-.283.109-.64.266-1.227l.044-.144c-.008-.031-.028-.042-.036-.073-.314-.493-1.26-.388-1.969-.199-2.658.68-5.17 2.393-7.827 4.062-.551.346-1.207.489-1.801.796-1.151.573-2.322 1.134-3.532 1.607-.673.263-1.353.561-2.167.234zM.908 35.954c.16-.553.391-1.086-.506-1.469.58-.245.86-.406 1.174-.504 2.417-.705 4.687-2.095 7.333-3.347.963-.457 2-.853 3.097-1.175.547-.174 1.128-.284 1.708-.395l1.114-.148a9.98 9.98 0 0 1 1.26-.043c1.385.013 2.716.166 4.125.418.122.015.207.06.32.104l-.004 2.727-.053 1.389-.085 1.338c-.112 1.328-.137 2.593.093 3.847.122.7.07 1.417.044 2.105-.03.93-.052 1.819-.127 2.7l-.026.284c-.01.041-.01.041-.02.07-.011.027-.018.095-.03.11-.01.027.005.053.07.02.114-.065.122-.12.076-.035-.045.085-.08.277-.043.38.002.027.018.053.048.077.06.06.183.09.345.1.622-.235 1.439-.543 2.177-.695 2.013-.438 3.814-1.258 5.896-1.542a10.748 10.748 0 0 1 3.19.052l.41.068.52.097c.343.074.688.175 1.02.277l.987.333c.202.276.366.583.554.86l.39.688.213.395c.001.014.065.115.019.052l-.081-.14c-.033-.063.016.026.016.026l.148.28.295.55c.077.1.057.169.024.24l-.06.22-.118.441-.226.855c-.228.829-.412 1.559-.453 2.382-.018.5-.24.977-.367 1.474l-.523 2.213c-.135.55-.255 1.113-.46 1.63-.26.644-.464 1.309-.6 1.98-.06.342-.123.67-.142 1.021a6.66 6.66 0 0 0-.018.513c0 .134.012.254.037.372.09.515.02 1.046.105 1.495l.029.158c.477.075 1.071-.037 1.51-.093l.645-.13 1.113-.162c.873-.139 1.736-.25 2.656-.178 1.016.075 2.063-.067 3.115-.17 1.61-.17 3.228.036 4.77.544.639.22.63.274.51 1.105-1.046.438-2.082.835-3.242 1.068-2.017.398-3.996 1.048-6.13 1.484-.753.14-1.525.216-2.31.292-.2.02-.293.029-.587.044l-.87.031a25.268 25.268 0 0 1-1.738-.046 84.128 84.128 0 0 1-3.434-.35l-.01-1.477c.002-.672-.037-1.354.015-2.057l.138-1.478c.017-.244.047-.488.078-.72l.076-.464c.093-.56.188-1.106.296-1.654.202-1.095.447-2.166.679-3.237l.986-4.637.277-1.155.066-.289.027-.137.01-.041.05-.166c.024-.03.014-.136.045-.099l.066.128.033.064.016.025s.048.076-.082-.153l-.16-.266-.017-.026-.046-.062-.016-.026.227.395-.015-.012-.045-.05c-.038-.117-.194-.061-.28-.107l-.138-.04c-.069-.02-.055-.021-.246-.043a8.877 8.877 0 0 0-.907-.073c-.62-.02-1.26.029-1.91.119-1.006.152-2.01.464-2.979.868-.258.105-.481.302-.69.51-.528.508-1.047.975-1.581 1.417l-1.756 1.286c-.671.563-1.342 1.125-2.011 1.7a20.18 20.18 0 0 1-1.838-.385l-1.043-.355c-.167-.064-.387-.11-.501-.18a1.449 1.449 0 0 1-.32-.25c-.438-.36-.788-1.052-.913-1.927-.112-.593-.187-1.23-.36-1.752a9.54 9.54 0 0 1-.347-1.645c-.07-.571-.095-1.106-.123-1.667.01-.74.107-1.395.242-2.08.071-.37.088-.747.175-1.091.097-.386.148-.834.376-1.112.418-.537.462-1.052.447-1.615-.028-.844-.002-1.68-.094-2.49a9.915 9.915 0 0 1-.055-1.11l.008-.336c.008-.055.016-.11.023-.177.044-.233.178-.514.388-.978l.056-.113c-.002-.027-.017-.039-.02-.065-.191-.452-.988-.495-1.6-.436-2.292.197-4.607 1.268-7.034 2.284-.504.21-1.065.238-1.6.411-1.03.315-2.076.619-3.142.843-.593.125-1.196.278-1.824-.104z" fill="#D6EBF3"/><path opacity=".5" fill-rule="evenodd" clip-rule="evenodd" d="M74.583 193.567c-.086.33-.286.661-.214.934.057.244.385.474 1.397.33-1.24.718-1.953.977-2.68 1.135-2.852.503-5.718.101-8.355-1.25-1.298-.69-2.595-1.681-3.493-3.204-.941-1.523-1.127-3.649-.556-5.287a8.27 8.27 0 0 1 .727-1.652c.299-.459.57-.934.912-1.35.67-.848 1.44-1.638 2.296-2.285 1.696-1.307 3.65-2.198 5.674-2.7 1.654-.403 3.35-.69 5.076-.604 2.324.144 4.62.805 6.672 1.897 2.353 1.235 4.534 2.844 6.402 5.071 1.04 1.235 1.768 2.931 2.11 4.626a13.57 13.57 0 0 1-.314 6.738c-.57 1.825-1.368 3.434-2.138 5.057-1.483 3.06-4.377 5.56-7.585 6.81-3.294 1.25-6.844 1.48-9.895.675a44.011 44.011 0 0 1-5.161-1.552c-1.668-.603-3.28-1.35-4.762-2.313-3.009-1.91-5.432-4.64-7.414-7.585-1.697-2.615-2.41-5.618-3.122-8.635a4.967 4.967 0 0 1-.157-1.465c.014-.503-.015-1.006.042-1.508.057-.747.072-1.495.228-2.227.072-.374.115-.747.2-1.106l.314-1.078c.128-.546.37-1.063.599-1.566.185-.531.484-1.006.798-1.451 1.554-2.256 3.493-4.008 5.66-5.589 1.198-.905 2.652-1.451 4.05-1.982 2.98-1.106 6.159-1.537 9.338-1.437.87.043 1.74.086 2.58.273.428.086.856.158 1.284.273.413.129.841.273 1.254.431.913.316 1.811.733 2.738 1.078.898.431 1.825.775 2.68 1.293 2.71 1.422 4.82 3.692 5.989 6.235.47 1.063.37 1.092-.5 1.35-1.383-1.307-2.894-2.342-4.562-3.405-2.908-1.796-6.259-2.744-9.595-3.06l-.884-.1-.884-.058c-.585-.043-1.183-.086-1.768-.057-2.552.028-5.061.459-7.271 1.35-.556.187-1.027.503-1.554.718-2.866 1.265-5.048 3.506-6.06 6.523-.713 2.198-.784 4.655-.314 7.025.271 1.193.57 2.414 1.112 3.549.214.474.428.962.713 1.393.271.446.528.905.856 1.322.37.489.727.963 1.14 1.408a21.337 21.337 0 0 0 5.518 4.77 18.052 18.052 0 0 0 5.19 2.112c.47.115.984.086 1.454.086 3.265-.244 6.017-.762 8.654-1.968 1.24-.589 2.339-1.538 3.308-2.658.314-.417.684-.819.841-1.322.67-1.853 1.412-3.477 1.711-5.201.114-.474.057-.948.086-1.422a14.616 14.616 0 0 1-.029-.79c-.028-.259-.043-.517.014-.733.1-.402 0-.761-.085-1.135-.157-.345-.328-.689-.599-1.005-.755-.963-1.697-1.825-2.794-2.414a56.364 56.364 0 0 0-3.28-1.58 42.78 42.78 0 0 0-3.393-1.207c-1.796-.503-3.707-.23-5.446.416-3.693 1.293-7.471 5.704-4.491 8.333.513.546 1.112 1.164 1.853 1.595 1.469.819 3.237 1.235 4.962 1.221.984-.029 1.882-.216 2.923-.086zm187.634-59.361c-.06.232-.2.463-.15.654.04.171.27.332.979.232-.869.503-1.368.684-1.877.794a9.175 9.175 0 0 1-5.852-.875c-.909-.483-1.817-1.177-2.446-2.244-.659-1.066-.789-2.556-.39-3.703.13-.422.31-.805.509-1.157.21-.322.4-.654.639-.946a9.052 9.052 0 0 1 1.608-1.6 10.746 10.746 0 0 1 3.974-1.891c1.159-.282 2.347-.483 3.555-.423a11.54 11.54 0 0 1 4.674 1.328c1.647.866 3.175 1.993 4.483 3.552.729.866 1.238 2.053 1.478 3.24a9.49 9.49 0 0 1-.22 4.719c-.399 1.278-.958 2.405-1.497 3.542-1.039 2.144-3.066 3.894-5.313 4.77-2.306.875-4.793 1.036-6.93.473a30.877 30.877 0 0 1-3.615-1.087c-1.168-.423-2.296-.946-3.335-1.62-2.107-1.338-3.804-3.25-5.192-5.313-1.189-1.831-1.688-3.934-2.187-6.047a3.477 3.477 0 0 1-.11-1.026c.01-.353-.01-.705.03-1.057.04-.523.05-1.046.16-1.56.049-.261.079-.523.139-.774l.22-.755c.09-.382.26-.745.419-1.097.13-.372.34-.704.56-1.016 1.088-1.58 2.446-2.807 3.964-3.914.839-.634 1.857-1.017 2.836-1.389 2.087-.775 4.314-1.077 6.541-1.006.609.03 1.218.06 1.807.191.3.06.599.111.899.191.289.091.589.191.878.302.639.222 1.269.513 1.918.755.629.302 1.278.543 1.877.905 1.897.997 3.375 2.586 4.194 4.367.329.745.26.765-.35.946-.968-.915-2.027-1.64-3.195-2.385-2.037-1.257-4.384-1.921-6.72-2.143l-.619-.07-.62-.04a10.037 10.037 0 0 0-1.238-.041c-1.787.02-3.545.322-5.093.946-.389.131-.718.352-1.088.503-2.007.886-3.535 2.455-4.244 4.568-.499 1.54-.549 3.261-.22 4.921.19.835.4 1.69.779 2.485.15.332.3.674.5.976.189.312.369.634.599.926.259.342.509.674.799.986a14.942 14.942 0 0 0 3.864 3.341 12.648 12.648 0 0 0 3.635 1.479c.329.08.689.06 1.018.06 2.287-.171 4.214-.533 6.062-1.378.868-.413 1.637-1.077 2.316-1.862.22-.292.48-.573.59-.926.469-1.298.988-2.435 1.198-3.642.08-.332.04-.664.06-.996-.01-.181-.02-.373-.02-.554-.02-.181-.03-.362.01-.513.07-.282 0-.533-.06-.795-.11-.241-.23-.483-.42-.704-.529-.674-1.188-1.278-1.957-1.69a39.736 39.736 0 0 0-2.296-1.107 30.352 30.352 0 0 0-2.377-.846c-1.258-.352-2.596-.161-3.815.292-2.586.906-5.232 3.995-3.145 5.836.359.383.779.815 1.298 1.117 1.029.574 2.267.866 3.475.855.689-.02 1.318-.15 2.047-.06z" fill="#D7EAF2"/></svg>